<?xml version="1.0" encoding="UTF-8" standalone="no"?>
<!-- Created with Inkscape (http://www.inkscape.org/) -->

<svg
   width="64"
   height="64"
   viewBox="0 0 16.933333 16.933333"
   version="1.1"
   id="svg5"
   sodipodi:docname="Gurmukhi ੫.svg"
   inkscape:version="1.3 (0e150ed6c4, 2023-07-21)"
   xmlns:inkscape="http://www.inkscape.org/namespaces/inkscape"
   xmlns:sodipodi="http://sodipodi.sourceforge.net/DTD/sodipodi-0.dtd"
   xmlns="http://www.w3.org/2000/svg"
   xmlns:svg="http://www.w3.org/2000/svg">
  <sodipodi:namedview
     id="namedview7"
     pagecolor="#505050"
     bordercolor="#eeeeee"
     borderopacity="1"
     inkscape:showpageshadow="0"
     inkscape:pageopacity="0"
     inkscape:pagecheckerboard="0"
     inkscape:deskcolor="#505050"
     inkscape:document-units="mm"
     showgrid="false"
     inkscape:zoom="6.7277217"
     inkscape:cx="37.38264"
     inkscape:cy="40.94997"
     inkscape:window-width="1920"
     inkscape:window-height="991"
     inkscape:window-x="-9"
     inkscape:window-y="-9"
     inkscape:window-maximized="1"
     inkscape:current-layer="layer1" />
  <defs
     id="defs2" />
  <g
     inkscape:label="Layer 1"
     inkscape:groupmode="layer"
     id="layer1">
    <path
       style="font-size:12.5654px;line-height:0.95;font-family:'Noto Serif Gurmukhi';-inkscape-font-specification:'Noto Serif Gurmukhi';stroke-width:0.314136"
       d="m 10.370325,4.6279358 0.904709,0.4649198 v 7.5769364 l -0.113089,0.06283 -0.917274,-0.46492 V 10.533674 Q 9.9682322,10.784982 9.5787048,10.910636 9.2017428,11.03629 8.79965,11.03629 q -0.5277468,0 -1.005232,-0.188481 Q 7.3169328,10.646762 6.9022746,10.320062 6.4876164,9.9807962 6.160916,9.5535726 5.846781,9.126349 5.6583,8.6739946 6.1106544,8.2342056 6.412224,7.6687626 6.726359,7.1033196 6.726359,6.5001804 6.726359,6.1357838 6.600705,5.733691 6.475051,5.3315982 6.1860468,4.91694 l 0.439789,-0.2764388 q 0.5403122,0.5403122 0.8041856,1.1183206 0.2638734,0.5780084 0.2638734,1.1434514 0,0.5403122 -0.251308,1.130886 -0.2387426,0.5780084 -0.7036624,1.0806244 0.1633502,0.251308 0.4146582,0.4900506 0.2638734,0.2261772 0.6157046,0.376962 0.3643966,0.1382198 0.7916202,0.1382198 0.4774852,0 0.9298396,-0.1884814 0.4523544,-0.188481 0.753924,-0.5780084 V 4.6907628 Z"
       id="text2"
       aria-label="੫" />
  </g>
</svg>
