<?xml version="1.0" encoding="UTF-8" standalone="no"?>
<!-- Created with Inkscape (http://www.inkscape.org/) -->

<svg
   width="64"
   height="64"
   viewBox="0 0 16.933333 16.933333"
   version="1.1"
   id="svg5"
   sodipodi:docname="Gurmukhi ਢ.svg"
   inkscape:version="1.3 (0e150ed6c4, 2023-07-21)"
   xmlns:inkscape="http://www.inkscape.org/namespaces/inkscape"
   xmlns:sodipodi="http://sodipodi.sourceforge.net/DTD/sodipodi-0.dtd"
   xmlns="http://www.w3.org/2000/svg"
   xmlns:svg="http://www.w3.org/2000/svg">
  <sodipodi:namedview
     id="namedview7"
     pagecolor="#505050"
     bordercolor="#eeeeee"
     borderopacity="1"
     inkscape:showpageshadow="0"
     inkscape:pageopacity="0"
     inkscape:pagecheckerboard="0"
     inkscape:deskcolor="#505050"
     inkscape:document-units="mm"
     showgrid="false"
     inkscape:zoom="6.7277217"
     inkscape:cx="39.314944"
     inkscape:cy="42.287718"
     inkscape:window-width="1920"
     inkscape:window-height="991"
     inkscape:window-x="-9"
     inkscape:window-y="-9"
     inkscape:window-maximized="1"
     inkscape:current-layer="layer1" />
  <defs
     id="defs2" />
  <g
     inkscape:label="Layer 1"
     inkscape:groupmode="layer"
     id="layer1">
    <path
       style="font-size:12.5654px;line-height:0.95;font-family:'Noto Serif Gurmukhi';-inkscape-font-specification:'Noto Serif Gurmukhi';stroke-width:0.314136"
       d="M 6.782903,8.2090748 Q 6.84573,8.9001718 7.0090802,9.503311 7.1724304,10.10645 7.4363038,10.57137 7.9891814,9.9807962 8.6174514,9.6666612 9.2582868,9.3399608 9.9116876,9.3399608 q 0.5905734,0 1.0177974,0.251308 0.427224,0.251308 0.653401,0.6534012 0.238742,0.389527 0.238742,0.854447 0,0.46492 -0.251308,0.854447 -0.251308,0.389527 -0.703662,0.615705 -0.452354,0.226177 -1.0806244,0.226177 -0.8293164,0 -1.507848,-0.389528 Q 7.6122194,12.016391 7.1096034,11.375556 6.6069874,10.722155 6.280287,9.9556654 5.9535866,9.1766106 5.8153672,8.4226866 H 5.6645824 q -0.2890042,0 -0.4523544,-0.1130886 -0.1633502,-0.125654 -0.1633502,-0.3392658 0,-0.2010464 0.125654,-0.4272236 0.125654,-0.2387426 0.3267004,-0.439789 0.2010464,-0.2136118 0.4272236,-0.3392658 0.2387426,-0.1382194 0.439789,-0.1382194 0.2136118,0 0.314135,0.1633502 Q 6.782903,6.9399694 6.782903,7.241539 v 0.2261772 h 3.254439 V 5.3944252 H 4.3829116 L 4.1064728,4.665632 4.1692998,4.5525434 h 8.3811222 l 0.276438,0.7162278 -0.05026,0.125654 h -1.708895 v 2.5507762 l -0.226177,0.2638734 z m 3.329831,1.8973752 q -0.4649198,0 -1.0177974,0.276439 -0.5528776,0.276439 -1.068059,0.816751 0.3015696,0.351831 0.691097,0.565443 0.4020928,0.201046 0.8670126,0.201046 0.4523548,0 0.7916198,-0.138219 0.351832,-0.150785 0.540313,-0.389527 0.188481,-0.238743 0.188481,-0.515182 0,-0.314135 -0.251308,-0.565443 Q 10.61535,10.10645 10.112734,10.10645 Z"
       id="text2"
       aria-label="ਢ" />
  </g>
</svg>
