<?xml version="1.0" encoding="UTF-8" standalone="no"?>
<!-- Created with Inkscape (http://www.inkscape.org/) -->

<svg
   width="64"
   height="64"
   viewBox="0 0 16.933333 16.933333"
   version="1.1"
   id="svg5"
   sodipodi:docname="Gurmukhi ਔ.svg"
   inkscape:version="1.3 (0e150ed6c4, 2023-07-21)"
   xmlns:inkscape="http://www.inkscape.org/namespaces/inkscape"
   xmlns:sodipodi="http://sodipodi.sourceforge.net/DTD/sodipodi-0.dtd"
   xmlns="http://www.w3.org/2000/svg"
   xmlns:svg="http://www.w3.org/2000/svg">
  <sodipodi:namedview
     id="namedview7"
     pagecolor="#505050"
     bordercolor="#eeeeee"
     borderopacity="1"
     inkscape:showpageshadow="0"
     inkscape:pageopacity="0"
     inkscape:pagecheckerboard="0"
     inkscape:deskcolor="#505050"
     inkscape:document-units="mm"
     showgrid="false"
     inkscape:zoom="4.7572177"
     inkscape:cx="52.236415"
     inkscape:cy="27.011587"
     inkscape:window-width="1920"
     inkscape:window-height="991"
     inkscape:window-x="-9"
     inkscape:window-y="-9"
     inkscape:window-maximized="1"
     inkscape:current-layer="layer1" />
  <defs
     id="defs2" />
  <g
     inkscape:label="Layer 1"
     inkscape:groupmode="layer"
     id="layer1">
    <path
       style="font-size:12.5654px;line-height:0.95;font-family:'Noto Serif Gurmukhi';-inkscape-font-specification:'Noto Serif Gurmukhi';stroke-width:0.314136"
       d="m 13.731569,5.2687712 -0.05026,0.125654 h -1.495283 v 7.2753668 l -0.113088,0.06283 -0.917275,-0.46492 V 7.7818512 Q 10.816397,7.995463 10.439435,8.2719018 10.062473,8.5483406 9.7106414,8.8499102 9.3713756,9.1389144 9.0949368,9.4153532 9.0195444,9.8048806 8.8561942,10.206973 8.7054094,10.609066 8.4917976,10.935767 8.2907512,11.262467 8.0394432,11.463513 7.8007006,11.66456 7.561958,11.66456 q -0.2638734,0 -0.4272236,-0.175916 -0.1507848,-0.188481 -0.1507848,-0.46492 0,-0.289004 0.1633502,-0.6534 Q 7.3232154,9.9933616 7.5870888,9.6163996 7.8635276,9.2394376 8.1650972,8.937868 8.2656204,8.3347288 8.2153588,7.618501 8.1776626,6.8897078 8.001747,6.236307 7.4865656,6.613269 6.9839496,7.0656234 6.493899,7.5179778 6.1043716,7.9703322 6.05411,8.372425 5.9033252,8.7619524 5.7651058,9.1389144 5.551494,9.4530494 5.3504476,9.7671844 5.1242704,9.9556654 4.8980932,10.144146 4.6844814,10.144146 q -0.2387426,0 -0.4272236,-0.1633498 Q 4.0813422,9.817446 4.0813422,9.503311 q 0,-0.2638734 0.1507848,-0.6031392 Q 4.3829118,8.560906 4.6467852,8.183944 4.923224,7.806982 5.2750552,7.4425854 5.2876206,6.9776656 5.1619666,6.424788 5.048878,5.859345 4.8729624,5.3944252 H 3.478203 L 3.2017642,4.665632 3.2645912,4.5525434 H 5.2247936 Q 5.3881438,4.8666784 5.5263632,5.2687712 5.677148,5.670864 5.802802,6.0855222 5.928456,6.5001804 5.991283,6.8520116 6.3179834,6.550442 6.6949454,6.2237416 7.0719074,5.8970412 7.4488694,5.608037 7.8383968,5.3064674 8.1650972,5.0928556 h 0.075392 Q 8.4541014,5.54521 8.6174516,6.110653 8.7933672,6.676096 8.8938904,7.2541044 9.006979,7.8321128 9.0446752,8.3347288 9.3336794,8.0708554 9.6855106,7.7944166 10.037342,7.5054124 10.414304,7.241539 10.803831,6.9651002 11.155662,6.7514884 v -2.198945 h 2.299469 z M 11.231055,1.3609317 q 0.779055,0 1.193713,0.4649198 0.414658,0.4523544 0.414658,1.0554936 0,0.3392658 -0.125654,0.6408354 -0.113089,0.3015697 -0.289004,0.5403123 h -0.615705 q 0.113089,-0.1759156 0.226177,-0.4272236 0.113089,-0.2638735 0.113089,-0.5403123 0,-0.3643966 -0.226177,-0.6157046 -0.226177,-0.2638734 -0.703663,-0.2638734 -0.427223,0 -0.665966,0.2387426 -0.238742,0.2387426 -0.238742,0.62827 0,0.251308 0.08796,0.5026161 0.08796,0.251308 0.251308,0.4774852 H 10.062473 Q 9.8614262,3.8614464 9.7483376,3.5850076 9.635249,3.3085687 9.635249,3.0446953 q 0,-0.1633502 0.037696,-0.3015696 0.050262,-0.1507848 0.1382194,-0.2387426 -0.2890042,0.125654 -0.5780084,0.2010464 -0.2890042,0.075392 -0.6157046,0.075392 -0.4020928,0 -0.7162278,-0.1759156 Q 7.5870886,2.4289903 7.3986076,2.1274207 7.222692,1.8132857 7.222692,1.4363237 q 0,-0.1759156 0.037696,-0.3518312 Q 7.31065,0.90857692 7.3734766,0.77035752 h 0.062827 q 0.1005232,0.57800838 0.4146582,0.85444718 0.314135,0.2764388 0.7413586,0.2764388 0.4146582,0 0.8544472,-0.1382194 0.439789,-0.1382194 0.8921434,-0.2638734 0.452355,-0.1382194 0.892144,-0.138219 z"
       id="text2"
       aria-label="ਔ" />
  </g>
</svg>
