<?xml version="1.0" encoding="UTF-8" standalone="no"?>
<!-- Created with Inkscape (http://www.inkscape.org/) -->

<svg
   width="64"
   height="64"
   viewBox="0 0 16.933333 16.933333"
   version="1.1"
   id="svg5"
   sodipodi:docname="Gurmukhi ਊ.svg"
   inkscape:version="1.3 (0e150ed6c4, 2023-07-21)"
   xmlns:inkscape="http://www.inkscape.org/namespaces/inkscape"
   xmlns:sodipodi="http://sodipodi.sourceforge.net/DTD/sodipodi-0.dtd"
   xmlns="http://www.w3.org/2000/svg"
   xmlns:svg="http://www.w3.org/2000/svg">
  <sodipodi:namedview
     id="namedview7"
     pagecolor="#505050"
     bordercolor="#eeeeee"
     borderopacity="1"
     inkscape:showpageshadow="0"
     inkscape:pageopacity="0"
     inkscape:pagecheckerboard="0"
     inkscape:deskcolor="#505050"
     inkscape:document-units="mm"
     showgrid="false"
     inkscape:zoom="4.7572177"
     inkscape:cx="51.816002"
     inkscape:cy="27.011587"
     inkscape:window-width="1920"
     inkscape:window-height="991"
     inkscape:window-x="-9"
     inkscape:window-y="-9"
     inkscape:window-maximized="1"
     inkscape:current-layer="layer1" />
  <defs
     id="defs2" />
  <g
     inkscape:label="Layer 1"
     inkscape:groupmode="layer"
     id="layer1">
    <path
       style="font-size:12.5654px;line-height:0.95;font-family:'Noto Serif Gurmukhi';-inkscape-font-specification:'Noto Serif Gurmukhi';stroke-width:0.314136"
       d="m 11.714823,5.3944252 q -0.01257,1.0554936 -0.427224,1.8345484 -0.402093,0.7664894 -1.218844,1.0931898 0.427224,0.188481 0.779055,0.502616 0.351831,0.314135 0.552878,0.7413586 0.213611,0.4272236 0.213611,0.992667 0,0.992666 -0.665966,1.608371 -0.665966,0.615704 -1.7717213,0.615704 -0.816751,0 -1.4701518,-0.364396 Q 7.0656245,12.066653 6.5881393,11.450948 6.1232195,10.835243 5.8090845,10.043623 5.5075149,9.252003 5.3567301,8.3598596 5.2059453,7.4677162 5.2059453,6.5881382 q 0,-0.2890042 0.025131,-0.6157046 0.025131,-0.3392658 0.050262,-0.5780084 H 4.3263673 L 4.0499285,4.665632 4.1127555,4.5525434 H 5.4195571 Q 5.6457343,3.6227038 6.0352617,2.9818683 6.4247891,2.3410329 6.9022743,1.9515055 7.3923249,1.5619781 7.8949409,1.3986279 8.4101223,1.2227123 8.8624767,1.2227123 q 0.9172742,0 1.5455443,0.4649198 0.62827,0.4649198 0.95497,1.2188438 0.339266,0.7539241 0.339266,1.6460675 h 0.904709 l 0.276439,0.7162278 -0.05026,0.125654 z M 9.0132615,2.1776827 q -0.9172742,0 -1.570675,0.6534008 -0.6534008,0.6408354 -0.9675358,1.7214599 h 4.5738053 q 0,-0.439789 -0.125654,-0.8544472 Q 10.810114,3.2708725 10.558806,2.9316067 10.320063,2.5797755 9.9305357,2.3787291 9.5535737,2.1776827 9.0132615,2.1776827 Z M 6.2991351,5.3944252 q -0.087958,0.5403122 -0.1005232,1.1560168 0,0.6157046 0.050262,1.1811476 h 2.4753838 q 0.691097,0 1.193713,-0.3267004 0.5151817,-0.3392658 0.8041857,-0.8670126 0.289004,-0.5277468 0.30157,-1.1434514 z m 2.7141264,6.4711808 q 0.7664894,0 1.2314095,-0.414658 0.477485,-0.427224 0.477485,-1.118321 0,-0.4397886 -0.226177,-0.8167506 Q 10.269802,9.1389144 9.8174471,8.9127372 9.3650927,8.68656 8.6865611,8.68656 H 6.3368313 q 0.050262,0.439789 0.188481,0.8921434 0.1507848,0.4523546 0.376962,0.8670126 0.2261772,0.402093 0.5403122,0.728793 0.314135,0.314135 0.7036624,0.502616 0.4020928,0.188481 0.8670126,0.188481 z m -1.7968522,1.432456 q 0.6157046,0.427223 1.2816708,0.540312 0.6785316,0.113089 1.3319324,-0.0377 0.6534005,-0.150785 1.2188435,-0.515182 l 0.339266,0.678532 q -0.49005,0.351831 -1.068059,0.527747 Q 9.7546201,14.66769 9.1514809,14.655125 8.5483417,14.64256 7.9828987,14.416382 7.4300211,14.202771 6.9651013,13.750416 Z m -0.251308,1.306801 q 0.4774852,0.389528 1.0554936,0.590574 0.5905738,0.201047 1.193713,0.201047 0.6031392,0.01257 1.1685821,-0.175916 0.578009,-0.175916 1.030363,-0.527747 l 0.339266,0.640836 q -0.527747,0.427223 -1.193713,0.62827 -0.6534011,0.213611 -1.3570635,0.175915 -0.691097,-0.02513 -1.3444978,-0.301569 -0.6534008,-0.263874 -1.1685822,-0.779055 z"
       id="text2"
       aria-label="ਊ" />
  </g>
</svg>
