<?xml version="1.0" encoding="UTF-8" standalone="no"?>
<!-- Created with Inkscape (http://www.inkscape.org/) -->

<svg
   width="64"
   height="64"
   viewBox="0 0 16.933333 16.933333"
   version="1.1"
   id="svg5"
   sodipodi:docname="Gurmukhi ਕ.svg"
   inkscape:version="1.3 (0e150ed6c4, 2023-07-21)"
   xmlns:inkscape="http://www.inkscape.org/namespaces/inkscape"
   xmlns:sodipodi="http://sodipodi.sourceforge.net/DTD/sodipodi-0.dtd"
   xmlns="http://www.w3.org/2000/svg"
   xmlns:svg="http://www.w3.org/2000/svg">
  <sodipodi:namedview
     id="namedview7"
     pagecolor="#505050"
     bordercolor="#eeeeee"
     borderopacity="1"
     inkscape:showpageshadow="0"
     inkscape:pageopacity="0"
     inkscape:pagecheckerboard="0"
     inkscape:deskcolor="#505050"
     inkscape:document-units="mm"
     showgrid="false"
     inkscape:zoom="4.7572177"
     inkscape:cx="51.816002"
     inkscape:cy="27.011587"
     inkscape:window-width="1920"
     inkscape:window-height="991"
     inkscape:window-x="-9"
     inkscape:window-y="-9"
     inkscape:window-maximized="1"
     inkscape:current-layer="layer1" />
  <defs
     id="defs2" />
  <g
     inkscape:label="Layer 1"
     inkscape:groupmode="layer"
     id="layer1">
    <path
       style="font-size:12.5654px;line-height:0.95;font-family:'Noto Serif Gurmukhi';-inkscape-font-specification:'Noto Serif Gurmukhi';stroke-width:0.314136"
       d="m 12.525291,5.2687712 -0.05026,0.125654 h -1.608371 q 0.05026,0.3015696 0.06283,0.6031392 0.02513,0.2890042 0.02513,0.5780084 0,0.7916202 -0.16335,1.4952826 -0.163351,0.691097 -0.46492,1.2439746 0.339266,0.6534008 0.62827,1.495283 0.289004,0.841881 0.515181,1.847113 l -0.113088,0.08796 -1.055494,-0.3267 Q 10.15043,11.765083 9.9870799,11.187075 9.8362951,10.609066 9.6226833,10.144146 9.2205905,10.621632 8.6928437,10.87294 q -0.5277468,0.251308 -1.1057552,0.251308 -0.502616,0 -0.9675358,-0.163351 Q 6.1671983,10.784982 5.8153671,10.495978 5.4635359,10.194408 5.2499241,9.7923152 5.0488777,9.3902224 5.0488777,8.937868 q 0,-0.5277468 0.2638734,-0.9801012 0.2764388,-0.4523544 0.7664894,-0.7287932 0.502616,-0.2764388 1.1560168,-0.2764388 0.7036624,0 1.2942362,0.3518312 0.6031392,0.3392658 1.0931898,1.0177974 0.1759156,-0.376962 0.2638734,-0.8293164 0.087958,-0.4649198 0.087958,-0.9926666 0,-0.251308 -0.025131,-0.5403122 Q 9.9368183,5.670864 9.8739913,5.3944252 H 4.684481 L 4.4080422,4.665632 4.4708692,4.5525434 H 12.248852 Z M 7.3357805,10.395454 q 0.5905738,0 1.1057552,-0.3267 Q 8.9567171,9.7420536 9.2959829,9.1766106 8.9441517,8.560906 8.4792319,8.2216402 8.0268775,7.8823744 7.4363037,7.8823744 q -0.4649198,0 -0.7916202,0.188481 -0.3267004,0.1759156 -0.502616,0.4774852 -0.1759156,0.2890042 -0.1759156,0.6157046 0,0.3015696 0.1507848,0.5905738 0.1633502,0.276439 0.4649198,0.46492 0.314135,0.175915 0.753924,0.175915 z"
       id="text2"
       aria-label="ਕ" />
  </g>
</svg>
