<?xml version="1.0" encoding="UTF-8" standalone="no"?>
<!-- Created with Inkscape (http://www.inkscape.org/) -->

<svg
   width="64"
   height="64"
   viewBox="0 0 16.933333 16.933333"
   version="1.1"
   id="svg5"
   sodipodi:docname="Gurmukhi ੭.svg"
   inkscape:version="1.3 (0e150ed6c4, 2023-07-21)"
   xmlns:inkscape="http://www.inkscape.org/namespaces/inkscape"
   xmlns:sodipodi="http://sodipodi.sourceforge.net/DTD/sodipodi-0.dtd"
   xmlns="http://www.w3.org/2000/svg"
   xmlns:svg="http://www.w3.org/2000/svg">
  <sodipodi:namedview
     id="namedview7"
     pagecolor="#505050"
     bordercolor="#eeeeee"
     borderopacity="1"
     inkscape:showpageshadow="0"
     inkscape:pageopacity="0"
     inkscape:pagecheckerboard="0"
     inkscape:deskcolor="#505050"
     inkscape:document-units="mm"
     showgrid="false"
     inkscape:zoom="6.7277217"
     inkscape:cx="37.38264"
     inkscape:cy="40.94997"
     inkscape:window-width="1920"
     inkscape:window-height="991"
     inkscape:window-x="-9"
     inkscape:window-y="-9"
     inkscape:window-maximized="1"
     inkscape:current-layer="layer1" />
  <defs
     id="defs2" />
  <g
     inkscape:label="Layer 1"
     inkscape:groupmode="layer"
     id="layer1">
    <path
       style="font-size:12.5654px;line-height:0.95;font-family:'Noto Serif Gurmukhi';-inkscape-font-specification:'Noto Serif Gurmukhi';stroke-width:0.314136"
       d="m 8.6237343,5.3692944 q -0.439789,0 -0.7664894,0.2261772 Q 7.5431099,5.8216488 7.3671943,6.1860454 7.2038441,6.550442 7.2038441,6.990231 q 0,0.2764388 0.087958,0.5905738 0.1005232,0.314135 0.3267004,0.5905738 0.2387426,0.2764388 0.6534008,0.4649198 -0.1759156,0.1633502 -0.5277468,0.1633502 -0.3518312,0 -0.7287932,-0.2387426 -0.376962,-0.2387426 -0.62827,-0.691097 -0.251308,-0.4523544 -0.251308,-1.0806244 0,-0.565443 0.2638734,-1.0806244 0.2638734,-0.5151814 0.753924,-0.8293164 0.502616,-0.3267004 1.2188438,-0.3267004 0.8544472,0 1.4701518,0.4649198 0.6157049,0.4523544 0.9424049,1.2062784 0.326701,0.7413586 0.326701,1.6209366 0,1.1183206 -0.527747,2.0984218 -0.527747,0.967536 -1.6209369,1.671198 -1.0931898,0.691097 -2.7895188,0.980101 L 5.8216501,11.639429 Q 7.3169327,11.413252 8.2844685,10.835243 9.2520043,10.24467 9.7169241,9.3902224 10.181844,8.5357752 10.181844,7.5305432 10.181844,6.864577 9.9807975,6.3870918 9.7797511,5.8970412 9.4279199,5.6331678 9.0886541,5.3692944 8.6237343,5.3692944 Z"
       id="text2"
       aria-label="੭" />
  </g>
</svg>
