<?xml version="1.0" encoding="UTF-8" standalone="no"?>
<!-- Created with Inkscape (http://www.inkscape.org/) -->

<svg
   width="64"
   height="64"
   viewBox="0 0 16.933333 16.933333"
   version="1.1"
   id="svg5"
   sodipodi:docname="Gurmukhi ਸ.svg"
   inkscape:version="1.3 (0e150ed6c4, 2023-07-21)"
   xmlns:inkscape="http://www.inkscape.org/namespaces/inkscape"
   xmlns:sodipodi="http://sodipodi.sourceforge.net/DTD/sodipodi-0.dtd"
   xmlns="http://www.w3.org/2000/svg"
   xmlns:svg="http://www.w3.org/2000/svg">
  <sodipodi:namedview
     id="namedview7"
     pagecolor="#505050"
     bordercolor="#eeeeee"
     borderopacity="1"
     inkscape:showpageshadow="0"
     inkscape:pageopacity="0"
     inkscape:pagecheckerboard="0"
     inkscape:deskcolor="#505050"
     inkscape:document-units="mm"
     showgrid="false"
     inkscape:zoom="6.7277217"
     inkscape:cx="37.38264"
     inkscape:cy="40.94997"
     inkscape:window-width="1920"
     inkscape:window-height="991"
     inkscape:window-x="-9"
     inkscape:window-y="-9"
     inkscape:window-maximized="1"
     inkscape:current-layer="layer1" />
  <defs
     id="defs2" />
  <g
     inkscape:label="Layer 1"
     inkscape:groupmode="layer"
     id="layer1">
    <path
       style="-inkscape-font-specification:'Noto Serif Gurmukhi';stroke-width:0.314136"
       d="m 12.770316,5.2687712 -0.05026,0.125654 h -1.495283 v 7.2753668 l -0.125654,0.06283 -0.904709,-0.46492 V 9.2896992 H 7.4048903 q -0.037696,0.4020928 -0.1382194,0.8041858 -0.1005232,0.402093 -0.2638734,0.728793 -0.1633502,0.3267 -0.3895274,0.527747 -0.2136118,0.201046 -0.4774852,0.201046 -0.2890042,0 -0.502616,-0.188481 -0.2010464,-0.201046 -0.2010464,-0.590574 0,-0.263873 0.1130886,-0.603139 Q 5.6582997,9.817446 5.8719115,9.440484 6.0855233,9.063522 6.3870929,8.7242562 6.4122237,8.3472942 6.3745275,7.8949398 6.3368313,7.4425854 6.2614389,6.990231 6.1986119,6.5378766 6.0855233,6.1232184 5.9850001,5.7085602 5.8467807,5.3944252 H 4.4394559 L 4.1630171,4.665632 4.2258441,4.5525434 H 12.493877 Z M 10.194409,8.5106444 V 5.3944252 H 6.7263587 q 0.188481,0.4649198 0.3267004,1.0303628 0.1382194,0.5528776 0.2261772,1.1057552 0.087958,0.5403122 0.1005232,0.9801012 z"
       id="text2"
       aria-label="ਸ" />
  </g>
</svg>
