<?xml version="1.0" encoding="UTF-8" standalone="no"?>
<!-- Created with Inkscape (http://www.inkscape.org/) -->

<svg
   width="64"
   height="64"
   viewBox="0 0 16.933333 16.933333"
   version="1.1"
   id="svg5"
   sodipodi:docname="Gurmukhi ਇ.svg"
   inkscape:version="1.3 (0e150ed6c4, 2023-07-21)"
   xmlns:inkscape="http://www.inkscape.org/namespaces/inkscape"
   xmlns:sodipodi="http://sodipodi.sourceforge.net/DTD/sodipodi-0.dtd"
   xmlns="http://www.w3.org/2000/svg"
   xmlns:svg="http://www.w3.org/2000/svg">
  <sodipodi:namedview
     id="namedview7"
     pagecolor="#505050"
     bordercolor="#eeeeee"
     borderopacity="1"
     inkscape:showpageshadow="0"
     inkscape:pageopacity="0"
     inkscape:pagecheckerboard="0"
     inkscape:deskcolor="#505050"
     inkscape:document-units="mm"
     showgrid="false"
     inkscape:zoom="4.7572177"
     inkscape:cx="51.816002"
     inkscape:cy="24.489104"
     inkscape:window-width="1920"
     inkscape:window-height="991"
     inkscape:window-x="-9"
     inkscape:window-y="-9"
     inkscape:window-maximized="1"
     inkscape:current-layer="layer1" />
  <defs
     id="defs2" />
  <g
     inkscape:label="Layer 1"
     inkscape:groupmode="layer"
     id="layer1">
    <path
       style="font-size:12.5654px;line-height:0.95;font-family:'Noto Serif Gurmukhi';-inkscape-font-specification:'Noto Serif Gurmukhi';stroke-width:0.314136"
       d="m 6.2865696,0.88344652 q 0.8418818,0 1.4827173,0.40209278 0.6408354,0.4020928 1.0806244,1.1183206 0.439789,0.7162278 0.6534008,1.6586329 l -0.062827,0.075392 H 9.0760885 Q 8.7870843,3.4719189 8.4226877,2.9693029 8.0708565,2.4541215 7.6059367,2.1651173 7.1535822,1.8635477 6.5378776,1.8635477 q -0.439789,0 -0.8418818,0.1759156 -0.4020928,0.1633502 -0.6659662,0.5403122 -0.251308,0.3643966 -0.251308,0.9549704 0,0.2261773 0.050262,0.4900507 0.050262,0.251308 0.1507848,0.5277468 h 1.507848 l 0.2764388,0.7162278 -0.062827,0.125654 H 5.168249 v 7.2753668 l -0.125654,0.06283 -0.9047088,-0.46492 V 5.3944252 H 2.84365 L 2.5672112,4.665632 2.6300382,4.5525434 H 4.1504516 Q 3.9871014,4.1881468 3.8991436,3.8363156 3.8237512,3.4719189 3.8237512,3.1577839 q 0,-0.7162278 0.3392658,-1.2188438 Q 4.5022828,1.4237587 5.0551604,1.1598853 5.6206034,0.88344652 6.2865696,0.88344652 Z M 11.702257,8.68656 q -1.181148,0 -2.1863795,0.4020928 -1.005232,0.4020928 -1.633502,1.1434512 0.3015696,0.46492 0.7162278,0.804186 0.4272236,0.339266 0.9047088,0.527747 0.4900506,0.175915 0.9549699,0.175915 0.640836,0 1.181148,-0.263873 0.552878,-0.263874 0.942405,-0.691097 h 0.13822 l 0.552877,0.779055 q -0.439789,0.502616 -1.068059,0.829316 -0.615705,0.3267 -1.407325,0.3267 -0.653401,0 -1.2565397,-0.238742 Q 8.9378691,12.242568 8.4226877,11.840475 7.9075063,11.425817 7.5179789,10.923201 7.1410168,10.40802 6.927405,9.8677076 7.3671941,9.2394376 7.9954641,8.7870832 8.6362995,8.3347288 9.3650927,8.1462478 8.7368227,8.0205938 8.2844683,7.7315896 7.8446793,7.4425854 7.5682405,7.0656234 7.2918017,6.676096 7.1535822,6.2488724 7.0279282,5.8090834 7.0027974,5.3944252 H 5.859346 L 5.5829072,4.665632 5.6457342,4.5525434 h 8.4439488 l 0.276439,0.7162278 -0.05026,0.125654 h -1.721459 v 3.015696 L 12.368223,8.68656 Z M 11.564038,5.3944252 H 8.0708565 q 0,0.4649198 0.1382194,0.9047088 0.1507848,0.439789 0.4523544,0.7916202 0.314135,0.3392658 0.8041856,0.5403122 0.4900506,0.2010464 1.1811471,0.2010464 h 0.917275 z"
       id="text2"
       aria-label="ਇ" />
  </g>
</svg>
