<?xml version="1.0" encoding="UTF-8" standalone="no"?>
<!-- Created with Inkscape (http://www.inkscape.org/) -->

<svg
   width="64"
   height="64"
   viewBox="0 0 16.933333 16.933333"
   version="1.1"
   id="svg5"
   sodipodi:docname="Gurmukhi ਗ਼.svg"
   inkscape:version="1.3 (0e150ed6c4, 2023-07-21)"
   xmlns:inkscape="http://www.inkscape.org/namespaces/inkscape"
   xmlns:sodipodi="http://sodipodi.sourceforge.net/DTD/sodipodi-0.dtd"
   xmlns="http://www.w3.org/2000/svg"
   xmlns:svg="http://www.w3.org/2000/svg">
  <sodipodi:namedview
     id="namedview7"
     pagecolor="#505050"
     bordercolor="#eeeeee"
     borderopacity="1"
     inkscape:showpageshadow="0"
     inkscape:pageopacity="0"
     inkscape:pagecheckerboard="0"
     inkscape:deskcolor="#505050"
     inkscape:document-units="mm"
     showgrid="false"
     inkscape:zoom="6.7277217"
     inkscape:cx="37.38264"
     inkscape:cy="40.94997"
     inkscape:window-width="1920"
     inkscape:window-height="991"
     inkscape:window-x="-9"
     inkscape:window-y="-9"
     inkscape:window-maximized="1"
     inkscape:current-layer="layer1" />
  <defs
     id="defs2" />
  <g
     inkscape:label="Layer 1"
     inkscape:groupmode="layer"
     id="layer1">
    <path
       style="-inkscape-font-specification:'Noto Serif Gurmukhi';stroke-width:0.314136"
       d="M 3.4467894,5.3944252 3.1703506,4.665632 3.2331776,4.5525434 h 6.2324385 l 0.2764388,0.7162278 -0.062827,0.125654 z m 10.3161936,-0.125654 -0.05026,0.125654 h -1.495282 v 7.2753668 l -0.125654,0.06283 -0.904709,-0.46492 V 5.3944252 H 9.1766119 v 4.7245908 q 0,0.841881 -0.188481,1.394759 -0.1759156,0.552878 -0.5528776,0.816751 -0.3643966,0.263873 -0.9172743,0.263873 -0.5780084,0 -1.1560168,-0.314135 Q 5.7839538,11.953564 5.319034,11.438383 4.8541142,10.910636 4.56511,10.307497 4.2886712,9.7043574 4.2886712,9.1389144 q 0,-0.439789 0.188481,-0.8418818 Q 4.6781986,7.8949398 5.130553,7.6436318 5.5954728,7.3923238 6.3745276,7.3923238 H 8.1713799 V 5.3944252 H 3.7986206 L 3.5221818,4.665632 3.5850088,4.5525434 H 13.486544 Z M 7.2792364,11.853041 q 0.5151814,0 0.7036625,-0.439789 0.188481,-0.439789 0.188481,-1.294236 V 8.2342056 H 6.7514896 q -0.7664894,0 -1.1183206,0.314135 -0.3392658,0.3015696 -0.3392658,0.8418818 0,0.4272236 0.1759156,0.8670126 0.188481,0.427224 0.4774852,0.79162 0.3015696,0.364397 0.6534008,0.590574 0.3518312,0.213612 0.6785316,0.213612 z M 3.999667,12.594399 q 0,-0.289004 0.188481,-0.477485 0.2010464,-0.188481 0.4900506,-0.188481 0.3015696,0 0.4900506,0.201047 0.2010464,0.201046 0.2010464,0.49005 0,0.276439 -0.188481,0.477485 -0.188481,0.201047 -0.4900506,0.201047 -0.3015696,0 -0.502616,-0.201047 -0.188481,-0.201046 -0.188481,-0.502616 z"
       id="text2"
       aria-label="ਗ਼" />
  </g>
</svg>
