<?xml version="1.0" encoding="UTF-8" standalone="no"?>
<!-- Created with Inkscape (http://www.inkscape.org/) -->

<svg
   width="64"
   height="64"
   viewBox="0 0 16.933333 16.933333"
   version="1.1"
   id="svg5"
   sodipodi:docname="Gurmukhi ਡ.svg"
   inkscape:version="1.3 (0e150ed6c4, 2023-07-21)"
   xmlns:inkscape="http://www.inkscape.org/namespaces/inkscape"
   xmlns:sodipodi="http://sodipodi.sourceforge.net/DTD/sodipodi-0.dtd"
   xmlns="http://www.w3.org/2000/svg"
   xmlns:svg="http://www.w3.org/2000/svg">
  <sodipodi:namedview
     id="namedview7"
     pagecolor="#505050"
     bordercolor="#eeeeee"
     borderopacity="1"
     inkscape:showpageshadow="0"
     inkscape:pageopacity="0"
     inkscape:pagecheckerboard="0"
     inkscape:deskcolor="#505050"
     inkscape:document-units="mm"
     showgrid="false"
     inkscape:zoom="6.7277217"
     inkscape:cx="39.314944"
     inkscape:cy="42.287718"
     inkscape:window-width="1920"
     inkscape:window-height="991"
     inkscape:window-x="-9"
     inkscape:window-y="-9"
     inkscape:window-maximized="1"
     inkscape:current-layer="layer1" />
  <defs
     id="defs2" />
  <g
     inkscape:label="Layer 1"
     inkscape:groupmode="layer"
     id="layer1">
    <path
       style="font-size:12.5654px;line-height:0.95;font-family:'Noto Serif Gurmukhi';-inkscape-font-specification:'Noto Serif Gurmukhi';stroke-width:0.314136"
       d="m 12.531574,5.2687712 -0.05026,0.125654 h -1.74659 q 0.02513,0.125654 0.05026,0.2638734 0.02513,0.125654 0.02513,0.251308 0,0.5780084 -0.30157,1.0429282 -0.289004,0.4523544 -0.7916198,0.7413586 0.7036628,0.376962 1.1560168,1.0177974 0.46492,0.62827 0.46492,1.4827172 0,0.804186 -0.427224,1.394759 -0.427223,0.578009 -1.1560166,0.892144 -0.7162278,0.314135 -1.5832404,0.314135 -0.8418819,0 -1.4952827,-0.263874 Q 6.0226965,12.267699 5.6582999,11.82791 5.2939033,11.375556 5.2939033,10.822678 q 0,-0.427224 0.2261772,-0.779055 Q 5.7588231,9.691792 6.1860467,9.4781802 6.6132703,9.252003 7.1912787,9.252003 q 0.7036624,0 1.4827173,0.3895274 0.7790548,0.3895276 1.470152,1.3444976 0.125654,-0.201046 0.188481,-0.427223 0.07539,-0.238743 0.07539,-0.515182 0,-0.6282698 -0.364396,-1.168582 Q 9.6917934,8.3347288 9.0258272,8.0708554 8.611169,8.2090748 8.1462492,8.2719018 q -0.4649199,0.050262 -0.9047089,0.050262 -0.3895274,0 -0.7287932,-0.062827 Q 6.1860467,8.1965094 5.9850003,8.05829 5.7965193,7.9075052 5.7965193,7.6687626 q 0,-0.3392658 0.4020928,-0.4774852 0.4146582,-0.1507848 0.9675358,-0.1507848 0.5277468,0 1.0303629,0.087958 0.502616,0.087958 0.8670126,0.251308 Q 9.3776584,7.2038428 9.5912702,6.8520116 9.804882,6.487615 9.804882,6.0352606 q 0,-0.1507848 -0.025131,-0.314135 Q 9.7546204,5.5577754 9.6917934,5.3944252 H 4.6781987 L 4.4017599,4.665632 4.4645869,4.5525434 H 12.255135 Z M 7.8698103,12.079218 q 0.5905739,0 1.0806245,-0.16335 0.502616,-0.175916 0.8418818,-0.490051 Q 9.2520044,10.697024 8.6488652,10.370324 8.045726,10.043623 7.4677175,10.043623 q -0.5905738,0 -0.9172742,0.289004 -0.3267004,0.289005 -0.3267004,0.691097 0,0.439789 0.439789,0.753924 0.439789,0.30157 1.2062784,0.30157 z"
       id="text2"
       aria-label="ਡ" />
  </g>
</svg>
