<?xml version="1.0" encoding="UTF-8" standalone="no"?>
<!-- Created with Inkscape (http://www.inkscape.org/) -->

<svg
   width="64"
   height="64"
   viewBox="0 0 16.933333 16.933333"
   version="1.1"
   id="svg5"
   sodipodi:docname="Gurmukhi ਵ.svg"
   inkscape:version="1.3 (0e150ed6c4, 2023-07-21)"
   xmlns:inkscape="http://www.inkscape.org/namespaces/inkscape"
   xmlns:sodipodi="http://sodipodi.sourceforge.net/DTD/sodipodi-0.dtd"
   xmlns="http://www.w3.org/2000/svg"
   xmlns:svg="http://www.w3.org/2000/svg">
  <sodipodi:namedview
     id="namedview7"
     pagecolor="#505050"
     bordercolor="#eeeeee"
     borderopacity="1"
     inkscape:showpageshadow="0"
     inkscape:pageopacity="0"
     inkscape:pagecheckerboard="0"
     inkscape:deskcolor="#505050"
     inkscape:document-units="mm"
     showgrid="false"
     inkscape:zoom="6.7277217"
     inkscape:cx="37.38264"
     inkscape:cy="40.94997"
     inkscape:window-width="1920"
     inkscape:window-height="991"
     inkscape:window-x="-9"
     inkscape:window-y="-9"
     inkscape:window-maximized="1"
     inkscape:current-layer="layer1" />
  <defs
     id="defs2" />
  <g
     inkscape:label="Layer 1"
     inkscape:groupmode="layer"
     id="layer1">
    <path
       style="font-size:12.5654px;line-height:0.95;font-family:'Noto Serif Gurmukhi';-inkscape-font-specification:'Noto Serif Gurmukhi';stroke-width:0.314136"
       d="m 7.4551519,7.4802816 q -0.7287932,0 -1.1057552,0.2261772 -0.3643966,0.2136118 -0.3643966,0.6408354 0,0.5151814 0.4900506,0.7287932 0.4900506,0.2010464 1.3444978,0.2010464 h 3.3047005 l 0.238742,0.8041852 -0.05026,0.113089 H 7.8823755 q -0.125654,0.30157 -0.125654,0.603139 0,0.540312 0.376962,0.804186 0.3895274,0.251308 1.130886,0.251308 h 1.9350715 l 0.289004,0.841882 -0.06283,0.113088 H 9.6415315 q -0.9172742,0 -1.507848,-0.289004 -0.5780084,-0.276439 -0.8544472,-0.741359 -0.2764388,-0.477485 -0.2764388,-1.030362 0,-0.175916 0.025131,-0.339266 0.037696,-0.16335 0.075392,-0.289004 Q 6.5127469,10.005927 6.0478271,9.7294882 5.5954727,9.440484 5.3315993,9.0383912 5.0802913,8.623733 5.0802913,8.1336824 q 0,-0.4523544 0.2261772,-0.7916202 Q 5.5326457,6.990231 6.0101309,6.7891846 6.4876161,6.5881382 7.2289747,6.5881382 H 10.307498 V 5.3944252 H 4.4394559 L 4.1630171,4.665632 4.2258441,4.5525434 h 8.2680329 l 0.276439,0.7162278 -0.05026,0.125654 H 11.287599 V 7.178712 l -0.263873,0.3015696 z"
       id="text2"
       aria-label="ਵ" />
  </g>
</svg>
