<?xml version="1.0" encoding="UTF-8" standalone="no"?>
<!-- Created with Inkscape (http://www.inkscape.org/) -->

<svg
   width="64"
   height="64"
   viewBox="0 0 16.933333 16.933333"
   version="1.1"
   id="svg5"
   sodipodi:docname="Gurmukhi ◌੍.svg"
   inkscape:version="1.3 (0e150ed6c4, 2023-07-21)"
   xmlns:inkscape="http://www.inkscape.org/namespaces/inkscape"
   xmlns:sodipodi="http://sodipodi.sourceforge.net/DTD/sodipodi-0.dtd"
   xmlns="http://www.w3.org/2000/svg"
   xmlns:svg="http://www.w3.org/2000/svg">
  <sodipodi:namedview
     id="namedview7"
     pagecolor="#505050"
     bordercolor="#eeeeee"
     borderopacity="1"
     inkscape:showpageshadow="0"
     inkscape:pageopacity="0"
     inkscape:pagecheckerboard="0"
     inkscape:deskcolor="#505050"
     inkscape:document-units="mm"
     showgrid="false"
     inkscape:zoom="6.7277217"
     inkscape:cx="37.38264"
     inkscape:cy="40.94997"
     inkscape:window-width="1920"
     inkscape:window-height="991"
     inkscape:window-x="-9"
     inkscape:window-y="-9"
     inkscape:window-maximized="1"
     inkscape:current-layer="layer1" />
  <defs
     id="defs2" />
  <g
     inkscape:label="Layer 1"
     inkscape:groupmode="layer"
     id="layer1">
    <path
       style="font-size:12.5654px;line-height:0.95;font-family:'Noto Serif Gurmukhi';-inkscape-font-specification:'Noto Serif Gurmukhi';stroke-width:0.314136"
       d="m 7.1221623,5.8090834 q 0.1382194,0 0.2261772,0.1005232 0.1005232,0.087958 0.1005232,0.2261772 0,0.125654 -0.1005232,0.2261772 -0.087958,0.1005232 -0.2261772,0.1005232 -0.125654,0 -0.2261772,-0.1005232 -0.1005232,-0.1005232 -0.1005232,-0.2261772 0,-0.1382194 0.1005232,-0.2261772 0.1005232,-0.1005232 0.2261772,-0.1005232 z m 2.1109873,0 q 0.1382194,0 0.2261772,0.1005232 0.1005232,0.087958 0.1005232,0.2261772 0,0.125654 -0.1005232,0.2261772 -0.087958,0.1005232 -0.2261772,0.1005232 -0.125654,0 -0.2261772,-0.1005232 -0.1005232,-0.1005232 -0.1005232,-0.2261772 0,-0.1382194 0.1005232,-0.2261772 Q 9.1074956,5.8090834 9.2331496,5.8090834 Z M 7.1221623,10.960897 q 0.1382194,0 0.2261772,0.100524 0.1005232,0.08796 0.1005232,0.226177 0,0.125654 -0.1005232,0.226177 -0.087958,0.100523 -0.2261772,0.100523 -0.125654,0 -0.2261772,-0.100523 -0.1005232,-0.100523 -0.1005232,-0.226177 0,-0.13822 0.1005232,-0.226177 0.1005232,-0.100524 0.2261772,-0.100524 z m 2.1109873,0 q 0.1382194,0 0.2261772,0.100524 0.1005232,0.08796 0.1005232,0.226177 0,0.125654 -0.1005232,0.226177 -0.087958,0.100523 -0.2261772,0.100523 -0.125654,0 -0.2261772,-0.100523 -0.1005232,-0.100523 -0.1005232,-0.226177 0,-0.13822 0.1005232,-0.226177 0.1005232,-0.100524 0.2261772,-0.100524 z M 8.177656,5.5829062 q 0.1382194,0 0.2261772,0.1005232 0.1005232,0.087958 0.1005232,0.2261772 0,0.125654 -0.1005232,0.2261772 -0.087958,0.1005232 -0.2261772,0.1005232 -0.125654,0 -0.2261772,-0.1005232 -0.1005232,-0.1005232 -0.1005232,-0.2261772 0,-0.1382194 0.1005232,-0.2261772 Q 8.052002,5.5829062 8.177656,5.5829062 Z m 0,5.6041688 q 0.1382194,0 0.2261772,0.100523 0.1005232,0.08796 0.1005232,0.226177 0,0.125654 -0.1005232,0.226177 -0.087958,0.100523 -0.2261772,0.100523 -0.125654,0 -0.2261772,-0.100523 -0.1005232,-0.100523 -0.1005232,-0.226177 0,-0.138219 0.1005232,-0.226177 Q 8.052002,11.187075 8.177656,11.187075 Z M 5.0488713,8.7116908 q 0,-0.1382194 0.1005232,-0.2261772 0.1005232,-0.1005232 0.2261772,-0.1005232 0.1382194,0 0.2261772,0.1005232 0.1005232,0.087958 0.1005232,0.2261772 0,0.125654 -0.1005232,0.2261772 -0.087958,0.1005232 -0.2261772,0.1005232 -0.125654,0 -0.2261772,-0.1005232 Q 5.0488713,8.8373448 5.0488713,8.7116908 Z m 5.6041687,0 q 0,-0.1382194 0.100523,-0.2261772 0.100523,-0.1005232 0.226177,-0.1005232 0.13822,0 0.226177,0.1005232 0.100524,0.087958 0.100524,0.2261772 0,0.125654 -0.100524,0.2261772 -0.08796,0.1005232 -0.226177,0.1005232 -0.125654,0 -0.226177,-0.1005232 Q 10.65304,8.8373448 10.65304,8.7116908 Z M 5.8656223,10.697024 q 0,-0.138219 0.1005232,-0.226177 0.1005232,-0.100523 0.2261772,-0.100523 0.1382194,0 0.2261772,0.100523 0.1005232,0.08796 0.1005232,0.226177 0,0.125654 -0.1005232,0.226177 -0.087958,0.100523 -0.2261772,0.100523 -0.125654,0 -0.2261772,-0.100523 -0.1005232,-0.100523 -0.1005232,-0.226177 z m 0,-3.9706664 q 0,-0.1382194 0.1005232,-0.2261772 0.1005232,-0.1005232 0.2261772,-0.1005232 0.1382194,0 0.2261772,0.1005232 0.1005232,0.087958 0.1005232,0.2261772 0,0.125654 -0.1005232,0.2261772 -0.087958,0.1005232 -0.2261772,0.1005232 -0.125654,0 -0.2261772,-0.1005232 Q 5.8656223,6.8520116 5.8656223,6.7263576 Z m 3.9706665,3.9706664 q 0,-0.138219 0.1005232,-0.226177 0.100523,-0.100523 0.226177,-0.100523 0.13822,0 0.226177,0.100523 0.100524,0.08796 0.100524,0.226177 0,0.125654 -0.100524,0.226177 -0.08796,0.100523 -0.226177,0.100523 -0.125654,0 -0.226177,-0.100523 -0.1005232,-0.100523 -0.1005232,-0.226177 z m 0,-3.9706664 q 0,-0.1382194 0.1005232,-0.2261772 0.100523,-0.1005232 0.226177,-0.1005232 0.13822,0 0.226177,0.1005232 0.100524,0.087958 0.100524,0.2261772 0,0.125654 -0.100524,0.2261772 -0.08796,0.1005232 -0.226177,0.1005232 -0.125654,0 -0.226177,-0.1005232 Q 9.8362888,6.8520116 9.8362888,6.7263576 Z M 5.2750485,9.7671844 q 0,-0.1382194 0.1005232,-0.2261772 0.1005232,-0.1005232 0.2261772,-0.1005232 0.1382194,0 0.2261772,0.1005232 0.1005232,0.087958 0.1005232,0.2261772 0,0.125654 -0.1005232,0.2261772 -0.087958,0.1005234 -0.2261772,0.1005234 -0.125654,0 -0.2261772,-0.1005234 Q 5.2750485,9.8928384 5.2750485,9.7671844 Z m 0,-2.1109872 q 0,-0.1382194 0.1005232,-0.2261772 0.1005232,-0.1005232 0.2261772,-0.1005232 0.1382194,0 0.2261772,0.1005232 0.1005232,0.087958 0.1005232,0.2261772 0,0.125654 -0.1005232,0.2261772 -0.087958,0.1005232 -0.2261772,0.1005232 -0.125654,0 -0.2261772,-0.1005232 Q 5.2750485,7.7818512 5.2750485,7.6561972 Z m 5.1518145,2.1109872 q 0,-0.1382194 0.100523,-0.2261772 0.100523,-0.1005232 0.226177,-0.1005232 0.138219,0 0.226177,0.1005232 0.100523,0.087958 0.100523,0.2261772 0,0.125654 -0.100523,0.2261772 -0.08796,0.1005234 -0.226177,0.1005234 -0.125654,0 -0.226177,-0.1005234 -0.100523,-0.1005232 -0.100523,-0.2261772 z m 0,-2.1109872 q 0,-0.1382194 0.100523,-0.2261772 0.100523,-0.1005232 0.226177,-0.1005232 0.138219,0 0.226177,0.1005232 0.100523,0.087958 0.100523,0.2261772 0,0.125654 -0.100523,0.2261772 -0.08796,0.1005232 -0.226177,0.1005232 -0.125654,0 -0.226177,-0.1005232 Q 10.426863,7.7818512 10.426863,7.6561972 Z M 8.378715,14.127371 8.1525378,13.184966 q 0.188481,-0.02513 0.3895274,-0.0377 0.188481,-0.01257 0.3895274,-0.01257 0.502616,0 0.8670126,0.100524 0.3518308,0.113088 0.6534008,0.376962 0.30157,0.276438 0.62827,0.753924 0.339266,0.49005 0.804186,1.243974 l -0.402093,0.251308 q -0.351831,-0.565443 -0.62827,-0.917274 -0.289004,-0.339266 -0.540312,-0.527747 -0.263874,-0.188481 -0.552878,-0.263873 -0.3015696,-0.06283 -0.691097,-0.06283 -0.1759156,0 -0.3392658,0 -0.1759156,0.01257 -0.3518312,0.0377 z"
       id="text2"
       aria-label="◌੍" />
  </g>
</svg>
