<?xml version="1.0" encoding="UTF-8" standalone="no"?>
<!-- Created with Inkscape (http://www.inkscape.org/) -->

<svg
   width="64"
   height="64"
   viewBox="0 0 16.933333 16.933333"
   version="1.1"
   id="svg5"
   sodipodi:docname="Gurmukhi ੪.svg"
   inkscape:version="1.3 (0e150ed6c4, 2023-07-21)"
   xmlns:inkscape="http://www.inkscape.org/namespaces/inkscape"
   xmlns:sodipodi="http://sodipodi.sourceforge.net/DTD/sodipodi-0.dtd"
   xmlns="http://www.w3.org/2000/svg"
   xmlns:svg="http://www.w3.org/2000/svg">
  <sodipodi:namedview
     id="namedview7"
     pagecolor="#505050"
     bordercolor="#eeeeee"
     borderopacity="1"
     inkscape:showpageshadow="0"
     inkscape:pageopacity="0"
     inkscape:pagecheckerboard="0"
     inkscape:deskcolor="#505050"
     inkscape:document-units="mm"
     showgrid="false"
     inkscape:zoom="6.7277217"
     inkscape:cx="37.38264"
     inkscape:cy="40.94997"
     inkscape:window-width="1920"
     inkscape:window-height="991"
     inkscape:window-x="-9"
     inkscape:window-y="-9"
     inkscape:window-maximized="1"
     inkscape:current-layer="layer1" />
  <defs
     id="defs2" />
  <g
     inkscape:label="Layer 1"
     inkscape:groupmode="layer"
     id="layer1">
    <path
       style="font-size:12.5654px;line-height:0.95;font-family:'Noto Serif Gurmukhi';-inkscape-font-specification:'Noto Serif Gurmukhi';stroke-width:0.314136"
       d="m 9.3902236,8.5734714 q 0.4900506,0.2010464 0.9172744,0.502616 0.427223,0.3015696 0.691097,0.7162278 0.263873,0.4020928 0.263873,0.9298398 0,0.552877 -0.314135,1.005232 -0.301569,0.439789 -0.854447,0.691097 -0.5528776,0.251308 -1.2942362,0.251308 -0.7916202,0 -1.4575864,-0.289004 -0.6534008,-0.289005 -1.0554936,-0.779055 -0.3895274,-0.502616 -0.3895274,-1.118321 0,-0.6910968 0.4900506,-1.231409 Q 6.889709,8.6991254 7.6561984,8.3472942 7.0404938,8.0834208 6.5881394,7.7692858 6.1483504,7.4551508 5.9096078,7.0656234 5.6708652,6.6635306 5.6708652,6.1860454 q 0,-0.4900506 0.2136118,-0.8418818 Q 6.1106542,4.979767 6.4624854,4.791286 6.8143166,4.5902396 7.203844,4.5902396 q 0.2764388,0 0.4774852,0.1633502 0.2010464,0.1507848 0.251308,0.4649198 Q 7.4928482,5.2436404 7.2164094,5.4446868 6.952536,5.6331678 6.826882,5.8970412 6.7137934,6.1609146 6.7137934,6.4122226 q 0,0.502616 0.4272236,0.9172742 0.4272236,0.4020928 1.193713,0.691097 0.5403122,-0.2638734 0.9801012,-0.5528776 0.439789,-0.2890042 0.7036628,-0.62827 0.263873,-0.3518312 0.263873,-0.753924 0,-0.3895274 -0.263873,-0.7036624 Q 9.7671856,5.0551594 9.3525274,4.854113 l 0.075392,-0.188481 q 0.5277468,0.037696 0.9298392,0.2890042 0.414659,0.251308 0.640836,0.6408354 0.238742,0.376962 0.238742,0.8418818 0,0.4649198 -0.238742,0.8544472 -0.238743,0.376962 -0.665966,0.691097 -0.4146586,0.314135 -0.9424054,0.5905738 z M 8.523211,11.915868 q 0.439789,0 0.8293164,-0.16335 0.4020928,-0.163351 0.6534006,-0.46492 0.251308,-0.314135 0.251308,-0.741359 0,-0.527747 -0.4272234,-0.9298394 Q 9.4153544,9.2143068 8.6614304,8.9253026 7.8446794,9.252003 7.3797596,9.7043574 6.9148398,10.144146 6.9148398,10.684459 q 0,0.389527 0.2261772,0.665966 0.2387426,0.276439 0.6031392,0.427223 0.3643966,0.13822 0.7790548,0.13822 z"
       id="text2"
       aria-label="੪" />
  </g>
</svg>
