<?xml version="1.0" encoding="UTF-8" standalone="no"?>
<!-- Created with Inkscape (http://www.inkscape.org/) -->

<svg
   width="64"
   height="64"
   viewBox="0 0 16.933333 16.933333"
   version="1.1"
   id="svg5"
   sodipodi:docname="Gurmukhi ਫ.svg"
   inkscape:version="1.3 (0e150ed6c4, 2023-07-21)"
   xmlns:inkscape="http://www.inkscape.org/namespaces/inkscape"
   xmlns:sodipodi="http://sodipodi.sourceforge.net/DTD/sodipodi-0.dtd"
   xmlns="http://www.w3.org/2000/svg"
   xmlns:svg="http://www.w3.org/2000/svg">
  <sodipodi:namedview
     id="namedview7"
     pagecolor="#505050"
     bordercolor="#eeeeee"
     borderopacity="1"
     inkscape:showpageshadow="0"
     inkscape:pageopacity="0"
     inkscape:pagecheckerboard="0"
     inkscape:deskcolor="#505050"
     inkscape:document-units="mm"
     showgrid="false"
     inkscape:zoom="6.7277217"
     inkscape:cx="39.314944"
     inkscape:cy="42.287718"
     inkscape:window-width="1920"
     inkscape:window-height="991"
     inkscape:window-x="-9"
     inkscape:window-y="-9"
     inkscape:window-maximized="1"
     inkscape:current-layer="layer1" />
  <defs
     id="defs2" />
  <g
     inkscape:label="Layer 1"
     inkscape:groupmode="layer"
     id="layer1">
    <path
       style="font-size:12.5654px;line-height:0.95;font-family:'Noto Serif Gurmukhi';-inkscape-font-specification:'Noto Serif Gurmukhi';stroke-width:0.314136"
       d="m 8.1839451,7.7818512 q -0.6785316,0 -1.1183206,0.2010464 -0.4272236,0.2010464 -0.6408354,0.5528776 -0.2010464,0.3518312 -0.2010464,0.816751 0,0.4272236 0.1507848,0.8167508 0.1507848,0.389528 0.4020928,0.703663 Q 7.3420633,10.169277 8.0582911,9.7420536 8.7870843,9.31483 9.5284429,9.31483 q 0.5905741,0 1.0177971,0.2638734 0.427224,0.251308 0.653401,0.6659666 0.238743,0.402092 0.238743,0.867012 0,0.703663 -0.552878,1.193713 -0.552877,0.490051 -1.5581095,0.490051 -0.8293164,0 -1.5581096,-0.339266 -0.7287932,-0.3267 -1.2942362,-0.879578 -0.565443,-0.552878 -0.8921434,-1.218844 -0.314135,-0.6785314 -0.314135,-1.357063 0,-0.5905738 0.2638734,-1.068059 Q 5.8090845,7.4551508 6.3996583,7.1661466 7.0027975,6.8771424 7.9577679,6.8771424 H 9.8802741 V 5.3944252 H 4.5776752 L 4.3012364,4.665632 4.3640634,4.5525434 h 7.9915946 l 0.276439,0.7162278 -0.05026,0.125654 h -1.72146 V 7.5054124 L 10.634198,7.7818512 Z M 9.7294893,10.10645 q -0.4900506,0 -1.0931898,0.314135 -0.5905738,0.30157 -1.130886,0.942405 0.3392658,0.276439 0.7664894,0.439789 0.4272236,0.16335 0.8544472,0.16335 0.7664894,0 1.1811479,-0.314135 0.414658,-0.3267 0.414658,-0.716227 0,-0.314135 -0.238743,-0.565443 Q 10.244671,10.10645 9.7294893,10.10645 Z"
       id="text2"
       aria-label="ਫ" />
  </g>
</svg>
