<?xml version="1.0" encoding="UTF-8" standalone="no"?>
<!-- Created with Inkscape (http://www.inkscape.org/) -->

<svg
   width="64"
   height="64"
   viewBox="0 0 16.933333 16.933333"
   version="1.1"
   id="svg5"
   sodipodi:docname="Gurmukhi ੮.svg"
   inkscape:version="1.3 (0e150ed6c4, 2023-07-21)"
   xmlns:inkscape="http://www.inkscape.org/namespaces/inkscape"
   xmlns:sodipodi="http://sodipodi.sourceforge.net/DTD/sodipodi-0.dtd"
   xmlns="http://www.w3.org/2000/svg"
   xmlns:svg="http://www.w3.org/2000/svg">
  <sodipodi:namedview
     id="namedview7"
     pagecolor="#505050"
     bordercolor="#eeeeee"
     borderopacity="1"
     inkscape:showpageshadow="0"
     inkscape:pageopacity="0"
     inkscape:pagecheckerboard="0"
     inkscape:deskcolor="#505050"
     inkscape:document-units="mm"
     showgrid="false"
     inkscape:zoom="6.7277217"
     inkscape:cx="37.38264"
     inkscape:cy="40.94997"
     inkscape:window-width="1920"
     inkscape:window-height="991"
     inkscape:window-x="-9"
     inkscape:window-y="-9"
     inkscape:window-maximized="1"
     inkscape:current-layer="layer1" />
  <defs
     id="defs2" />
  <g
     inkscape:label="Layer 1"
     inkscape:groupmode="layer"
     id="layer1">
    <path
       style="font-size:12.5654px;line-height:0.95;font-family:'Noto Serif Gurmukhi';-inkscape-font-specification:'Noto Serif Gurmukhi';stroke-width:0.314136"
       d="m 10.627915,10.181843 1.005232,0.201046 q -0.100523,0.615705 -0.389527,1.118321 -0.276439,0.49005 -0.766489,0.79162 -0.4774855,0.289004 -1.1937133,0.289004 -0.7036624,0 -1.2816709,-0.314135 -0.5780084,-0.3267 -1.0177974,-0.92984 Q 6.5567258,10.759851 6.343114,10.043623 6.1295022,9.31483 6.0666752,8.498079 q -0.050262,-0.816751 0,-1.6460674 H 5.9158904 q -0.314135,0 -0.4649198,-0.1130886 -0.1507848,-0.1130886 -0.1507848,-0.3015696 0,-0.2010464 0.1382194,-0.439789 Q 5.58919,5.7588218 5.8153672,5.54521 6.0415444,5.3190328 6.280287,5.1808134 6.5190296,5.042594 6.720076,5.042594 q 0.2010464,0 0.3015696,0.188481 0.1005232,0.188481 0.087958,0.62827 v 0.1130886 h 3.7821856 l 0.276439,0.7664894 -0.06283,0.1130886 H 7.097038 q -0.037696,0.7162278 -0.012565,1.4701518 0.025131,0.7413586 0.1507848,1.4073248 0.125654,0.6534008 0.3643966,1.1308858 0.2638734,0.502616 0.6408355,0.741359 0.376962,0.238742 0.8544472,0.238742 0.4900506,0 0.7916202,-0.213611 0.3015691,-0.226178 0.4774851,-0.60314 0.175916,-0.376962 0.263873,-0.841881 z"
       id="text2"
       aria-label="੮" />
  </g>
</svg>
