<?xml version="1.0" encoding="UTF-8" standalone="no"?>
<!-- Created with Inkscape (http://www.inkscape.org/) -->

<svg
   width="64"
   height="64"
   viewBox="0 0 16.933333 16.933333"
   version="1.1"
   id="svg5"
   sodipodi:docname="Gurmukhi ੯.svg"
   inkscape:version="1.3 (0e150ed6c4, 2023-07-21)"
   xmlns:inkscape="http://www.inkscape.org/namespaces/inkscape"
   xmlns:sodipodi="http://sodipodi.sourceforge.net/DTD/sodipodi-0.dtd"
   xmlns="http://www.w3.org/2000/svg"
   xmlns:svg="http://www.w3.org/2000/svg">
  <sodipodi:namedview
     id="namedview7"
     pagecolor="#505050"
     bordercolor="#eeeeee"
     borderopacity="1"
     inkscape:showpageshadow="0"
     inkscape:pageopacity="0"
     inkscape:pagecheckerboard="0"
     inkscape:deskcolor="#505050"
     inkscape:document-units="mm"
     showgrid="false"
     inkscape:zoom="6.7277217"
     inkscape:cx="37.38264"
     inkscape:cy="40.94997"
     inkscape:window-width="1920"
     inkscape:window-height="991"
     inkscape:window-x="-9"
     inkscape:window-y="-9"
     inkscape:window-maximized="1"
     inkscape:current-layer="layer1" />
  <defs
     id="defs2" />
  <g
     inkscape:label="Layer 1"
     inkscape:groupmode="layer"
     id="layer1">
    <path
       style="font-size:12.5654px;line-height:0.95;font-family:'Noto Serif Gurmukhi';-inkscape-font-specification:'Noto Serif Gurmukhi';stroke-width:0.314136"
       d="m 10.640481,10.181843 0.992666,0.201046 q -0.100523,0.615705 -0.389527,1.118321 -0.276439,0.49005 -0.753924,0.79162 -0.477485,0.289004 -1.1937129,0.289004 -0.7162278,0 -1.2816709,-0.314135 Q 7.4488692,11.953564 6.9965148,11.337859 6.6195528,10.822678 6.405941,10.206973 6.1923292,9.5787034 6.1169368,8.9001718 6.0415444,8.2090748 6.0541098,7.5054124 h -0.125654 q -0.3267004,0 -0.4774852,-0.1130886 -0.1507848,-0.1130886 -0.1507848,-0.3015696 0,-0.2010464 0.1382194,-0.439789 Q 5.58919,6.4122226 5.8153672,6.1986108 6.0415444,5.9724336 6.280287,5.8342142 6.5190296,5.6959948 6.720076,5.6959948 q 0.2010464,0 0.314135,0.188481 0.1130886,0.188481 0.075392,0.62827 L 7.097038,6.676096 H 9.7985991 Q 9.4090717,6.236307 9.1703291,5.7713872 8.9441519,5.3064674 8.9441519,4.8289822 q 0,-0.816751 0.4774852,-1.2439746 0.4900506,-0.4397891 1.1685819,-0.4397891 0.477485,0 0.753924,0.2764388 0.289004,0.2764389 0.201047,0.7162279 -0.125654,-0.037696 -0.251308,-0.062827 -0.113089,-0.025131 -0.251308,-0.025131 -0.515182,0 -0.867013,0.3392658 -0.3392657,0.3267004 -0.3392657,0.9549704 0,0.502616 0.2513077,0.9926666 0.263874,0.4900506 0.678532,1.0303628 l -0.07539,0.2010464 H 7.097038 q -0.012565,0.5780084 0.025131,1.193713 0.050262,0.6031392 0.1633502,1.1560168 0.125654,0.5403118 0.3267004,0.9424048 0.251308,0.502616 0.6282701,0.741359 0.376962,0.238742 0.8544472,0.238742 0.4900506,0 0.7916202,-0.213611 0.3015691,-0.226178 0.4774851,-0.60314 0.175916,-0.376962 0.276439,-0.841881 z"
       id="text2"
       aria-label="੯" />
  </g>
</svg>
