<?xml version="1.0" encoding="UTF-8" standalone="no"?>
<!-- Created with Inkscape (http://www.inkscape.org/) -->

<svg
   width="64"
   height="64"
   viewBox="0 0 16.933333 16.933333"
   version="1.1"
   id="svg5"
   sodipodi:docname="Gurmukhi ਘ.svg"
   inkscape:version="1.3 (0e150ed6c4, 2023-07-21)"
   xmlns:inkscape="http://www.inkscape.org/namespaces/inkscape"
   xmlns:sodipodi="http://sodipodi.sourceforge.net/DTD/sodipodi-0.dtd"
   xmlns="http://www.w3.org/2000/svg"
   xmlns:svg="http://www.w3.org/2000/svg">
  <sodipodi:namedview
     id="namedview7"
     pagecolor="#505050"
     bordercolor="#eeeeee"
     borderopacity="1"
     inkscape:showpageshadow="0"
     inkscape:pageopacity="0"
     inkscape:pagecheckerboard="0"
     inkscape:deskcolor="#505050"
     inkscape:document-units="mm"
     showgrid="false"
     inkscape:zoom="4.7572177"
     inkscape:cx="51.816002"
     inkscape:cy="27.011587"
     inkscape:window-width="1920"
     inkscape:window-height="991"
     inkscape:window-x="-9"
     inkscape:window-y="-9"
     inkscape:window-maximized="1"
     inkscape:current-layer="layer1" />
  <defs
     id="defs2" />
  <g
     inkscape:label="Layer 1"
     inkscape:groupmode="layer"
     id="layer1">
    <path
       style="font-size:12.5654px;line-height:0.95;font-family:'Noto Serif Gurmukhi';-inkscape-font-specification:'Noto Serif Gurmukhi';stroke-width:0.314136"
       d="m 13.964029,5.2687712 -0.05026,0.125654 h -1.495283 v 7.2753668 l -0.113089,0.06283 -0.917274,-0.46492 v -1.734025 q -0.226177,0.238742 -0.502616,0.351831 -0.276439,0.113089 -0.527747,0.113089 -0.578008,0 -1.0052316,-0.326701 -0.4146582,-0.3267 -0.6659662,-0.8670124 -0.2638734,0.7036624 -0.7664894,1.0303624 -0.502616,0.326701 -1.0554936,0.326701 -0.4523544,0 -0.8544472,-0.188481 Q 5.6080382,10.772416 5.256207,10.433151 4.9169412,10.093885 4.627937,9.6540958 4.3514982,9.2143068 4.1504517,8.7242562 4.56511,8.2342056 4.8666796,7.7190242 q 0.314135,-0.5277468 0.314135,-1.1434514 0,-0.2638734 -0.075392,-0.565443 Q 5.0300298,5.7085602 4.8541142,5.3944252 H 3.2457429 L 2.9693041,4.665632 3.0321311,4.5525434 h 2.1235527 q 0.314135,0.4272236 0.5277468,0.879578 0.2261772,0.439789 0.3392658,0.879578 0.125654,0.4272236 0.125654,0.8041856 0,0.5403122 -0.2387426,1.0429282 -0.2387426,0.502616 -0.691097,1.0177974 0.1507848,0.2764388 0.3518312,0.5277468 0.2010464,0.251308 0.4649198,0.4146586 0.2638734,0.150784 0.5780084,0.150784 0.5528776,0 0.9549704,-0.389527 Q 7.9703334,9.4781802 8.1211182,8.7619524 8.0582912,8.5483406 8.0080296,8.2593364 7.957768,7.9577668 7.9075064,7.6436318 7.8698102,7.3169314 7.8446794,7.0279272 7.832114,6.738923 7.832114,6.5630074 q 0,-0.4774852 0.062827,-0.8544472 0.075392,-0.376962 0.2261772,-0.5905738 0.1633502,-0.2136118 0.4146582,-0.2136118 0.3895274,0 0.5403122,0.4272236 0.1633502,0.4272236 0.1633502,1.2062784 0,0.3392658 -0.037696,0.7790548 -0.037696,0.439789 -0.1130886,0.8921434 -0.075392,0.439789 -0.1759156,0.8293164 0.188481,0.439789 0.4900506,0.7413586 0.3015696,0.3015692 0.816751,0.3015692 0.314135,0 0.615705,-0.1633498 0.314135,-0.1759156 0.552877,-0.5277468 v -4.837679 h 2.299468 z"
       id="text2"
       aria-label="ਘ" />
  </g>
</svg>
