<?xml version="1.0" encoding="UTF-8" standalone="no"?>
<!-- Created with Inkscape (http://www.inkscape.org/) -->

<svg
   width="64"
   height="64"
   viewBox="0 0 16.933333 16.933333"
   version="1.1"
   id="svg5"
   sodipodi:docname="Gurmukhi ੬.svg"
   inkscape:version="1.3 (0e150ed6c4, 2023-07-21)"
   xmlns:inkscape="http://www.inkscape.org/namespaces/inkscape"
   xmlns:sodipodi="http://sodipodi.sourceforge.net/DTD/sodipodi-0.dtd"
   xmlns="http://www.w3.org/2000/svg"
   xmlns:svg="http://www.w3.org/2000/svg">
  <sodipodi:namedview
     id="namedview7"
     pagecolor="#505050"
     bordercolor="#eeeeee"
     borderopacity="1"
     inkscape:showpageshadow="0"
     inkscape:pageopacity="0"
     inkscape:pagecheckerboard="0"
     inkscape:deskcolor="#505050"
     inkscape:document-units="mm"
     showgrid="false"
     inkscape:zoom="6.7277217"
     inkscape:cx="37.38264"
     inkscape:cy="40.94997"
     inkscape:window-width="1920"
     inkscape:window-height="991"
     inkscape:window-x="-9"
     inkscape:window-y="-9"
     inkscape:window-maximized="1"
     inkscape:current-layer="layer1" />
  <defs
     id="defs2" />
  <g
     inkscape:label="Layer 1"
     inkscape:groupmode="layer"
     id="layer1">
    <path
       style="font-size:12.5654px;line-height:0.95;font-family:'Noto Serif Gurmukhi';-inkscape-font-specification:'Noto Serif Gurmukhi';stroke-width:0.314136"
       d="m 10.854092,11.262467 0.289005,0.95497 q -0.427224,0.201047 -0.967536,0.326701 -0.5277469,0.125654 -1.1183207,0.125654 -0.7539241,0 -1.3444979,-0.213612 Q 7.134734,12.242568 6.7200758,11.878172 6.317983,11.513775 6.1043712,11.061421 5.9033248,10.609066 5.9033248,10.144146 q 0,-0.515181 0.2638734,-0.9926662 Q 6.4310716,8.6739946 6.9965146,8.3975558 6.4562024,8.1462478 6.1169366,7.6938934 5.7902362,7.241539 5.7902362,6.6886614 q 0,-0.7287932 0.5780084,-1.25654 Q 6.946253,4.8918092 8.0394428,4.7661552 7.9891812,4.665632 7.951485,4.539978 7.9263542,4.4017586 7.9263542,4.2635392 q 0,-0.4146582 0.2010464,-0.7287933 0.2010464,-0.314135 0.565443,-0.4900506 0.3643967,-0.188481 0.8418819,-0.188481 0.376962,0 0.6157045,0.1382194 0.251308,0.125654 0.339266,0.3392658 0.100523,0.2010464 0.01257,0.4272237 -0.188481,-0.075392 -0.402093,-0.1130886 -0.2136113,-0.037696 -0.4397885,-0.037696 -0.4272236,0 -0.753924,0.2010464 -0.3141351,0.188481 -0.3141351,0.565443 0,0.1130886 0.025131,0.2136118 0.025131,0.087958 0.075392,0.1507848 0.4020929,0 0.7790549,0.062827 0.376962,0.062827 0.6910965,0.188481 0.314135,0.1130886 0.490051,0.2890042 0.188481,0.1633502 0.188481,0.376962 0,0.2136118 -0.201046,0.3643966 -0.201047,0.1382194 -0.578009,0.1382194 -0.3643963,0 -0.8293161,-0.125654 Q 8.7808014,5.8970412 8.454101,5.6457332 7.888658,5.670864 7.511696,5.859345 7.134734,6.0352606 6.946253,6.3242648 6.757772,6.6007036 6.757772,6.9399694 q 0,0.4146582 0.251308,0.7287932 0.2638734,0.3015696 0.6534008,0.4774852 0.3015696,-0.1005232 0.7162278,-0.1633502 0.4146582,-0.075392 0.8041857,-0.075392 0.4146582,0 0.7413586,0.087958 0.3392661,0.075392 0.5277471,0.2387426 0.201046,0.1507848 0.201046,0.3895274 0,0.2890042 -0.339266,0.4649198 -0.3392655,0.1759156 -0.9172739,0.1759156 -0.314135,0 -0.6910971,-0.050262 Q 8.3410124,9.1514798 7.9891812,9.0258258 7.448869,9.1514798 7.1221686,9.503311 6.7954682,9.8425768 6.7954682,10.332627 q 0,0.60314 0.502616,0.992667 0.5151814,0.376962 1.5078481,0.376962 0.4774852,0 1.0177974,-0.113089 0.5403123,-0.125654 1.0303623,-0.3267 z"
       id="text2"
       aria-label="੬" />
  </g>
</svg>
