<?xml version="1.0" encoding="UTF-8" standalone="no"?>
<!-- Created with Inkscape (http://www.inkscape.org/) -->

<svg
   width="64"
   height="64"
   viewBox="0 0 16.933333 16.933333"
   version="1.1"
   id="svg5"
   sodipodi:docname="Gurmukhi ਦ.svg"
   inkscape:version="1.3 (0e150ed6c4, 2023-07-21)"
   xmlns:inkscape="http://www.inkscape.org/namespaces/inkscape"
   xmlns:sodipodi="http://sodipodi.sourceforge.net/DTD/sodipodi-0.dtd"
   xmlns="http://www.w3.org/2000/svg"
   xmlns:svg="http://www.w3.org/2000/svg">
  <sodipodi:namedview
     id="namedview7"
     pagecolor="#505050"
     bordercolor="#eeeeee"
     borderopacity="1"
     inkscape:showpageshadow="0"
     inkscape:pageopacity="0"
     inkscape:pagecheckerboard="0"
     inkscape:deskcolor="#505050"
     inkscape:document-units="mm"
     showgrid="false"
     inkscape:zoom="6.7277217"
     inkscape:cx="39.314944"
     inkscape:cy="42.287718"
     inkscape:window-width="1920"
     inkscape:window-height="991"
     inkscape:window-x="-9"
     inkscape:window-y="-9"
     inkscape:window-maximized="1"
     inkscape:current-layer="layer1" />
  <defs
     id="defs2" />
  <g
     inkscape:label="Layer 1"
     inkscape:groupmode="layer"
     id="layer1">
    <path
       style="font-size:12.5654px;line-height:0.95;font-family:'Noto Serif Gurmukhi';-inkscape-font-specification:'Noto Serif Gurmukhi';stroke-width:0.314136"
       d="m 6.990232,8.4855136 q 0.087958,1.0177974 0.376962,1.7842864 0.2890042,0.753924 0.753924,1.181148 0.4649198,0.414658 1.0554936,0.414658 0.6785316,0 1.0931894,-0.49005 0.414659,-0.490051 0.540313,-1.156017 l 0.138219,-0.08796 0.854447,0.289004 q -0.100523,0.603139 -0.402093,1.105755 -0.289004,0.490051 -0.79162,0.779055 -0.502616,0.289004 -1.231409,0.289004 -0.5905738,0 -1.0931898,-0.226177 Q 7.7944176,12.142045 7.3923248,11.752518 7.0027974,11.350425 6.7012278,10.847809 6.4122236,10.332627 6.2237426,9.754619 6.0352616,9.1766106 5.9473038,8.5986022 H 5.7965189 q -0.2890042,0 -0.4523544,-0.1130886 -0.1633502,-0.125654 -0.1633502,-0.3392658 0,-0.2010464 0.125654,-0.4146582 Q 5.4321223,7.5054124 5.6331687,7.304366 5.8342151,7.1033196 6.0603924,6.9776656 6.2865696,6.8520116 6.487616,6.8520116 q 0.2136118,0 0.314135,0.1633502 0.1130886,0.1633502 0.1130886,0.4523544 V 7.744155 H 9.7797508 V 5.3944252 H 4.5148481 L 4.2384093,4.665632 4.3012363,4.5525434 h 8.1172487 l 0.276439,0.7162278 -0.05026,0.125654 h -1.834548 v 2.8146496 l -0.226178,0.2764388 z"
       id="text2"
       aria-label="ਦ" />
  </g>
</svg>
