<?xml version="1.0" encoding="UTF-8" standalone="no"?>
<!-- Created with Inkscape (http://www.inkscape.org/) -->

<svg
   width="64"
   height="64"
   viewBox="0 0 16.933333 16.933333"
   version="1.1"
   id="svg5"
   sodipodi:docname="Gurmukhi ਐ.svg"
   inkscape:version="1.3 (0e150ed6c4, 2023-07-21)"
   xmlns:inkscape="http://www.inkscape.org/namespaces/inkscape"
   xmlns:sodipodi="http://sodipodi.sourceforge.net/DTD/sodipodi-0.dtd"
   xmlns="http://www.w3.org/2000/svg"
   xmlns:svg="http://www.w3.org/2000/svg">
  <sodipodi:namedview
     id="namedview7"
     pagecolor="#505050"
     bordercolor="#eeeeee"
     borderopacity="1"
     inkscape:showpageshadow="0"
     inkscape:pageopacity="0"
     inkscape:pagecheckerboard="0"
     inkscape:deskcolor="#505050"
     inkscape:document-units="mm"
     showgrid="false"
     inkscape:zoom="4.7572177"
     inkscape:cx="51.816002"
     inkscape:cy="27.011587"
     inkscape:window-width="1920"
     inkscape:window-height="991"
     inkscape:window-x="-9"
     inkscape:window-y="-9"
     inkscape:window-maximized="1"
     inkscape:current-layer="layer1" />
  <defs
     id="defs2" />
  <g
     inkscape:label="Layer 1"
     inkscape:groupmode="layer"
     id="layer1">
    <path
       style="font-size:12.5654px;line-height:0.95;font-family:'Noto Serif Gurmukhi';-inkscape-font-specification:'Noto Serif Gurmukhi';stroke-width:0.314136"
       d="m 13.731569,5.2687712 -0.05026,0.125654 h -1.495283 v 7.2753668 l -0.113088,0.06283 -0.917275,-0.46492 V 7.7818512 Q 10.816397,7.995463 10.439435,8.2719018 10.062473,8.5483406 9.7106413,8.8499102 9.3713755,9.1389144 9.0949367,9.4153532 9.0195443,9.8048806 8.8561941,10.206973 q -0.1507848,0.402093 -0.3643966,0.728794 -0.2010464,0.3267 -0.4523544,0.527746 -0.2387426,0.201047 -0.4774852,0.201047 -0.2638734,0 -0.4272236,-0.175916 -0.1507848,-0.188481 -0.1507848,-0.46492 0,-0.289004 0.1633502,-0.6534 Q 7.3232153,9.9933616 7.5870887,9.6163996 7.8635275,9.2394376 8.1650971,8.937868 8.2656203,8.3347288 8.2153587,7.618501 8.1776625,6.8897078 8.0017469,6.236307 7.4865655,6.613269 6.9839495,7.0656234 6.4938989,7.5179778 6.1043715,7.9703322 6.0541099,8.372425 5.9033251,8.7619524 5.7651057,9.1389144 5.5514939,9.4530494 5.3504475,9.7671844 5.1242703,9.9556654 4.8980931,10.144146 4.6844813,10.144146 q -0.2387426,0 -0.4272236,-0.1633498 Q 4.0813421,9.817446 4.0813421,9.503311 q 0,-0.2638734 0.1507848,-0.6031392 Q 4.3829117,8.560906 4.6467851,8.183944 4.9232239,7.806982 5.2750551,7.4425854 5.2876205,6.9776656 5.1619665,6.424788 5.0488779,5.859345 4.8729623,5.3944252 H 3.4782029 L 3.2017641,4.665632 3.2645911,4.5525434 h 1.9602024 q 0.1633502,0.314135 0.3015696,0.7162278 0.1507848,0.4020928 0.2764388,0.816751 0.125654,0.4146582 0.188481,0.7664894 Q 6.3179833,6.550442 6.6949453,6.2237416 7.0719073,5.8970412 7.4488693,5.608037 7.8383967,5.3064674 8.1650971,5.0928556 h 0.075392 Q 8.4541013,5.54521 8.6174515,6.110653 8.7933671,6.676096 8.8938903,7.2541044 9.0069789,7.8321128 9.0446751,8.3347288 9.3336793,8.0708554 9.6855105,7.7944166 10.037342,7.5054124 10.414304,7.241539 10.803831,6.9651002 11.155662,6.7514884 v -2.198945 h 2.299469 z M 10.61535,1.0593621 q 0.515182,0.4649198 0.904709,1.4324556 0.402093,0.9675358 0.816751,2.5005147 H 11.645713 Q 11.344143,4.4394548 11.055139,4.0876236 10.7787,3.7357924 10.439435,3.5347459 10.162996,3.3713957 9.8362953,3.3211341 9.5095949,3.2583071 9.0949367,3.2583071 H 7.9137891 L 7.7881351,3.1326531 V 2.3912945 h 1.193713 q 0.4649198,0 0.8293164,0.1130886 0.3769625,0.1005232 0.7036625,0.3392658 0.339266,0.2387426 0.62827,0.6157046 0.289004,0.3769621 0.603139,0.9424051 Q 11.40697,3.3211341 11.117966,2.7179949 10.828962,2.1148557 10.376608,1.8007207 10.100169,1.5996743 9.7483375,1.4991511 9.3965063,1.3986279 8.9190211,1.3986279 H 7.9012237 L 7.7755697,1.2729739 V 0.46878832 h 1.0303628 q 0.5780084,0 1.005232,0.125654 0.4272235,0.1130886 0.8041855,0.46491978 z"
       id="text2"
       aria-label="ਐ" />
  </g>
</svg>
