<?xml version="1.0" encoding="UTF-8" standalone="no"?>
<!-- Created with Inkscape (http://www.inkscape.org/) -->

<svg
   width="64"
   height="64"
   viewBox="0 0 16.933333 16.933333"
   version="1.1"
   id="svg5"
   sodipodi:docname="Gurmukhi ਟ.svg"
   inkscape:version="1.3 (0e150ed6c4, 2023-07-21)"
   xmlns:inkscape="http://www.inkscape.org/namespaces/inkscape"
   xmlns:sodipodi="http://sodipodi.sourceforge.net/DTD/sodipodi-0.dtd"
   xmlns="http://www.w3.org/2000/svg"
   xmlns:svg="http://www.w3.org/2000/svg">
  <sodipodi:namedview
     id="namedview7"
     pagecolor="#505050"
     bordercolor="#eeeeee"
     borderopacity="1"
     inkscape:showpageshadow="0"
     inkscape:pageopacity="0"
     inkscape:pagecheckerboard="0"
     inkscape:deskcolor="#505050"
     inkscape:document-units="mm"
     showgrid="false"
     inkscape:zoom="6.7277217"
     inkscape:cx="39.314944"
     inkscape:cy="42.287718"
     inkscape:window-width="1920"
     inkscape:window-height="991"
     inkscape:window-x="-9"
     inkscape:window-y="-9"
     inkscape:window-maximized="1"
     inkscape:current-layer="layer1" />
  <defs
     id="defs2" />
  <g
     inkscape:label="Layer 1"
     inkscape:groupmode="layer"
     id="layer1">
    <path
       style="font-size:12.5654px;line-height:0.95;font-family:'Noto Serif Gurmukhi';-inkscape-font-specification:'Noto Serif Gurmukhi';stroke-width:0.314136"
       d="M 10.282367,8.2216402 Q 9.402789,8.2593364 8.6614304,8.4226866 7.9200718,8.5860368 7.3169325,8.9253026 6.7137933,9.2645684 6.2363081,9.8425768 q 0.2764388,0.5528772 0.6659662,0.9801012 0.4020928,0.414658 0.8670126,0.640835 0.4774853,0.226178 1.0052321,0.226178 0.6031392,0 1.130886,-0.263874 0.540312,-0.263873 0.92984,-0.691097 h 0.150784 l 0.540313,0.779055 q -0.439789,0.540312 -1.055494,0.854447 -0.6157046,0.30157 -1.3570632,0.30157 -0.8418818,0 -1.6083713,-0.439789 Q 6.7389241,11.777648 6.1609157,11.03629 5.5829073,10.294931 5.2813377,9.4153532 6.0478271,8.372425 7.1158861,7.8949398 8.1839452,7.4048892 9.4781814,7.3169314 V 5.3944252 H 4.8918103 L 4.6153715,4.665632 4.6781985,4.5525434 h 7.3633245 l 0.276439,0.7162278 -0.05026,0.125654 h -1.759156 v 2.5884724 z"
       id="text2"
       aria-label="ਟ" />
  </g>
</svg>
