<?xml version="1.0" encoding="UTF-8" standalone="no"?>
<!-- Created with Inkscape (http://www.inkscape.org/) -->

<svg
   width="64"
   height="64"
   viewBox="0 0 16.933333 16.933333"
   version="1.1"
   id="svg5"
   sodipodi:docname="Gurmukhi_ੳ.svg"
   inkscape:version="1.3 (0e150ed6c4, 2023-07-21)"
   xmlns:inkscape="http://www.inkscape.org/namespaces/inkscape"
   xmlns:sodipodi="http://sodipodi.sourceforge.net/DTD/sodipodi-0.dtd"
   xmlns="http://www.w3.org/2000/svg"
   xmlns:svg="http://www.w3.org/2000/svg">
  <sodipodi:namedview
     id="namedview7"
     pagecolor="#505050"
     bordercolor="#eeeeee"
     borderopacity="1"
     inkscape:showpageshadow="0"
     inkscape:pageopacity="0"
     inkscape:pagecheckerboard="0"
     inkscape:deskcolor="#505050"
     inkscape:document-units="mm"
     showgrid="false"
     inkscape:zoom="4.7572176"
     inkscape:cx="28.062622"
     inkscape:cy="41.515864"
     inkscape:window-width="1920"
     inkscape:window-height="991"
     inkscape:window-x="-9"
     inkscape:window-y="-9"
     inkscape:window-maximized="1"
     inkscape:current-layer="layer1"
     showguides="true" />
  <defs
     id="defs2" />
  <g
     inkscape:label="Layer 1"
     inkscape:groupmode="layer"
     id="layer1">
    <path
       style="font-size:12.3511px;line-height:0.95;font-family:'Noto Serif Gurmukhi';-inkscape-font-specification:'Noto Serif Gurmukhi';text-align:center;text-anchor:middle;stroke-width:0.308778"
       d="m 14.883066,1.1234426 q 0.642257,0 1.086897,0.2840753 0.456991,0.2717242 0.704013,0.7781193 0.247022,0.494044 0.259373,1.1610034 H 16.809838 Q 16.50106,2.6426279 16.093474,2.3091482 15.685888,1.9756685 15.04363,1.9756685 q -0.864577,0 -1.766207,0.5434484 Q 12.388144,3.0502142 11.535918,3.8530357 11.3383,3.5072049 11.041874,3.1613741 10.745448,2.8155433 10.32551,2.5932235 9.917924,2.3585526 9.3497734,2.3585526 q -0.9386836,0 -1.5685897,0.6546083 -0.617555,0.6546083 -0.9016303,1.6797496 h 6.0026346 l 0.271724,0.7040127 -0.0494,0.123511 h -1.049844 q -0.01235,1.0374924 -0.419937,1.8032606 -0.395235,0.7534171 -1.198057,1.0745457 0.419938,0.1852665 0.765768,0.494044 0.345831,0.3087775 0.543449,0.7287149 0.209968,0.4199376 0.209968,0.9757366 0,0.642257 -0.296426,1.136301 -0.296426,0.494044 -0.839875,0.765769 -0.531097,0.284075 -1.2474608,0.284075 -0.8151726,0 -1.4574298,-0.358182 Q 7.4847573,12.078868 7.0154155,11.473664 6.5584248,10.86846 6.2496473,10.090341 5.9532209,9.3122219 5.8050077,8.4352938 5.6567945,7.5583657 5.6567945,6.6937887 q 0,-0.2840753 0.024702,-0.6052039 0.024702,-0.3334797 0.049404,-0.5681506 H 4.7922175 L 4.5204933,4.8040704 4.5822488,4.6929105 H 5.8667632 Q 6.089083,3.7789291 6.459616,3.1613741 6.830149,2.531468 7.2871397,2.160935 7.7564815,1.790402 8.2505255,1.6298377 8.7569206,1.4569223 9.2262624,1.4569223 q 0.5557995,0 0.9757366,0.1976176 0.432289,0.1852665 0.741066,0.5063951 0.321129,0.3087775 0.5558,0.6669594 0.432288,-0.4075863 0.975737,-0.8028215 0.555799,-0.3952352 1.173354,-0.6422572 0.617555,-0.2593731 1.23511,-0.2593731 z M 9.1151025,7.8177388 q 0.6793105,0 1.1733545,-0.3211286 0.506395,-0.3334797 0.79047,-0.8522259 0.284076,-0.5187462 0.296427,-1.1239501 H 6.706638 q -0.086458,0.5310973 -0.098809,1.1363012 0,0.6052039 0.049404,1.1610034 z m 0.2964264,4.0635122 q 0.7287151,0 1.1980571,-0.407587 0.469341,-0.419937 0.469341,-1.086896 0,-0.44464 -0.222319,-0.815173 Q 10.634288,9.201062 10.189648,8.9787422 9.7450086,8.7564224 9.0780492,8.7564224 H 6.7683935 q 0.049404,0.4322885 0.1852665,0.8769281 0.1482132,0.4322885 0.370533,0.8398745 0.2223198,0.407587 0.5310973,0.728715 0.3087775,0.308778 0.6916616,0.494044 0.3952352,0.185267 0.864577,0.185267 z M 2.1737843,4.6929105 q 0.6916616,0 1.1363012,0.3211286 0.4569907,0.3087775 0.7163638,0.8151726 0.2593731,0.5063951 0.370533,1.111599 0.1111599,0.5928528 0.1111599,1.1733545 V 12.671721 L 4.3846312,12.733477 3.495352,12.276486 V 9.2257642 q -0.2346709,0.1111599 -0.494044,0.1605643 -0.247022,0.049404 -0.494044,0.049404 -0.4816929,0 -0.9386836,-0.1852665 Q 1.1239408,9.0528488 0.76575892,8.7193691 0.41992813,8.3735383 0.20995943,7.9288987 -9.2732216e-6,7.471908 -9.2732216e-6,6.9408107 q 0,-0.5928528 0.2717242032216,-1.0992479 Q 0.54343913,5.3228166 1.025132,5.0140391 1.519176,4.6929105 2.1737843,4.6929105 Z m 0.037053,3.8411921 q 0.3334797,0 0.6793105,-0.074107 0.3581819,-0.086458 0.6669594,-0.2223198 0.024702,-0.5681506 0,-1.0374924 Q 3.5324053,6.7184909 3.4088943,6.360309 3.2853833,6.0021271 3.0260102,5.8045095 2.7789882,5.6068919 2.3466997,5.6068919 q -0.3458308,0 -0.6916616,0.2346709 -0.3458308,0.2346709 -0.5681506,0.6052039 -0.22231978,0.370533 -0.22231978,0.8028215 0,0.6422572 0.38288408,0.9633858 0.3952352,0.3211286 0.9633858,0.3211286 z"
       id="text1"
       aria-label="ੴ" />
  </g>
</svg>
