<?xml version="1.0" encoding="UTF-8" standalone="no"?>
<!-- Created with Inkscape (http://www.inkscape.org/) -->

<svg
   width="64"
   height="64"
   viewBox="0 0 16.933333 16.933333"
   version="1.1"
   id="svg5"
   sodipodi:docname="Gurmukhi ਠ.svg"
   inkscape:version="1.3 (0e150ed6c4, 2023-07-21)"
   xmlns:inkscape="http://www.inkscape.org/namespaces/inkscape"
   xmlns:sodipodi="http://sodipodi.sourceforge.net/DTD/sodipodi-0.dtd"
   xmlns="http://www.w3.org/2000/svg"
   xmlns:svg="http://www.w3.org/2000/svg">
  <sodipodi:namedview
     id="namedview7"
     pagecolor="#505050"
     bordercolor="#eeeeee"
     borderopacity="1"
     inkscape:showpageshadow="0"
     inkscape:pageopacity="0"
     inkscape:pagecheckerboard="0"
     inkscape:deskcolor="#505050"
     inkscape:document-units="mm"
     showgrid="false"
     inkscape:zoom="6.7277217"
     inkscape:cx="39.314944"
     inkscape:cy="42.287718"
     inkscape:window-width="1920"
     inkscape:window-height="991"
     inkscape:window-x="-9"
     inkscape:window-y="-9"
     inkscape:window-maximized="1"
     inkscape:current-layer="layer1" />
  <defs
     id="defs2" />
  <g
     inkscape:label="Layer 1"
     inkscape:groupmode="layer"
     id="layer1">
    <path
       style="font-size:12.5654px;line-height:0.95;font-family:'Noto Serif Gurmukhi';-inkscape-font-specification:'Noto Serif Gurmukhi';stroke-width:0.314136"
       d="M 12.506443,5.3944252 H 9.1640461 v 2.0607256 q 0.7036624,0.2638734 1.2691059,0.7036624 0.565443,0.439789 0.904708,1.005232 0.339266,0.565443 0.339266,1.2188438 0,0.753924 -0.402093,1.294236 -0.389527,0.527747 -1.080624,0.816751 -0.6785317,0.289004 -1.5455443,0.289004 -0.7036624,0 -1.3319324,-0.201046 Q 6.7012277,12.380788 6.2363079,12.016391 5.7713881,11.651994 5.5075147,11.149378 5.2436413,10.646762 5.2436413,10.043623 q 0,-0.728793 0.376962,-1.2691052 Q 5.9975653,8.2216402 6.6509661,7.8446782 7.3043669,7.4677162 8.1336833,7.2666698 V 5.3944252 H 4.6530675 L 4.3766287,4.665632 4.4394557,4.5525434 h 7.8408093 l 0.276439,0.7162278 z m -1.696329,4.7497208 q 0,-0.4774848 -0.263874,-0.8795776 Q 10.294932,8.8499102 9.8677085,8.5357752 9.4530503,8.2216402 8.9378689,8.05829 8.1965103,8.1588132 7.5431095,8.4603828 6.9022741,8.7619524 6.5001813,9.2143068 6.1106539,9.6540958 6.1106539,10.219539 q 0,0.46492 0.2638734,0.841882 0.2764388,0.364396 0.7664894,0.578008 0.502616,0.201046 1.1811476,0.201046 0.6408354,0 1.2062784,-0.201046 0.5780083,-0.201046 0.9298393,-0.578008 0.351832,-0.389528 0.351832,-0.917275 z"
       id="text2"
       aria-label="ਠ" />
  </g>
</svg>
