<?xml version="1.0" encoding="UTF-8" standalone="no"?>
<!-- Created with Inkscape (http://www.inkscape.org/) -->

<svg
   width="64"
   height="64"
   viewBox="0 0 16.933333 16.933333"
   version="1.1"
   id="svg5"
   sodipodi:docname="Gurmukhi ੵ.svg"
   inkscape:version="1.3 (0e150ed6c4, 2023-07-21)"
   xmlns:inkscape="http://www.inkscape.org/namespaces/inkscape"
   xmlns:sodipodi="http://sodipodi.sourceforge.net/DTD/sodipodi-0.dtd"
   xmlns="http://www.w3.org/2000/svg"
   xmlns:svg="http://www.w3.org/2000/svg">
  <sodipodi:namedview
     id="namedview7"
     pagecolor="#505050"
     bordercolor="#eeeeee"
     borderopacity="1"
     inkscape:showpageshadow="0"
     inkscape:pageopacity="0"
     inkscape:pagecheckerboard="0"
     inkscape:deskcolor="#505050"
     inkscape:document-units="mm"
     showgrid="false"
     inkscape:zoom="4.7572177"
     inkscape:cx="35.840277"
     inkscape:cy="24.489104"
     inkscape:window-width="1920"
     inkscape:window-height="991"
     inkscape:window-x="-9"
     inkscape:window-y="-9"
     inkscape:window-maximized="1"
     inkscape:current-layer="layer1" />
  <defs
     id="defs2" />
  <g
     inkscape:label="Layer 1"
     inkscape:groupmode="layer"
     id="layer1">
    <path
       style="font-size:12.5654px;line-height:0.95;font-family:'Noto Serif Gurmukhi';-inkscape-font-specification:'Noto Serif Gurmukhi';stroke-width:0.314136"
       d="m 7.2666736,5.8090834 q 0.1382194,0 0.2261772,0.1005232 0.1005232,0.087958 0.1005232,0.2261772 0,0.125654 -0.1005232,0.2261772 -0.087958,0.1005232 -0.2261772,0.1005232 -0.125654,0 -0.2261772,-0.1005232 -0.1005232,-0.1005232 -0.1005232,-0.2261772 0,-0.1382194 0.1005232,-0.2261772 0.1005232,-0.1005232 0.2261772,-0.1005232 z m 2.1109872,0 q 0.1382194,0 0.2261772,0.1005232 0.1005232,0.087958 0.1005232,0.2261772 0,0.125654 -0.1005232,0.2261772 -0.087958,0.1005232 -0.2261772,0.1005232 -0.125654,0 -0.2261772,-0.1005232 -0.1005232,-0.1005232 -0.1005232,-0.2261772 0,-0.1382194 0.1005232,-0.2261772 Q 9.2520068,5.8090834 9.3776608,5.8090834 Z M 7.2666736,10.960897 q 0.1382194,0 0.2261772,0.100524 0.1005232,0.08796 0.1005232,0.226177 0,0.125654 -0.1005232,0.226177 -0.087958,0.100523 -0.2261772,0.100523 -0.125654,0 -0.2261772,-0.100523 -0.1005232,-0.100523 -0.1005232,-0.226177 0,-0.13822 0.1005232,-0.226177 0.1005232,-0.100524 0.2261772,-0.100524 z m 2.1109872,0 q 0.1382194,0 0.2261772,0.100524 0.1005232,0.08796 0.1005232,0.226177 0,0.125654 -0.1005232,0.226177 -0.087958,0.100523 -0.2261772,0.100523 -0.125654,0 -0.2261772,-0.100523 -0.1005232,-0.100523 -0.1005232,-0.226177 0,-0.13822 0.1005232,-0.226177 0.1005232,-0.100524 0.2261772,-0.100524 z M 8.3221672,5.5829062 q 0.1382194,0 0.2261772,0.1005232 0.1005232,0.087958 0.1005232,0.2261772 0,0.125654 -0.1005232,0.2261772 -0.087958,0.1005232 -0.2261772,0.1005232 -0.125654,0 -0.2261772,-0.1005232 -0.1005232,-0.1005232 -0.1005232,-0.2261772 0,-0.1382194 0.1005232,-0.2261772 0.1005232,-0.1005232 0.2261772,-0.1005232 z m 0,5.6041688 q 0.1382194,0 0.2261772,0.100523 0.1005232,0.08796 0.1005232,0.226177 0,0.125654 -0.1005232,0.226177 -0.087958,0.100523 -0.2261772,0.100523 -0.125654,0 -0.2261772,-0.100523 -0.1005232,-0.100523 -0.1005232,-0.226177 0,-0.138219 0.1005232,-0.226177 0.1005232,-0.100523 0.2261772,-0.100523 z M 5.1933825,8.7116908 q 0,-0.1382194 0.1005232,-0.2261772 0.1005232,-0.1005232 0.2261772,-0.1005232 0.1382195,0 0.2261773,0.1005232 0.1005232,0.087958 0.1005232,0.2261772 0,0.125654 -0.1005232,0.2261772 -0.087958,0.1005232 -0.2261773,0.1005232 -0.125654,0 -0.2261772,-0.1005232 Q 5.1933825,8.8373448 5.1933825,8.7116908 Z m 5.6041685,0 q 0,-0.1382194 0.100523,-0.2261772 0.100523,-0.1005232 0.226177,-0.1005232 0.13822,0 0.226178,0.1005232 0.100523,0.087958 0.100523,0.2261772 0,0.125654 -0.100523,0.2261772 -0.08796,0.1005232 -0.226178,0.1005232 -0.125654,0 -0.226177,-0.1005232 Q 10.797551,8.8373448 10.797551,8.7116908 Z M 6.0101336,10.697024 q 0,-0.138219 0.1005232,-0.226177 0.1005232,-0.100523 0.2261772,-0.100523 0.1382194,0 0.2261772,0.100523 0.1005232,0.08796 0.1005232,0.226177 0,0.125654 -0.1005232,0.226177 -0.087958,0.100523 -0.2261772,0.100523 -0.125654,0 -0.2261772,-0.100523 -0.1005232,-0.100523 -0.1005232,-0.226177 z m 0,-3.9706664 q 0,-0.1382194 0.1005232,-0.2261772 Q 6.21118,6.3996572 6.336834,6.3996572 q 0.1382194,0 0.2261772,0.1005232 0.1005232,0.087958 0.1005232,0.2261772 0,0.125654 -0.1005232,0.2261772 Q 6.4750534,7.053058 6.336834,7.053058 6.21118,7.053058 6.1106568,6.9525348 6.0101336,6.8520116 6.0101336,6.7263576 Z M 9.9808,10.697024 q 0,-0.138219 0.100523,-0.226177 0.100523,-0.100523 0.226177,-0.100523 0.13822,0 0.226178,0.100523 0.100523,0.08796 0.100523,0.226177 0,0.125654 -0.100523,0.226177 -0.08796,0.100523 -0.226178,0.100523 -0.125654,0 -0.226177,-0.100523 Q 9.9808,10.822678 9.9808,10.697024 Z m 0,-3.9706664 q 0,-0.1382194 0.100523,-0.2261772 0.100523,-0.1005232 0.226177,-0.1005232 0.13822,0 0.226178,0.1005232 0.100523,0.087958 0.100523,0.2261772 0,0.125654 -0.100523,0.2261772 -0.08796,0.1005232 -0.226178,0.1005232 -0.125654,0 -0.226177,-0.1005232 Q 9.9808,6.8520116 9.9808,6.7263576 Z M 5.4195597,9.7671844 q 0,-0.1382194 0.1005232,-0.2261772 0.1005232,-0.1005232 0.2261773,-0.1005232 0.1382194,0 0.2261772,0.1005232 0.1005232,0.087958 0.1005232,0.2261772 0,0.125654 -0.1005232,0.2261772 -0.087958,0.1005234 -0.2261772,0.1005234 -0.1256541,0 -0.2261773,-0.1005234 Q 5.4195597,9.8928384 5.4195597,9.7671844 Z m 0,-2.1109872 q 0,-0.1382194 0.1005232,-0.2261772 0.1005232,-0.1005232 0.2261773,-0.1005232 0.1382194,0 0.2261772,0.1005232 0.1005232,0.087958 0.1005232,0.2261772 0,0.125654 -0.1005232,0.2261772 -0.087958,0.1005232 -0.2261772,0.1005232 -0.1256541,0 -0.2261773,-0.1005232 Q 5.4195597,7.7818512 5.4195597,7.6561972 Z m 5.1518143,2.1109872 q 0,-0.1382194 0.100523,-0.2261772 0.100523,-0.1005232 0.226177,-0.1005232 0.13822,0 0.226177,0.1005232 0.100524,0.087958 0.100524,0.2261772 0,0.125654 -0.100524,0.2261772 -0.08796,0.1005234 -0.226177,0.1005234 -0.125654,0 -0.226177,-0.1005234 -0.100523,-0.1005232 -0.100523,-0.2261772 z m 0,-2.1109872 q 0,-0.1382194 0.100523,-0.2261772 0.100523,-0.1005232 0.226177,-0.1005232 0.13822,0 0.226177,0.1005232 0.100524,0.087958 0.100524,0.2261772 0,0.125654 -0.100524,0.2261772 -0.08796,0.1005232 -0.226177,0.1005232 -0.125654,0 -0.226177,-0.1005232 -0.100523,-0.1005232 -0.100523,-0.2261772 z m 1.168577,7.5392328 -0.100523,0.917274 q -0.125654,0.08796 -0.314135,0.13822 -0.175916,0.06283 -0.376962,0.06283 -0.376962,0 -0.703663,-0.188481 Q 9.9054024,15.949354 9.6540944,15.622654 9.390221,15.308519 9.2520016,14.86873 9.1012168,14.441506 9.1012168,13.951455 v -0.79162 l 0.087958,-0.07539 0.8167514,0.427223 v 0.716228 q 0,0.691097 0.213611,0.992667 0.213612,0.301569 0.565443,0.301569 0.251308,0 0.46492,-0.125654 0.213612,-0.113088 0.389528,-0.276438 z"
       id="text2"
       aria-label="ੵ" />
  </g>
</svg>
