<?xml version="1.0" encoding="UTF-8" standalone="no"?>
<!-- Created with Inkscape (http://www.inkscape.org/) -->

<svg
   width="64"
   height="64"
   viewBox="0 0 16.933333 16.933333"
   version="1.1"
   id="svg5"
   sodipodi:docname="Gurmukhi ਞ.svg"
   inkscape:version="1.3 (0e150ed6c4, 2023-07-21)"
   xmlns:inkscape="http://www.inkscape.org/namespaces/inkscape"
   xmlns:sodipodi="http://sodipodi.sourceforge.net/DTD/sodipodi-0.dtd"
   xmlns="http://www.w3.org/2000/svg"
   xmlns:svg="http://www.w3.org/2000/svg">
  <sodipodi:namedview
     id="namedview7"
     pagecolor="#505050"
     bordercolor="#eeeeee"
     borderopacity="1"
     inkscape:showpageshadow="0"
     inkscape:pageopacity="0"
     inkscape:pagecheckerboard="0"
     inkscape:deskcolor="#505050"
     inkscape:document-units="mm"
     showgrid="false"
     inkscape:zoom="6.7277217"
     inkscape:cx="39.314944"
     inkscape:cy="42.287718"
     inkscape:window-width="1920"
     inkscape:window-height="991"
     inkscape:window-x="-9"
     inkscape:window-y="-9"
     inkscape:window-maximized="1"
     inkscape:current-layer="layer1" />
  <defs
     id="defs2" />
  <g
     inkscape:label="Layer 1"
     inkscape:groupmode="layer"
     id="layer1">
    <path
       style="font-size:12.5654px;line-height:0.95;font-family:'Noto Serif Gurmukhi';-inkscape-font-specification:'Noto Serif Gurmukhi';stroke-width:0.314136"
       d="m 7.4865657,7.7315896 q -0.7413586,0 -1.0931898,0.2261772 -0.3518312,0.2261772 -0.3518312,0.6157046 0,0.3015696 0.2010464,0.502616 0.2010464,0.188481 0.5528776,0.2890042 0.3643966,0.087958 0.8293164,0.087958 h 3.4177889 l 0.263873,0.7413586 -0.06283,0.125654 H 7.9389201 q -0.1130886,0.30157 -0.1130886,0.578008 0,0.490051 0.376962,0.741359 0.3895274,0.238743 1.1560168,0.238743 h 1.9350717 l 0.289004,0.841881 -0.06283,0.113089 H 9.6980761 q -0.9172742,0 -1.507848,-0.276439 Q 7.6122197,12.280264 7.3357809,11.82791 7.0593421,11.36299 7.0593421,10.822678 q 0,-0.150785 0.025131,-0.289004 0.025131,-0.150785 0.075392,-0.276439 Q 6.5818569,10.156712 6.1169371,9.9054038 5.6645827,9.6415304 5.4007093,9.252003 5.1494013,8.8624756 5.1494013,8.3849904 q 0,-0.5905738 0.4272236,-0.9926666 Q 6.0038485,6.9776656 6.8959919,6.9022732 6.3305489,6.6635306 5.9912831,6.2614378 5.6645827,5.859345 5.5263633,5.3944252 H 4.3703464 L 4.0939076,4.665632 4.1567346,4.5525434 h 8.4062524 l 0.276439,0.7162278 -0.05026,0.125654 H 11.306447 V 7.43002 L 11.042574,7.7315896 Z M 10.326346,5.3944252 H 6.5441607 q 0.1005232,0.4146582 0.3392658,0.753924 0.251308,0.3392658 0.691097,0.5403122 0.439789,0.2010464 1.1183206,0.2010464 h 1.6335019 z"
       id="text2"
       aria-label="ਞ" />
  </g>
</svg>
