<?xml version="1.0" encoding="UTF-8" standalone="no"?>
<!-- Created with Inkscape (http://www.inkscape.org/) -->

<svg
   width="64"
   height="64"
   viewBox="0 0 16.933333 16.933333"
   version="1.1"
   id="svg5"
   sodipodi:docname="Gurmukhi ਯ.svg"
   inkscape:version="1.3 (0e150ed6c4, 2023-07-21)"
   xmlns:inkscape="http://www.inkscape.org/namespaces/inkscape"
   xmlns:sodipodi="http://sodipodi.sourceforge.net/DTD/sodipodi-0.dtd"
   xmlns="http://www.w3.org/2000/svg"
   xmlns:svg="http://www.w3.org/2000/svg">
  <sodipodi:namedview
     id="namedview7"
     pagecolor="#505050"
     bordercolor="#eeeeee"
     borderopacity="1"
     inkscape:showpageshadow="0"
     inkscape:pageopacity="0"
     inkscape:pagecheckerboard="0"
     inkscape:deskcolor="#505050"
     inkscape:document-units="mm"
     showgrid="false"
     inkscape:zoom="6.7277217"
     inkscape:cx="37.38264"
     inkscape:cy="40.94997"
     inkscape:window-width="1920"
     inkscape:window-height="991"
     inkscape:window-x="-9"
     inkscape:window-y="-9"
     inkscape:window-maximized="1"
     inkscape:current-layer="layer1" />
  <defs
     id="defs2" />
  <g
     inkscape:label="Layer 1"
     inkscape:groupmode="layer"
     id="layer1">
    <path
       style="font-size:12.5654px;line-height:0.95;font-family:'Noto Serif Gurmukhi';-inkscape-font-specification:'Noto Serif Gurmukhi';stroke-width:0.314136"
       d="m 13.499109,5.2687712 -0.05026,0.125654 h -1.495283 v 7.2753668 l -0.113088,0.06283 -0.917275,-0.46492 V 8.435252 H 9.1891772 v 0.7162278 q 0,0.565443 -0.087958,1.0177972 -0.075392,0.439789 -0.2764388,0.753924 -0.188481,0.30157 -0.5277468,0.46492 -0.3267004,0.150785 -0.816751,0.150785 -0.4523544,0 -0.879578,-0.201047 Q 6.1860466,11.124248 5.82165,10.759851 5.4572534,10.395454 5.1556838,9.9305346 4.8666796,9.4656148 4.6656332,8.9504334 5.1054222,8.435252 5.381861,7.9200706 5.6708652,7.3923238 5.6708652,6.80175 5.6708652,6.487615 5.570342,6.1232184 5.4698188,5.7462564 5.2436416,5.3944252 H 3.7106627 L 3.4342239,4.665632 3.4970509,4.5525434 h 9.7256201 z m -2.575907,2.387426 V 5.3944252 H 6.072958 q 0.2890042,0.4900506 0.439789,0.9801012 0.1507848,0.4900506 0.1507848,0.9298396 0,0.565443 -0.251308,1.0806244 -0.2387426,0.5151814 -0.7036624,1.0429282 0.1633502,0.3392658 0.376962,0.6408354 0.2261772,0.289004 0.4900506,0.46492 0.2764388,0.175915 0.5780084,0.175915 0.5905738,0 0.8293164,-0.402092 Q 8.2216414,9.8928384 8.2216414,9.126349 V 7.9200706 L 8.4855148,7.6561972 Z"
       id="text2"
       aria-label="ਯ" />
  </g>
</svg>
