<?xml version="1.0" encoding="UTF-8" standalone="no"?>
<!-- Created with Inkscape (http://www.inkscape.org/) -->

<svg
   width="64"
   height="64"
   viewBox="0 0 16.933333 16.933333"
   version="1.1"
   id="svg5"
   sodipodi:docname="Gurmukhi ਫ਼.svg"
   inkscape:version="1.3 (0e150ed6c4, 2023-07-21)"
   xmlns:inkscape="http://www.inkscape.org/namespaces/inkscape"
   xmlns:sodipodi="http://sodipodi.sourceforge.net/DTD/sodipodi-0.dtd"
   xmlns="http://www.w3.org/2000/svg"
   xmlns:svg="http://www.w3.org/2000/svg">
  <sodipodi:namedview
     id="namedview7"
     pagecolor="#505050"
     bordercolor="#eeeeee"
     borderopacity="1"
     inkscape:showpageshadow="0"
     inkscape:pageopacity="0"
     inkscape:pagecheckerboard="0"
     inkscape:deskcolor="#505050"
     inkscape:document-units="mm"
     showgrid="false"
     inkscape:zoom="6.7277217"
     inkscape:cx="37.38264"
     inkscape:cy="40.94997"
     inkscape:window-width="1920"
     inkscape:window-height="991"
     inkscape:window-x="-9"
     inkscape:window-y="-9"
     inkscape:window-maximized="1"
     inkscape:current-layer="layer1" />
  <defs
     id="defs2" />
  <g
     inkscape:label="Layer 1"
     inkscape:groupmode="layer"
     id="layer1">
    <path
       style="font-size:12.5654px;line-height:0.95;font-family:'Noto Serif Gurmukhi';-inkscape-font-specification:'Noto Serif Gurmukhi';stroke-width:0.314136"
       d="M 4.4268907,5.3944252 4.1504518,4.665632 4.2132788,4.5525434 h 4.8753753 l 0.2764388,0.7162278 -0.062827,0.125654 z m 3.9078394,2.387426 q -0.6785316,0 -1.1183206,0.2010464 -0.4272236,0.2010464 -0.6408354,0.5528776 -0.2010464,0.3518312 -0.2010464,0.816751 0,0.4272236 0.1507848,0.8167508 0.1507848,0.389528 0.4020928,0.703663 Q 7.4928483,10.169277 8.2090761,9.7420536 8.9378693,9.31483 9.6792279,9.31483 q 0.5905741,0 1.0177971,0.2638734 0.427224,0.251308 0.653401,0.6659666 0.238743,0.402092 0.238743,0.867012 0,0.703663 -0.552878,1.193713 -0.552877,0.490051 -1.5581095,0.490051 -0.8293164,0 -1.5581096,-0.339266 -0.7287932,-0.3267 -1.2942362,-0.879578 -0.565443,-0.552878 -0.8921434,-1.218844 -0.314135,-0.6785314 -0.314135,-1.357063 0,-0.5905738 0.2638734,-1.068059 Q 5.9598695,7.4551508 6.5504433,7.1661466 7.1535825,6.8771424 8.1085529,6.8771424 H 10.031059 V 5.3944252 H 4.7284603 L 4.4520215,4.665632 4.5148485,4.5525434 h 7.9915945 l 0.276439,0.7162278 -0.05026,0.125654 H 11.01116 V 7.5054124 L 10.784983,7.7818512 Z M 9.8802743,10.10645 q -0.4900506,0 -1.0931898,0.314135 -0.5905738,0.30157 -1.130886,0.942405 0.3392658,0.276439 0.7664894,0.439789 0.4272236,0.16335 0.8544472,0.16335 0.7664899,0 1.1811479,-0.314135 0.414658,-0.3267 0.414658,-0.716227 0,-0.314135 -0.238743,-0.565443 Q 10.395456,10.10645 9.8802743,10.10645 Z m -4.6743288,2.638734 q 0,-0.289004 0.188481,-0.477485 0.2010464,-0.188481 0.4900506,-0.188481 0.3015696,0 0.4900506,0.201046 0.2010464,0.201047 0.2010464,0.490051 0,0.276439 -0.188481,0.477485 -0.188481,0.201047 -0.4900506,0.201047 -0.3015696,0 -0.502616,-0.201047 -0.188481,-0.201046 -0.188481,-0.502616 z"
       id="text2"
       aria-label="ਫ਼" />
  </g>
</svg>
