<?xml version="1.0" encoding="UTF-8" standalone="no"?>
<!-- Created with Inkscape (http://www.inkscape.org/) -->

<svg
   width="64"
   height="64"
   viewBox="0 0 16.933333 16.933333"
   version="1.1"
   id="svg5"
   sodipodi:docname="Gurmukhi ਬ.svg"
   inkscape:version="1.3 (0e150ed6c4, 2023-07-21)"
   xmlns:inkscape="http://www.inkscape.org/namespaces/inkscape"
   xmlns:sodipodi="http://sodipodi.sourceforge.net/DTD/sodipodi-0.dtd"
   xmlns="http://www.w3.org/2000/svg"
   xmlns:svg="http://www.w3.org/2000/svg">
  <sodipodi:namedview
     id="namedview7"
     pagecolor="#505050"
     bordercolor="#eeeeee"
     borderopacity="1"
     inkscape:showpageshadow="0"
     inkscape:pageopacity="0"
     inkscape:pagecheckerboard="0"
     inkscape:deskcolor="#505050"
     inkscape:document-units="mm"
     showgrid="false"
     inkscape:zoom="6.7277217"
     inkscape:cx="37.38264"
     inkscape:cy="40.94997"
     inkscape:window-width="1920"
     inkscape:window-height="991"
     inkscape:window-x="-9"
     inkscape:window-y="-9"
     inkscape:window-maximized="1"
     inkscape:current-layer="layer1" />
  <defs
     id="defs2" />
  <g
     inkscape:label="Layer 1"
     inkscape:groupmode="layer"
     id="layer1">
    <path
       style="font-size:12.5654px;line-height:0.95;font-family:'Noto Serif Gurmukhi';-inkscape-font-specification:'Noto Serif Gurmukhi';stroke-width:0.314136"
       d="m 12.770316,5.2687712 -0.06283,0.125654 h -1.482717 v 7.3758898 l -0.125654,0.06283 -0.917274,-0.46492 v -1.042928 q -0.3015699,0.125654 -0.6534011,0.213612 -0.3518312,0.07539 -0.753924,0.07539 -0.5528776,0 -1.0931898,-0.175915 Q 7.1410169,11.249902 6.6509663,10.923201 6.1734811,10.583935 5.7965191,10.144146 5.4321225,9.691792 5.2059453,9.1640452 5.6457343,8.560906 6.2237427,8.2090748 6.8143165,7.8572436 7.5179789,7.7064588 6.8268819,7.5305432 6.3619621,7.1661466 5.9096077,6.80175 5.6582997,6.3368302 5.4069917,5.859345 5.3064685,5.3944252 H 4.4394559 L 4.1630171,4.665632 4.2258441,4.5525434 H 12.493877 Z M 10.181844,7.4551508 V 5.3944252 H 6.3493967 q 0.087958,0.5277468 0.376962,1.005232 0.3015696,0.4649198 0.8293164,0.7664894 0.5277468,0.2890042 1.3319324,0.2890042 z M 8.4478185,10.709589 q 0.4774852,0 0.9172742,-0.113088 0.439789,-0.125654 0.8167513,-0.376962 V 8.3472942 H 9.3902235 q -0.9801012,0 -1.8094176,0.2764388 -0.8293164,0.2638734 -1.4198902,0.942405 0.2387426,0.3643966 0.5905738,0.62827 0.3643966,0.251308 0.8041856,0.389527 0.439789,0.125654 0.8921434,0.125654 z"
       id="text2"
       aria-label="ਬ" />
  </g>
</svg>
