<?xml version="1.0" encoding="UTF-8" standalone="no"?>
<!-- Created with Inkscape (http://www.inkscape.org/) -->

<svg
   width="64"
   height="64"
   viewBox="0 0 16.933333 16.933333"
   version="1.1"
   id="svg5"
   sodipodi:docname="Gurmukhi ਿ.svg"
   inkscape:version="1.3 (0e150ed6c4, 2023-07-21)"
   xmlns:inkscape="http://www.inkscape.org/namespaces/inkscape"
   xmlns:sodipodi="http://sodipodi.sourceforge.net/DTD/sodipodi-0.dtd"
   xmlns="http://www.w3.org/2000/svg"
   xmlns:svg="http://www.w3.org/2000/svg">
  <sodipodi:namedview
     id="namedview7"
     pagecolor="#505050"
     bordercolor="#eeeeee"
     borderopacity="1"
     inkscape:showpageshadow="0"
     inkscape:pageopacity="0"
     inkscape:pagecheckerboard="0"
     inkscape:deskcolor="#505050"
     inkscape:document-units="mm"
     showgrid="false"
     inkscape:zoom="6.7277217"
     inkscape:cx="37.38264"
     inkscape:cy="40.94997"
     inkscape:window-width="1920"
     inkscape:window-height="991"
     inkscape:window-x="-9"
     inkscape:window-y="-9"
     inkscape:window-maximized="1"
     inkscape:current-layer="layer1" />
  <defs
     id="defs2" />
  <g
     inkscape:label="Layer 1"
     inkscape:groupmode="layer"
     id="layer1">
    <path
       style="font-size:12.5654px;line-height:0.95;font-family:'Noto Serif Gurmukhi';-inkscape-font-specification:'Noto Serif Gurmukhi';stroke-width:0.314136"
       d="m 6.8771472,0.88344652 q 0.8041856,0 1.4073248,0.41465818 0.6031392,0.4146582 0.9926666,1.130886 0.4020928,0.7162278 0.5528776,1.6335021 l -0.062827,0.075392 H 9.415358 Q 9.1766154,3.4719189 8.8624804,2.9567375 8.5483454,2.4415561 8.1211218,2.1525519 7.6938982,1.8509823 7.1033244,1.8509823 q -0.4523544,0 -0.8293164,0.188481 -0.376962,0.1759156 -0.6031392,0.5277468 -0.2261772,0.3518312 -0.2261772,0.8670126 0,0.2890043 0.075392,0.5654431 0.075392,0.2638734 0.2010464,0.5528776 h 1.445021 l 0.2764388,0.7162278 -0.062827,0.125654 H 5.8467844 v 7.2753668 l -0.125654,0.06283 -0.9047089,-0.46492 V 5.3944252 H 3.4719237 L 3.1954849,4.665632 3.2583119,4.5525434 H 4.8792485 Q 4.7033329,4.1504506 4.6153751,3.8237502 4.5399827,3.4970497 4.5399827,3.1829147 q 0,-0.7036624 0.314135,-1.2188438 Q 5.1682527,1.4488895 5.6959996,1.1724507 6.2237464,0.88344652 6.8771472,0.88344652 Z M 9.55357,5.8090834 q 0.1382194,0 0.2261772,0.1005232 0.1005232,0.087958 0.1005232,0.2261772 0,0.125654 -0.1005232,0.2261772 -0.087958,0.1005232 -0.2261772,0.1005232 -0.125654,0 -0.2261772,-0.1005232 -0.1005232,-0.1005232 -0.1005232,-0.2261772 0,-0.1382194 0.1005232,-0.2261772 Q 9.427916,5.8090834 9.55357,5.8090834 Z m 2.110987,0 q 0.13822,0 0.226177,0.1005232 0.100524,0.087958 0.100524,0.2261772 0,0.125654 -0.100524,0.2261772 -0.08796,0.1005232 -0.226177,0.1005232 -0.125654,0 -0.226177,-0.1005232 -0.100523,-0.1005232 -0.100523,-0.2261772 0,-0.1382194 0.100523,-0.2261772 0.100523,-0.1005232 0.226177,-0.1005232 z M 9.55357,10.960897 q 0.1382194,0 0.2261772,0.100524 0.1005232,0.08796 0.1005232,0.226177 0,0.125654 -0.1005232,0.226177 -0.087958,0.100523 -0.2261772,0.100523 -0.125654,0 -0.2261772,-0.100523 -0.1005232,-0.100523 -0.1005232,-0.226177 0,-0.13822 0.1005232,-0.226177 Q 9.427916,10.960897 9.55357,10.960897 Z m 2.110987,0 q 0.13822,0 0.226177,0.100524 0.100524,0.08796 0.100524,0.226177 0,0.125654 -0.100524,0.226177 -0.08796,0.100523 -0.226177,0.100523 -0.125654,0 -0.226177,-0.100523 -0.100523,-0.100523 -0.100523,-0.226177 0,-0.13822 0.100523,-0.226177 0.100523,-0.100524 0.226177,-0.100524 z M 10.609064,5.5829062 q 0.138219,0 0.226177,0.1005232 0.100523,0.087958 0.100523,0.2261772 0,0.125654 -0.100523,0.2261772 -0.08796,0.1005232 -0.226177,0.1005232 -0.125654,0 -0.226178,-0.1005232 -0.100523,-0.1005232 -0.100523,-0.2261772 0,-0.1382194 0.100523,-0.2261772 0.100524,-0.1005232 0.226178,-0.1005232 z m 0,5.6041688 q 0.138219,0 0.226177,0.100523 0.100523,0.08796 0.100523,0.226177 0,0.125654 -0.100523,0.226177 -0.08796,0.100523 -0.226177,0.100523 -0.125654,0 -0.226178,-0.100523 -0.100523,-0.100523 -0.100523,-0.226177 0,-0.138219 0.100523,-0.226177 0.100524,-0.100523 0.226178,-0.100523 z M 7.480279,8.7116908 q 0,-0.1382194 0.1005232,-0.2261772 0.1005232,-0.1005232 0.2261772,-0.1005232 0.1382194,0 0.2261772,0.1005232 0.1005232,0.087958 0.1005232,0.2261772 0,0.125654 -0.1005232,0.2261772 -0.087958,0.1005232 -0.2261772,0.1005232 -0.125654,0 -0.2261772,-0.1005232 Q 7.480279,8.8373448 7.480279,8.7116908 Z m 5.604168,0 q 0,-0.1382194 0.100524,-0.2261772 0.100523,-0.1005232 0.226177,-0.1005232 0.138219,0 0.226177,0.1005232 0.100523,0.087958 0.100523,0.2261772 0,0.125654 -0.100523,0.2261772 -0.08796,0.1005232 -0.226177,0.1005232 -0.125654,0 -0.226177,-0.1005232 Q 13.084447,8.8373448 13.084447,8.7116908 Z M 8.29703,10.697024 q 0,-0.138219 0.1005232,-0.226177 0.1005232,-0.100523 0.2261772,-0.100523 0.1382194,0 0.2261772,0.100523 0.1005232,0.08796 0.1005232,0.226177 0,0.125654 -0.1005232,0.226177 -0.087958,0.100523 -0.2261772,0.100523 -0.125654,0 -0.2261772,-0.100523 Q 8.29703,10.822678 8.29703,10.697024 Z m 0,-3.9706664 q 0,-0.1382194 0.1005232,-0.2261772 0.1005232,-0.1005232 0.2261772,-0.1005232 0.1382194,0 0.2261772,0.1005232 0.1005232,0.087958 0.1005232,0.2261772 0,0.125654 -0.1005232,0.2261772 -0.087958,0.1005232 -0.2261772,0.1005232 -0.125654,0 -0.2261772,-0.1005232 Q 8.29703,6.8520116 8.29703,6.7263576 Z m 3.970666,3.9706664 q 0,-0.138219 0.100524,-0.226177 0.100523,-0.100523 0.226177,-0.100523 0.138219,0 0.226177,0.100523 0.100523,0.08796 0.100523,0.226177 0,0.125654 -0.100523,0.226177 -0.08796,0.100523 -0.226177,0.100523 -0.125654,0 -0.226177,-0.100523 -0.100524,-0.100523 -0.100524,-0.226177 z m 0,-3.9706664 q 0,-0.1382194 0.100524,-0.2261772 0.100523,-0.1005232 0.226177,-0.1005232 0.138219,0 0.226177,0.1005232 0.100523,0.087958 0.100523,0.2261772 0,0.125654 -0.100523,0.2261772 -0.08796,0.1005232 -0.226177,0.1005232 -0.125654,0 -0.226177,-0.1005232 Q 12.267696,6.8520116 12.267696,6.7263576 Z M 7.7064562,9.7671844 q 0,-0.1382194 0.1005232,-0.2261772 0.1005232,-0.1005232 0.2261772,-0.1005232 0.1382194,0 0.2261772,0.1005232 0.1005232,0.087958 0.1005232,0.2261772 0,0.125654 -0.1005232,0.2261772 -0.087958,0.1005234 -0.2261772,0.1005234 -0.125654,0 -0.2261772,-0.1005234 Q 7.7064562,9.8928384 7.7064562,9.7671844 Z m 0,-2.1109872 q 0,-0.1382194 0.1005232,-0.2261772 0.1005232,-0.1005232 0.2261772,-0.1005232 0.1382194,0 0.2261772,0.1005232 0.1005232,0.087958 0.1005232,0.2261772 0,0.125654 -0.1005232,0.2261772 -0.087958,0.1005232 -0.2261772,0.1005232 -0.125654,0 -0.2261772,-0.1005232 Q 7.7064562,7.7818512 7.7064562,7.6561972 Z M 12.85827,9.7671844 q 0,-0.1382194 0.100523,-0.2261772 0.100524,-0.1005232 0.226178,-0.1005232 0.138219,0 0.226177,0.1005232 0.100523,0.087958 0.100523,0.2261772 0,0.125654 -0.100523,0.2261772 -0.08796,0.1005234 -0.226177,0.1005234 -0.125654,0 -0.226178,-0.1005234 Q 12.85827,9.8928384 12.85827,9.7671844 Z m 0,-2.1109872 q 0,-0.1382194 0.100523,-0.2261772 0.100524,-0.1005232 0.226178,-0.1005232 0.138219,0 0.226177,0.1005232 0.100523,0.087958 0.100523,0.2261772 0,0.125654 -0.100523,0.2261772 -0.08796,0.1005232 -0.226177,0.1005232 -0.125654,0 -0.226178,-0.1005232 Q 12.85827,7.7818512 12.85827,7.6561972 Z"
       id="text2"
       aria-label="ਿ" />
  </g>
</svg>
