<?xml version="1.0" encoding="UTF-8" standalone="no"?>
<!-- Created with Inkscape (http://www.inkscape.org/) -->

<svg
   width="64"
   height="64"
   viewBox="0 0 16.933333 16.933333"
   version="1.1"
   id="svg5"
   sodipodi:docname="Gurmukhi ਮ.svg"
   inkscape:version="1.3 (0e150ed6c4, 2023-07-21)"
   xmlns:inkscape="http://www.inkscape.org/namespaces/inkscape"
   xmlns:sodipodi="http://sodipodi.sourceforge.net/DTD/sodipodi-0.dtd"
   xmlns="http://www.w3.org/2000/svg"
   xmlns:svg="http://www.w3.org/2000/svg">
  <sodipodi:namedview
     id="namedview7"
     pagecolor="#505050"
     bordercolor="#eeeeee"
     borderopacity="1"
     inkscape:showpageshadow="0"
     inkscape:pageopacity="0"
     inkscape:pagecheckerboard="0"
     inkscape:deskcolor="#505050"
     inkscape:document-units="mm"
     showgrid="false"
     inkscape:zoom="6.7277217"
     inkscape:cx="37.38264"
     inkscape:cy="40.94997"
     inkscape:window-width="1920"
     inkscape:window-height="991"
     inkscape:window-x="-9"
     inkscape:window-y="-9"
     inkscape:window-maximized="1"
     inkscape:current-layer="layer1" />
  <defs
     id="defs2" />
  <g
     inkscape:label="Layer 1"
     inkscape:groupmode="layer"
     id="layer1">
    <path
       style="font-size:12.5654px;line-height:0.95;font-family:'Noto Serif Gurmukhi';-inkscape-font-specification:'Noto Serif Gurmukhi';stroke-width:0.314136"
       d="m 12.650945,5.2687712 -0.05026,0.125654 h -1.495282 v 7.2753668 l -0.125654,0.06283 -0.904709,-0.452355 V 9.2394376 H 7.5368271 q -0.037696,0.4146582 -0.1382194,0.8293164 -0.1005232,0.402093 -0.2638734,0.741359 -0.1633502,0.339265 -0.3895274,0.540312 -0.2261772,0.201046 -0.4900506,0.201046 -0.2890042,0 -0.502616,-0.188481 -0.2010464,-0.201046 -0.2010464,-0.590574 0,-0.263873 0.1130886,-0.603139 Q 5.7776711,9.817446 5.9912829,9.440484 6.2048947,9.063522 6.5064643,8.7242562 6.5315951,8.3472942 6.4938989,7.8949398 6.4562027,7.4425854 6.3808103,6.990231 6.3179833,6.5378766 6.2048947,6.1232184 6.1043715,5.7085602 5.9661521,5.3944252 H 4.5588273 L 4.2823885,4.665632 4.3452155,4.5525434 h 2.1235526 q 0.2136118,0.376962 0.3895274,0.8670126 0.188481,0.4900506 0.314135,1.0303628 0.1382194,0.5403122 0.2136118,1.068059 0.087958,0.5151814 0.1005232,0.942405 H 10.075038 V 4.5525434 h 2.299468 z"
       id="text2"
       aria-label="ਮ" />
  </g>
</svg>
