<?xml version="1.0" encoding="UTF-8" standalone="no"?>
<!-- Created with Inkscape (http://www.inkscape.org/) -->

<svg
   width="64"
   height="64"
   viewBox="0 0 16.933333 16.933333"
   version="1.1"
   id="svg5"
   sodipodi:docname="Gurmukhi ਰ.svg"
   inkscape:version="1.3 (0e150ed6c4, 2023-07-21)"
   xmlns:inkscape="http://www.inkscape.org/namespaces/inkscape"
   xmlns:sodipodi="http://sodipodi.sourceforge.net/DTD/sodipodi-0.dtd"
   xmlns="http://www.w3.org/2000/svg"
   xmlns:svg="http://www.w3.org/2000/svg">
  <sodipodi:namedview
     id="namedview7"
     pagecolor="#505050"
     bordercolor="#eeeeee"
     borderopacity="1"
     inkscape:showpageshadow="0"
     inkscape:pageopacity="0"
     inkscape:pagecheckerboard="0"
     inkscape:deskcolor="#505050"
     inkscape:document-units="mm"
     showgrid="false"
     inkscape:zoom="6.7277217"
     inkscape:cx="37.38264"
     inkscape:cy="40.94997"
     inkscape:window-width="1920"
     inkscape:window-height="991"
     inkscape:window-x="-9"
     inkscape:window-y="-9"
     inkscape:window-maximized="1"
     inkscape:current-layer="layer1" />
  <defs
     id="defs2" />
  <g
     inkscape:label="Layer 1"
     inkscape:groupmode="layer"
     id="layer1">
    <path
       style="font-size:12.5654px;line-height:0.95;font-family:'Noto Serif Gurmukhi';-inkscape-font-specification:'Noto Serif Gurmukhi';stroke-width:0.314136"
       d="m 12.217438,5.2687712 -0.06283,0.125654 h -1.482717 v 4.7497208 q 0,0.854448 -0.188481,1.407325 -0.175915,0.540312 -0.5528774,0.804186 -0.376962,0.263873 -0.942405,0.263873 -0.6282701,0 -1.2565401,-0.314135 -0.6157046,-0.3267 -1.130886,-0.841882 -0.502616,-0.527746 -0.816751,-1.130886 -0.3015696,-0.6157042 -0.3015696,-1.1811472 0,-0.439789 0.188481,-0.8293164 Q 5.8719113,7.9200706 6.3242657,7.6687626 6.7891855,7.4174546 7.5682403,7.4174546 H 9.6415314 V 5.3944252 H 4.9923333 L 4.7158945,4.665632 4.7787215,4.5525434 H 11.941 Z M 8.686561,11.853041 q 0.5151814,0 0.7287932,-0.427224 0.2261772,-0.439789 0.2261772,-1.243974 V 8.2593364 H 7.9703331 q -0.7664894,0 -1.1183206,0.314135 -0.3392658,0.3015696 -0.3392658,0.8418818 0,0.3895274 0.2010464,0.8167508 0.2010464,0.427224 0.5277468,0.804186 0.3267004,0.364396 0.7036624,0.590574 0.3895274,0.226177 0.7413587,0.226177 z"
       id="text2"
       aria-label="ਰ" />
  </g>
</svg>
