<?xml version="1.0" encoding="UTF-8" standalone="no"?>
<!-- Created with Inkscape (http://www.inkscape.org/) -->

<svg
   width="64"
   height="64"
   viewBox="0 0 16.933333 16.933333"
   version="1.1"
   id="svg5"
   sodipodi:docname="Gurmukhi ੦.svg"
   inkscape:version="1.3 (0e150ed6c4, 2023-07-21)"
   xmlns:inkscape="http://www.inkscape.org/namespaces/inkscape"
   xmlns:sodipodi="http://sodipodi.sourceforge.net/DTD/sodipodi-0.dtd"
   xmlns="http://www.w3.org/2000/svg"
   xmlns:svg="http://www.w3.org/2000/svg">
  <sodipodi:namedview
     id="namedview7"
     pagecolor="#505050"
     bordercolor="#eeeeee"
     borderopacity="1"
     inkscape:showpageshadow="0"
     inkscape:pageopacity="0"
     inkscape:pagecheckerboard="0"
     inkscape:deskcolor="#505050"
     inkscape:document-units="mm"
     showgrid="false"
     inkscape:zoom="6.7277217"
     inkscape:cx="37.38264"
     inkscape:cy="40.94997"
     inkscape:window-width="1920"
     inkscape:window-height="991"
     inkscape:window-x="-9"
     inkscape:window-y="-9"
     inkscape:window-maximized="1"
     inkscape:current-layer="layer1" />
  <defs
     id="defs2" />
  <g
     inkscape:label="Layer 1"
     inkscape:groupmode="layer"
     id="layer1">
    <path
       style="font-size:12.5654px;line-height:0.95;font-family:'Noto Serif Gurmukhi';-inkscape-font-specification:'Noto Serif Gurmukhi';stroke-width:0.314136"
       d="m 8.6488648,11.50121 q -0.6408354,0 -1.1685822,-0.238743 Q 6.9651011,11.011159 6.5755737,10.583935 6.1986117,10.156712 5.9849999,9.6038342 5.7839535,9.0509566 5.7839535,8.4478174 q 0,-0.7916202 0.314135,-1.4324556 Q 6.4122235,6.3745264 7.0027973,5.9975644 7.5933712,5.608037 8.4226876,5.608037 q 0.6408354,0 1.1434514,0.2638734 0.502616,0.2638734 0.854447,0.7162278 0.364397,0.439789 0.540312,0.9926666 0.188481,0.5528776 0.188481,1.130886 0,0.8293164 -0.314135,1.4575862 -0.301569,0.62827 -0.8670122,0.980101 -0.565443,0.351832 -1.319367,0.351832 z M 8.435253,10.797547 q 0.5403122,0 0.9047088,-0.339266 0.376962,-0.339265 0.565443,-0.8670122 0.2010462,-0.5403122 0.2010462,-1.1183206 0,-0.3643966 -0.08796,-0.7287932 Q 9.943101,7.367193 9.7671854,7.0656234 9.5912698,6.7514884 9.3022656,6.5630074 9.0132614,6.3745264 8.6111686,6.3745264 q -0.5780084,0 -0.9801012,0.3518312 Q 7.24154,7.0781888 7.0404935,7.618501 6.8394471,8.1462478 6.8394471,8.6991254 q 0,0.3518312 0.087958,0.7162278 0.087958,0.3643966 0.2764389,0.6785318 0.2010464,0.314135 0.502616,0.515181 0.3015696,0.188481 0.7287932,0.188481 z"
       id="text2"
       aria-label="੦" />
  </g>
</svg>
