<?xml version="1.0" encoding="UTF-8" standalone="no"?>
<!-- Created with Inkscape (http://www.inkscape.org/) -->

<svg
   width="64"
   height="64"
   viewBox="0 0 16.933333 16.933333"
   version="1.1"
   id="svg5"
   sodipodi:docname="Gurmukhi ਙ.svg"
   inkscape:version="1.3 (0e150ed6c4, 2023-07-21)"
   xmlns:inkscape="http://www.inkscape.org/namespaces/inkscape"
   xmlns:sodipodi="http://sodipodi.sourceforge.net/DTD/sodipodi-0.dtd"
   xmlns="http://www.w3.org/2000/svg"
   xmlns:svg="http://www.w3.org/2000/svg">
  <sodipodi:namedview
     id="namedview7"
     pagecolor="#505050"
     bordercolor="#eeeeee"
     borderopacity="1"
     inkscape:showpageshadow="0"
     inkscape:pageopacity="0"
     inkscape:pagecheckerboard="0"
     inkscape:deskcolor="#505050"
     inkscape:document-units="mm"
     showgrid="false"
     inkscape:zoom="6.7277217"
     inkscape:cx="39.314944"
     inkscape:cy="42.287718"
     inkscape:window-width="1920"
     inkscape:window-height="991"
     inkscape:window-x="-9"
     inkscape:window-y="-9"
     inkscape:window-maximized="1"
     inkscape:current-layer="layer1" />
  <defs
     id="defs2" />
  <g
     inkscape:label="Layer 1"
     inkscape:groupmode="layer"
     id="layer1">
    <path
       style="font-size:12.5654px;line-height:0.95;font-family:'Noto Serif Gurmukhi';-inkscape-font-specification:'Noto Serif Gurmukhi';stroke-width:0.314136"
       d="M 12.682359,5.3944252 H 6.9776669 v 1.4827172 h 1.9225062 q 0.7664894,0 1.3068019,0.2136118 0.540312,0.2136118 0.879578,0.5780084 0.339266,0.3518312 0.49005,0.7916202 0.163351,0.4272236 0.163351,0.8670126 0,0.5780084 -0.238743,1.1308856 -0.238743,0.540313 -0.640835,1.005232 0.226177,0.251308 0.464919,0.540313 0.238743,0.289004 0.490051,0.590573 l -0.502616,0.427224 q -0.251308,-0.314135 -0.490051,-0.590574 -0.238742,-0.263873 -0.464919,-0.502616 -0.4900511,0.402093 -1.0931903,0.640836 -0.6031392,0.251308 -1.25654,0.251308 -0.4900506,0 -0.942405,-0.150785 -0.439789,-0.13822 -0.7916202,-0.402093 -0.3392658,-0.263873 -0.5403122,-0.615705 -0.188481,-0.351831 -0.188481,-0.766489 0,-0.46492 0.2387426,-0.816751 0.2387426,-0.3643966 0.6534008,-0.565443 0.4146582,-0.2010464 0.9298396,-0.2010464 0.7413586,0 1.4198902,0.3895274 0.691097,0.389527 1.3696285,1.055494 0.276439,-0.339266 0.439789,-0.741359 0.16335,-0.4020928 0.16335,-0.8293164 0,-0.4272236 -0.201046,-0.7413586 Q 10.370325,8.121117 9.9305359,7.9577668 9.5033123,7.7818512 8.7870845,7.7818512 H 6.1734813 L 5.9473041,7.5054124 V 5.3944252 H 4.4771523 L 4.2007134,4.665632 4.2635404,4.5525434 H 12.456181 L 12.73262,5.2687712 Z M 7.7064601,12.091783 q 0.5151814,0 1.0554936,-0.213611 0.5403122,-0.226178 0.9675358,-0.615705 -0.565443,-0.552878 -1.0806244,-0.841882 -0.502616,-0.301569 -1.0554936,-0.301569 -0.5905738,0 -0.879578,0.314135 -0.2764388,0.301569 -0.2764388,0.6534 0,0.389528 0.3267004,0.703663 0.3267004,0.301569 0.942405,0.301569 z"
       id="text2"
       aria-label="ਙ" />
  </g>
</svg>
