<?xml version="1.0" encoding="UTF-8" standalone="no"?>
<!-- Created with Inkscape (http://www.inkscape.org/) -->

<svg
   width="64"
   height="64"
   viewBox="0 0 16.933333 16.933333"
   version="1.1"
   id="svg5"
   sodipodi:docname="Gurmukhi ੂ.svg"
   inkscape:version="1.3 (0e150ed6c4, 2023-07-21)"
   xmlns:inkscape="http://www.inkscape.org/namespaces/inkscape"
   xmlns:sodipodi="http://sodipodi.sourceforge.net/DTD/sodipodi-0.dtd"
   xmlns="http://www.w3.org/2000/svg"
   xmlns:svg="http://www.w3.org/2000/svg">
  <sodipodi:namedview
     id="namedview7"
     pagecolor="#505050"
     bordercolor="#eeeeee"
     borderopacity="1"
     inkscape:showpageshadow="0"
     inkscape:pageopacity="0"
     inkscape:pagecheckerboard="0"
     inkscape:deskcolor="#505050"
     inkscape:document-units="mm"
     showgrid="false"
     inkscape:zoom="6.7277217"
     inkscape:cx="37.38264"
     inkscape:cy="40.94997"
     inkscape:window-width="1920"
     inkscape:window-height="991"
     inkscape:window-x="-9"
     inkscape:window-y="-9"
     inkscape:window-maximized="1"
     inkscape:current-layer="layer1" />
  <defs
     id="defs2" />
  <g
     inkscape:label="Layer 1"
     inkscape:groupmode="layer"
     id="layer1">
    <path
       style="font-size:12.5654px;line-height:0.95;font-family:'Noto Serif Gurmukhi';-inkscape-font-specification:'Noto Serif Gurmukhi';stroke-width:0.314136"
       d="m 7.4111729,5.8090834 q 0.1382194,0 0.2261772,0.1005232 0.1005232,0.087958 0.1005232,0.2261772 0,0.125654 -0.1005232,0.2261772 -0.087958,0.1005232 -0.2261772,0.1005232 -0.125654,0 -0.2261772,-0.1005232 -0.1005232,-0.1005232 -0.1005232,-0.2261772 0,-0.1382194 0.1005232,-0.2261772 0.1005232,-0.1005232 0.2261772,-0.1005232 z m 2.1109872,0 q 0.1382194,0 0.2261772,0.1005232 0.1005232,0.087958 0.1005232,0.2261772 0,0.125654 -0.1005232,0.2261772 -0.087958,0.1005232 -0.2261772,0.1005232 -0.125654,0 -0.2261772,-0.1005232 -0.1005232,-0.1005232 -0.1005232,-0.2261772 0,-0.1382194 0.1005232,-0.2261772 Q 9.3965061,5.8090834 9.5221601,5.8090834 Z M 7.4111729,10.960897 q 0.1382194,0 0.2261772,0.100524 0.1005232,0.08796 0.1005232,0.226177 0,0.125654 -0.1005232,0.226177 -0.087958,0.100523 -0.2261772,0.100523 -0.125654,0 -0.2261772,-0.100523 -0.1005232,-0.100523 -0.1005232,-0.226177 0,-0.13822 0.1005232,-0.226177 0.1005232,-0.100524 0.2261772,-0.100524 z m 2.1109872,0 q 0.1382194,0 0.2261772,0.100524 0.1005232,0.08796 0.1005232,0.226177 0,0.125654 -0.1005232,0.226177 -0.087958,0.100523 -0.2261772,0.100523 -0.125654,0 -0.2261772,-0.100523 -0.1005232,-0.100523 -0.1005232,-0.226177 0,-0.13822 0.1005232,-0.226177 0.1005232,-0.100524 0.2261772,-0.100524 z M 8.4666665,5.5829062 q 0.1382194,0 0.2261772,0.1005232 0.1005232,0.087958 0.1005232,0.2261772 0,0.125654 -0.1005232,0.2261772 -0.087958,0.1005232 -0.2261772,0.1005232 -0.125654,0 -0.2261772,-0.1005232 -0.1005232,-0.1005232 -0.1005232,-0.2261772 0,-0.1382194 0.1005232,-0.2261772 0.1005232,-0.1005232 0.2261772,-0.1005232 z m 0,5.6041688 q 0.1382194,0 0.2261772,0.100523 0.1005232,0.08796 0.1005232,0.226177 0,0.125654 -0.1005232,0.226177 -0.087958,0.100523 -0.2261772,0.100523 -0.125654,0 -0.2261772,-0.100523 -0.1005232,-0.100523 -0.1005232,-0.226177 0,-0.138219 0.1005232,-0.226177 0.1005232,-0.100523 0.2261772,-0.100523 z M 5.3378818,8.7116908 q 0,-0.1382194 0.1005232,-0.2261772 0.1005232,-0.1005232 0.2261773,-0.1005232 0.1382194,0 0.2261772,0.1005232 0.1005232,0.087958 0.1005232,0.2261772 0,0.125654 -0.1005232,0.2261772 -0.087958,0.1005232 -0.2261772,0.1005232 -0.1256541,0 -0.2261773,-0.1005232 Q 5.3378818,8.8373448 5.3378818,8.7116908 Z m 5.6041682,0 q 0,-0.1382194 0.100524,-0.2261772 0.100523,-0.1005232 0.226177,-0.1005232 0.138219,0 0.226177,0.1005232 0.100523,0.087958 0.100523,0.2261772 0,0.125654 -0.100523,0.2261772 -0.08796,0.1005232 -0.226177,0.1005232 -0.125654,0 -0.226177,-0.1005232 Q 10.94205,8.8373448 10.94205,8.7116908 Z M 6.1546329,10.697024 q 0,-0.138219 0.1005232,-0.226177 0.1005232,-0.100523 0.2261772,-0.100523 0.1382194,0 0.2261772,0.100523 0.1005232,0.08796 0.1005232,0.226177 0,0.125654 -0.1005232,0.226177 -0.087958,0.100523 -0.2261772,0.100523 -0.125654,0 -0.2261772,-0.100523 -0.1005232,-0.100523 -0.1005232,-0.226177 z m 0,-3.9706664 q 0,-0.1382194 0.1005232,-0.2261772 0.1005232,-0.1005232 0.2261772,-0.1005232 0.1382194,0 0.2261772,0.1005232 0.1005232,0.087958 0.1005232,0.2261772 0,0.125654 -0.1005232,0.2261772 -0.087958,0.1005232 -0.2261772,0.1005232 -0.125654,0 -0.2261772,-0.1005232 Q 6.1546329,6.8520116 6.1546329,6.7263576 Z m 3.9706661,3.9706664 q 0,-0.138219 0.100523,-0.226177 0.100524,-0.100523 0.226178,-0.100523 0.138219,0 0.226177,0.100523 0.100523,0.08796 0.100523,0.226177 0,0.125654 -0.100523,0.226177 -0.08796,0.100523 -0.226177,0.100523 -0.125654,0 -0.226178,-0.100523 -0.100523,-0.100523 -0.100523,-0.226177 z m 0,-3.9706664 q 0,-0.1382194 0.100523,-0.2261772 0.100524,-0.1005232 0.226178,-0.1005232 0.138219,0 0.226177,0.1005232 0.100523,0.087958 0.100523,0.2261772 0,0.125654 -0.100523,0.2261772 -0.08796,0.1005232 -0.226177,0.1005232 -0.125654,0 -0.226178,-0.1005232 -0.100523,-0.1005232 -0.100523,-0.2261772 z m -4.56124,3.0408268 q 0,-0.1382194 0.1005233,-0.2261772 0.1005232,-0.1005232 0.2261772,-0.1005232 0.1382194,0 0.2261772,0.1005232 0.1005232,0.087958 0.1005232,0.2261772 0,0.125654 -0.1005232,0.2261772 -0.087958,0.1005234 -0.2261772,0.1005234 -0.125654,0 -0.2261772,-0.1005234 Q 5.564059,9.8928384 5.564059,9.7671844 Z m 0,-2.1109872 q 0,-0.1382194 0.1005233,-0.2261772 0.1005232,-0.1005232 0.2261772,-0.1005232 0.1382194,0 0.2261772,0.1005232 0.1005232,0.087958 0.1005232,0.2261772 0,0.125654 -0.1005232,0.2261772 -0.087958,0.1005232 -0.2261772,0.1005232 -0.125654,0 -0.2261772,-0.1005232 Q 5.564059,7.7818512 5.564059,7.6561972 Z m 5.151814,2.1109872 q 0,-0.1382194 0.100523,-0.2261772 0.100524,-0.1005232 0.226178,-0.1005232 0.138219,0 0.226177,0.1005232 0.100523,0.087958 0.100523,0.2261772 0,0.125654 -0.100523,0.2261772 -0.08796,0.1005234 -0.226177,0.1005234 -0.125654,0 -0.226178,-0.1005234 -0.100523,-0.1005232 -0.100523,-0.2261772 z m 0,-2.1109872 q 0,-0.1382194 0.100523,-0.2261772 0.100524,-0.1005232 0.226178,-0.1005232 0.138219,0 0.226177,0.1005232 0.100523,0.087958 0.100523,0.2261772 0,0.125654 -0.100523,0.2261772 -0.08796,0.1005232 -0.226177,0.1005232 -0.125654,0 -0.226178,-0.1005232 Q 10.715873,7.7818512 10.715873,7.6561972 Z M 6.192327,13.298055 q 0.6157046,0.427223 1.2942362,0.540312 0.6659662,0.113088 1.319367,-0.0377 0.6534008,-0.150785 1.2188438,-0.515182 l 0.339266,0.678532 Q 9.8739892,14.315852 9.3085462,14.491768 8.7305378,14.667683 8.1273986,14.655118 7.5242594,14.642552 6.9713818,14.416375 6.4059388,14.202763 5.941019,13.750409 Z m -0.251308,1.306801 q 0.4774852,0.389528 1.068059,0.590574 0.5780084,0.201046 1.1811476,0.201046 0.6031392,0.01257 1.1811476,-0.175915 0.565443,-0.175916 1.0177978,-0.527747 l 0.339265,0.640835 Q 10.20069,15.760873 9.5472888,15.961919 8.8813226,16.175531 8.1902256,16.137835 7.4865632,16.112704 6.8331624,15.836265 6.1797616,15.572392 5.6645802,15.057211 Z"
       id="text2"
       aria-label="ੂ" />
  </g>
</svg>
