<?xml version="1.0" encoding="UTF-8" standalone="no"?>
<!-- Created with Inkscape (http://www.inkscape.org/) -->

<svg
   width="64"
   height="64"
   viewBox="0 0 16.933333 16.933333"
   version="1.1"
   id="svg5"
   sodipodi:docname="Gurmukhi ਲ.svg"
   inkscape:version="1.3 (0e150ed6c4, 2023-07-21)"
   xmlns:inkscape="http://www.inkscape.org/namespaces/inkscape"
   xmlns:sodipodi="http://sodipodi.sourceforge.net/DTD/sodipodi-0.dtd"
   xmlns="http://www.w3.org/2000/svg"
   xmlns:svg="http://www.w3.org/2000/svg">
  <sodipodi:namedview
     id="namedview7"
     pagecolor="#505050"
     bordercolor="#eeeeee"
     borderopacity="1"
     inkscape:showpageshadow="0"
     inkscape:pageopacity="0"
     inkscape:pagecheckerboard="0"
     inkscape:deskcolor="#505050"
     inkscape:document-units="mm"
     showgrid="false"
     inkscape:zoom="6.7277217"
     inkscape:cx="37.38264"
     inkscape:cy="40.94997"
     inkscape:window-width="1920"
     inkscape:window-height="991"
     inkscape:window-x="-9"
     inkscape:window-y="-9"
     inkscape:window-maximized="1"
     inkscape:current-layer="layer1" />
  <defs
     id="defs2" />
  <g
     inkscape:label="Layer 1"
     inkscape:groupmode="layer"
     id="layer1">
    <path
       style="font-size:12.5654px;line-height:0.95;font-family:'Noto Serif Gurmukhi';-inkscape-font-specification:'Noto Serif Gurmukhi';stroke-width:0.314136"
       d="m 13.027907,5.3944252 h -2.261772 q -0.08796,0.4900506 -0.226178,1.0303628 -0.125654,0.5277468 -0.339265,1.0554936 0.527746,0.3518312 0.95497,0.8041856 0.439789,0.4523544 0.703662,1.005232 0.263874,0.5528776 0.263874,1.2062788 0,0.590573 -0.276439,1.080624 -0.263873,0.490051 -0.867013,0.779055 -0.590573,0.289004 -1.5581091,0.276439 l -0.125654,-0.150785 v -0.879578 q 1.0303631,0.01257 1.5078481,-0.364397 0.477485,-0.376962 0.477485,-0.992666 0,-0.6282704 -0.389527,-1.1685826 Q 10.502261,8.5232098 9.9116875,8.1336824 9.6226833,8.749387 9.2457213,9.3399608 8.8813247,9.9179692 8.4164049,10.420585 8.014312,9.9807962 7.6750462,9.4530494 7.3357804,8.9127372 7.0593416,8.3347288 6.4562024,8.68656 6.0415442,9.189176 5.6394514,9.6792266 5.6394514,10.307497 q 0,0.414658 0.2387426,0.716227 0.2387426,0.289005 0.6659662,0.439789 0.4272236,0.13822 1.005232,0.13822 l 0.1130886,0.16335 v 0.867013 Q 6.9085568,12.669792 6.3682446,12.45618 5.8279324,12.242568 5.4761012,11.878172 5.12427,11.50121 4.9609198,11.048855 4.7975696,10.596501 4.7975696,10.131581 q 0,-0.8544472 0.4900506,-1.5329788 Q 5.7902362,7.9200706 6.6195526,7.43002 6.4310716,6.9022732 6.2928522,6.3870918 6.1671982,5.859345 6.1043712,5.3944252 H 4.119038 L 3.8425992,4.665632 3.9054262,4.5525434 h 8.9088688 l 0.276439,0.7162278 z M 8.3033162,9.2017414 Q 8.6677129,8.7368216 8.9692825,8.1085516 9.2834175,7.4802816 9.5095947,6.7766192 9.7357719,6.0603914 9.8488605,5.3944252 H 6.8582952 q 0.062827,0.502616 0.188481,1.0429282 0.1382194,0.5277468 0.3267004,1.0429282 0.2010464,0.502616 0.4272236,0.9549704 0.2387426,0.439789 0.502616,0.7664894 z"
       id="text2"
       aria-label="ਲ" />
  </g>
</svg>
