<?xml version="1.0" encoding="UTF-8" standalone="no"?>
<!-- Created with Inkscape (http://www.inkscape.org/) -->

<svg
   width="64"
   height="64"
   viewBox="0 0 16.933333 16.933333"
   version="1.1"
   id="svg5"
   sodipodi:docname="Gurmukhi ਜ਼.svg"
   inkscape:version="1.3 (0e150ed6c4, 2023-07-21)"
   xmlns:inkscape="http://www.inkscape.org/namespaces/inkscape"
   xmlns:sodipodi="http://sodipodi.sourceforge.net/DTD/sodipodi-0.dtd"
   xmlns="http://www.w3.org/2000/svg"
   xmlns:svg="http://www.w3.org/2000/svg">
  <sodipodi:namedview
     id="namedview7"
     pagecolor="#505050"
     bordercolor="#eeeeee"
     borderopacity="1"
     inkscape:showpageshadow="0"
     inkscape:pageopacity="0"
     inkscape:pagecheckerboard="0"
     inkscape:deskcolor="#505050"
     inkscape:document-units="mm"
     showgrid="false"
     inkscape:zoom="6.7277217"
     inkscape:cx="37.38264"
     inkscape:cy="40.94997"
     inkscape:window-width="1920"
     inkscape:window-height="991"
     inkscape:window-x="-9"
     inkscape:window-y="-9"
     inkscape:window-maximized="1"
     inkscape:current-layer="layer1" />
  <defs
     id="defs2" />
  <g
     inkscape:label="Layer 1"
     inkscape:groupmode="layer"
     id="layer1">
    <path
       style="font-size:12.5654px;line-height:0.95;font-family:'Noto Serif Gurmukhi';-inkscape-font-specification:'Noto Serif Gurmukhi';stroke-width:0.314136"
       d="m 12.776599,5.2687712 -0.05026,0.125654 h -1.495282 v 7.2753668 l -0.125654,0.06283 -0.904709,-0.46492 V 8.7870832 H 7.1472995 v 1.4324558 q 0,0.95497 -0.2890042,1.545544 -0.2764388,0.578008 -0.8293164,0.980101 L 5.3127511,12.167176 V 12.054087 Q 5.8028017,11.689691 5.9912827,11.19964 6.1923291,10.709589 6.1923291,10.068754 V 8.875041 H 5.9661519 q -0.2890042,0 -0.4523544,-0.125654 -0.1633502,-0.125654 -0.1633502,-0.3267004 0,-0.2010464 0.1382194,-0.4272236 Q 5.6268861,7.7567204 5.8404979,7.555674 6.0666751,7.3420622 6.3054177,7.2164082 6.5567257,7.0781888 6.7577721,7.0781888 q 0.2136118,0 0.314135,0.1633502 0.1130886,0.1633502 0.1130886,0.4523544 v 0.314135 H 10.200692 V 5.3944252 H 4.4331731 L 4.1567343,4.665632 4.2195613,4.5525434 H 12.50016 Z M 7.8509619,12.569269 q 0,-0.289005 0.188481,-0.46492 0.188481,-0.188481 0.4900506,-0.188481 0.3015696,0 0.4900506,0.188481 0.188481,0.188481 0.188481,0.49005 0,0.276439 -0.188481,0.46492 -0.1759156,0.201047 -0.4774852,0.201047 -0.3015696,0 -0.502616,-0.201047 -0.188481,-0.188481 -0.188481,-0.49005 z"
       id="text2"
       aria-label="ਜ਼" />
  </g>
</svg>
