<?xml version="1.0" encoding="UTF-8" standalone="no"?>
<!-- Created with Inkscape (http://www.inkscape.org/) -->

<svg
   width="64"
   height="64"
   viewBox="0 0 16.933333 16.933333"
   version="1.1"
   id="svg5"
   sodipodi:docname="Gurmukhi ੜ.svg"
   inkscape:version="1.3 (0e150ed6c4, 2023-07-21)"
   xmlns:inkscape="http://www.inkscape.org/namespaces/inkscape"
   xmlns:sodipodi="http://sodipodi.sourceforge.net/DTD/sodipodi-0.dtd"
   xmlns="http://www.w3.org/2000/svg"
   xmlns:svg="http://www.w3.org/2000/svg">
  <sodipodi:namedview
     id="namedview7"
     pagecolor="#505050"
     bordercolor="#eeeeee"
     borderopacity="1"
     inkscape:showpageshadow="0"
     inkscape:pageopacity="0"
     inkscape:pagecheckerboard="0"
     inkscape:deskcolor="#505050"
     inkscape:document-units="mm"
     showgrid="false"
     inkscape:zoom="6.7277217"
     inkscape:cx="37.38264"
     inkscape:cy="40.94997"
     inkscape:window-width="1920"
     inkscape:window-height="991"
     inkscape:window-x="-9"
     inkscape:window-y="-9"
     inkscape:window-maximized="1"
     inkscape:current-layer="layer1" />
  <defs
     id="defs2" />
  <g
     inkscape:label="Layer 1"
     inkscape:groupmode="layer"
     id="layer1">
    <path
       style="font-size:12.5654px;line-height:0.95;font-family:'Noto Serif Gurmukhi';-inkscape-font-specification:'Noto Serif Gurmukhi';stroke-width:0.314136"
       d="m 10.891789,5.3944252 q 0.0377,0.125654 0.05026,0.2638734 0.02513,0.1382194 0.02513,0.2890042 0,0.5403122 -0.276439,1.0177974 -0.276439,0.4649198 -0.7664891,0.753924 0.5905741,0.2764388 0.9424051,0.753924 0.351831,0.4649198 0.351831,1.0554936 0,0.5654432 -0.289004,0.9926662 -0.289004,0.427224 -0.779055,0.665967 l 1.269106,1.520413 -0.06283,0.08796 H 10.452 L 9.4216369,11.438383 q -0.1507848,0.0377 -0.3392658,0.06283 -0.1759156,0.01257 -0.3895274,0.01257 -0.4774852,0 -1.0806244,-0.125654 -0.6031392,-0.138219 -1.1560168,-0.414658 l 1.3570632,1.72146 -0.075392,0.100523 H 6.8080337 L 5.1494008,10.056189 5.4132742,9.7923152 q 0.3895274,0.2764388 0.8921435,0.4774848 0.5151814,0.188481 1.0303628,0.289005 0.5277468,0.100523 0.9549704,0.100523 0.5780084,0 1.0177974,-0.150785 0.4523544,-0.150785 0.7162277,-0.439789 0.263873,-0.3015696 0.263873,-0.7162278 0,-0.3267004 -0.226177,-0.6659662 Q 9.8362951,8.3472942 9.3085483,8.1462478 8.8687593,8.309598 8.3787087,8.3849904 q -0.4900506,0.075392 -0.9298396,0.075392 -0.3895274,0 -0.7287932,-0.075392 Q 6.3933755,8.309598 6.192329,8.1588132 6.003848,7.995463 6.003848,7.7567204 q 0,-0.3518312 0.4020929,-0.502616 0.4146582,-0.1633502 0.9926666,-0.1633502 0.5151814,0 1.005232,0.087958 0.502616,0.087958 0.8670126,0.251308 0.314135,-0.1759156 0.5277468,-0.5403122 0.2136121,-0.376962 0.2136121,-0.8293164 0,-0.3267004 -0.1130889,-0.6659662 H 4.4583038 L 4.181865,4.665632 4.244692,4.5525434 h 8.230337 l 0.276439,0.7162278 -0.05026,0.125654 z"
       id="text2"
       aria-label="ੜ" />
  </g>
</svg>
