<?xml version="1.0" encoding="UTF-8" standalone="no"?>
<!-- Created with Inkscape (http://www.inkscape.org/) -->

<svg
   width="64"
   height="64"
   viewBox="0 0 16.933333 16.933333"
   version="1.1"
   id="svg5"
   sodipodi:docname="Gurmukhi ਤ.svg"
   inkscape:version="1.3 (0e150ed6c4, 2023-07-21)"
   xmlns:inkscape="http://www.inkscape.org/namespaces/inkscape"
   xmlns:sodipodi="http://sodipodi.sourceforge.net/DTD/sodipodi-0.dtd"
   xmlns="http://www.w3.org/2000/svg"
   xmlns:svg="http://www.w3.org/2000/svg">
  <sodipodi:namedview
     id="namedview7"
     pagecolor="#505050"
     bordercolor="#eeeeee"
     borderopacity="1"
     inkscape:showpageshadow="0"
     inkscape:pageopacity="0"
     inkscape:pagecheckerboard="0"
     inkscape:deskcolor="#505050"
     inkscape:document-units="mm"
     showgrid="false"
     inkscape:zoom="6.7277217"
     inkscape:cx="39.314944"
     inkscape:cy="42.287718"
     inkscape:window-width="1920"
     inkscape:window-height="991"
     inkscape:window-x="-9"
     inkscape:window-y="-9"
     inkscape:window-maximized="1"
     inkscape:current-layer="layer1" />
  <defs
     id="defs2" />
  <g
     inkscape:label="Layer 1"
     inkscape:groupmode="layer"
     id="layer1">
    <path
       style="font-size:12.5654px;line-height:0.95;font-family:'Noto Serif Gurmukhi';-inkscape-font-specification:'Noto Serif Gurmukhi';stroke-width:0.314136"
       d="m 12.594401,5.2687712 -0.05026,0.125654 h -1.734025 q 0.0377,0.1507848 0.05026,0.3015696 0.02513,0.1382194 0.02513,0.2890042 0,0.6785316 -0.276439,1.2439746 -0.276438,0.5528776 -0.8167505,0.8544472 0.6910965,0.3895274 1.0680585,0.942405 0.376962,0.5528776 0.376962,1.2439742 0,0.703663 -0.376962,1.243975 -0.376962,0.527747 -1.0303623,0.829316 -0.6408354,0.30157 -1.4575865,0.30157 -0.6534008,0 -1.25654,-0.188481 -0.5905738,-0.175916 -1.0429282,-0.452354 -0.4523544,-0.289005 -0.7162278,-0.60314 -0.2638734,-0.3267 -0.2638734,-0.603139 0,-0.175915 0.087958,-0.301569 0.6534008,0.590573 1.3947594,0.892143 0.753924,0.30157 1.5204134,0.30157 1.0303629,0 1.6083713,-0.477486 0.5905733,-0.477485 0.5905733,-1.181147 0,-0.46492 -0.289004,-0.8670128 Q 9.7294895,8.7619524 9.1766119,8.5232098 8.7619536,8.7116908 8.271903,8.812214 7.7818524,8.9001718 7.3546288,8.9001718 6.952536,8.9001718 6.6258356,8.812214 6.2991352,8.7242562 6.0980888,8.5483406 5.9096078,8.372425 5.9096078,8.121117 q 0,-0.3643966 0.4020928,-0.5403122 0.4020928,-0.1759156 0.9926666,-0.1759156 0.4649198,0 0.9549704,0.1005232 0.4900506,0.087958 0.8670127,0.251308 Q 9.4279199,7.555674 9.6415317,7.1284504 9.8677089,6.7012268 9.8677089,6.17348 q 0,-0.2010464 -0.025131,-0.3895274 Q 9.8174473,5.5829062 9.7546203,5.3944252 H 4.6153716 L 4.3389328,4.665632 4.4017598,4.5525434 h 7.9162022 z"
       id="text2"
       aria-label="ਤ" />
  </g>
</svg>
