<?xml version="1.0" encoding="UTF-8" standalone="no"?>
<!-- Created with Inkscape (http://www.inkscape.org/) -->

<svg
   width="64"
   height="64"
   viewBox="0 0 16.933333 16.933333"
   version="1.1"
   id="svg5"
   sodipodi:docname="Gurmukhi ਝ.svg"
   inkscape:version="1.3 (0e150ed6c4, 2023-07-21)"
   xmlns:inkscape="http://www.inkscape.org/namespaces/inkscape"
   xmlns:sodipodi="http://sodipodi.sourceforge.net/DTD/sodipodi-0.dtd"
   xmlns="http://www.w3.org/2000/svg"
   xmlns:svg="http://www.w3.org/2000/svg">
  <sodipodi:namedview
     id="namedview7"
     pagecolor="#505050"
     bordercolor="#eeeeee"
     borderopacity="1"
     inkscape:showpageshadow="0"
     inkscape:pageopacity="0"
     inkscape:pagecheckerboard="0"
     inkscape:deskcolor="#505050"
     inkscape:document-units="mm"
     showgrid="false"
     inkscape:zoom="6.7277217"
     inkscape:cx="39.314944"
     inkscape:cy="42.287718"
     inkscape:window-width="1920"
     inkscape:window-height="991"
     inkscape:window-x="-9"
     inkscape:window-y="-9"
     inkscape:window-maximized="1"
     inkscape:current-layer="layer1" />
  <defs
     id="defs2" />
  <g
     inkscape:label="Layer 1"
     inkscape:groupmode="layer"
     id="layer1">
    <path
       style="font-size:12.5654px;line-height:0.95;font-family:'Noto Serif Gurmukhi';-inkscape-font-specification:'Noto Serif Gurmukhi';stroke-width:0.314136"
       d="m 11.400688,5.3944252 q -0.08796,0.9801012 -0.477486,1.633502 -0.389527,0.6408354 -1.1308856,0.9047088 0.7916206,0.2638734 1.2942366,0.8041856 0.515181,0.5277468 0.515181,1.3068014 0,0.590574 -0.3267,1.055494 -0.326701,0.452354 -0.892144,0.741358 -0.5654428,0.276439 -1.3068014,0.364397 0.3518312,0.263873 0.7287932,0.603139 0.3769622,0.339266 0.7287932,0.678532 l -0.46492,0.439789 Q 9.7043586,13.561935 9.2268734,13.109581 8.7493882,12.669792 8.2593376,12.317961 7.8572448,12.305395 7.4300212,12.230003 7.0027976,12.142045 6.638401,11.978695 6.2740044,11.815345 6.0478272,11.589167 5.82165,11.350425 5.82165,11.03629 q 0,-0.289004 0.2136118,-0.46492 0.2136118,-0.175916 0.5528776,-0.175916 0.4272236,0 0.879578,0.289005 0.4523544,0.289004 0.879578,0.678531 0.7036624,-0.05026 1.2439746,-0.238742 0.540312,-0.188481 0.841882,-0.502616 0.314135,-0.326701 0.314135,-0.741359 0,-0.6157046 -0.603139,-0.9298396 Q 9.5535738,8.623733 8.586038,8.623733 q -0.5905738,0 -1.319367,0.1130886 Q 6.5378778,8.8499102 5.7965192,9.0760874 L 5.6834306,9.0132604 5.507515,8.1588132 Q 5.9096078,8.0205938 6.3619622,7.932636 6.8143166,7.8446782 7.2415402,7.806982 6.6132702,7.555674 6.198612,6.9399694 5.7965192,6.3116994 5.695996,5.3944252 H 4.5274137 L 4.2509749,4.665632 4.3138019,4.5525434 H 12.40592 l 0.276438,0.7162278 -0.06283,0.125654 z m -2.81465,2.3371644 q 0.5780084,0 0.9549704,-0.3015696 Q 9.9305358,7.1284504 10.131582,6.6007036 10.332629,6.0603914 10.332629,5.3944252 H 6.701228 q 0.012565,0.7036624 0.251308,1.2314092 0.2387426,0.5277468 0.6534008,0.816751 0.4272236,0.2890042 0.9801012,0.2890042 z"
       id="text2"
       aria-label="ਝ" />
  </g>
</svg>
