<?xml version="1.0" encoding="UTF-8" standalone="no"?>
<!-- Created with Inkscape (http://www.inkscape.org/) -->

<svg
   width="64"
   height="64"
   viewBox="0 0 16.933333 16.933333"
   version="1.1"
   id="svg5"
   sodipodi:docname="Gurmukhi ਣ.svg"
   inkscape:version="1.3 (0e150ed6c4, 2023-07-21)"
   xmlns:inkscape="http://www.inkscape.org/namespaces/inkscape"
   xmlns:sodipodi="http://sodipodi.sourceforge.net/DTD/sodipodi-0.dtd"
   xmlns="http://www.w3.org/2000/svg"
   xmlns:svg="http://www.w3.org/2000/svg">
  <sodipodi:namedview
     id="namedview7"
     pagecolor="#505050"
     bordercolor="#eeeeee"
     borderopacity="1"
     inkscape:showpageshadow="0"
     inkscape:pageopacity="0"
     inkscape:pagecheckerboard="0"
     inkscape:deskcolor="#505050"
     inkscape:document-units="mm"
     showgrid="false"
     inkscape:zoom="6.7277217"
     inkscape:cx="39.314944"
     inkscape:cy="42.287718"
     inkscape:window-width="1920"
     inkscape:window-height="991"
     inkscape:window-x="-9"
     inkscape:window-y="-9"
     inkscape:window-maximized="1"
     inkscape:current-layer="layer1" />
  <defs
     id="defs2" />
  <g
     inkscape:label="Layer 1"
     inkscape:groupmode="layer"
     id="layer1">
    <path
       style="font-size:12.5654px;line-height:0.95;font-family:'Noto Serif Gurmukhi';-inkscape-font-specification:'Noto Serif Gurmukhi';stroke-width:0.314136"
       d="m 12.682358,5.2687712 -0.05026,0.125654 H 7.4174558 q 0.502616,0.6534008 1.2062784,1.0303628 0.7036624,0.3643966 1.5204138,0.4774852 0.829316,0.1130886 1.683763,0.025131 l 0.201047,0.9926666 Q 11.47608,7.995463 10.923202,7.9577668 10.370325,7.9075052 9.842578,7.7818512 V 8.749387 H 9.5158776 q -0.7287932,0 -1.3696286,0.125654 Q 7.5054136,8.9881296 6.9776668,9.2645684 6.44992,9.5410072 6.0478272,10.043623 q 0.251308,0.552878 0.6659662,0.942405 0.4146582,0.376962 0.9047088,0.578009 0.4900506,0.188481 0.9675358,0.188481 0.5780084,0 1.1183206,-0.238743 0.5403124,-0.238743 0.8921434,-0.665966 h 0.150785 l 0.46492,0.816751 q -0.389528,0.49005 -0.992667,0.766489 -0.6031392,0.289004 -1.2816708,0.289004 -0.6408354,0 -1.2439746,-0.251308 Q 7.0907554,12.230003 6.575574,11.802779 6.0603926,11.36299 5.6834306,10.797547 5.3064686,10.232104 5.1179876,9.5912688 5.570342,8.937868 6.1609158,8.5734714 6.7514896,8.2090748 7.4425866,8.05829 8.1336836,7.8949398 8.8624768,7.8823744 V 7.367193 Q 8.146249,7.053058 7.5556752,6.550442 6.9651014,6.047826 6.5881394,5.3944252 H 4.5274137 L 4.2509749,4.665632 4.3138019,4.5525434 H 12.40592 Z"
       id="text2"
       aria-label="ਣ" />
  </g>
</svg>
