<?xml version="1.0" encoding="UTF-8" standalone="no"?>
<!-- Created with Inkscape (http://www.inkscape.org/) -->

<svg
   width="64"
   height="64"
   viewBox="0 0 16.933333 16.933333"
   version="1.1"
   id="svg5"
   sodipodi:docname="Gurmukhi ਓ.svg"
   inkscape:version="1.3 (0e150ed6c4, 2023-07-21)"
   xmlns:inkscape="http://www.inkscape.org/namespaces/inkscape"
   xmlns:sodipodi="http://sodipodi.sourceforge.net/DTD/sodipodi-0.dtd"
   xmlns="http://www.w3.org/2000/svg"
   xmlns:svg="http://www.w3.org/2000/svg">
  <sodipodi:namedview
     id="namedview7"
     pagecolor="#505050"
     bordercolor="#eeeeee"
     borderopacity="1"
     inkscape:showpageshadow="0"
     inkscape:pageopacity="0"
     inkscape:pagecheckerboard="0"
     inkscape:deskcolor="#505050"
     inkscape:document-units="mm"
     showgrid="false"
     inkscape:zoom="4.7572177"
     inkscape:cx="51.816002"
     inkscape:cy="27.011587"
     inkscape:window-width="1920"
     inkscape:window-height="991"
     inkscape:window-x="-9"
     inkscape:window-y="-9"
     inkscape:window-maximized="1"
     inkscape:current-layer="layer1" />
  <defs
     id="defs2" />
  <g
     inkscape:label="Layer 1"
     inkscape:groupmode="layer"
     id="layer1">
    <path
       style="font-size:12.5654px;line-height:0.95;font-family:'Noto Serif Gurmukhi';-inkscape-font-specification:'Noto Serif Gurmukhi';stroke-width:0.314136"
       d="m 11.714823,5.3944252 q -0.01257,1.0931898 -0.414659,1.8471138 -0.402093,0.753924 -1.206278,1.0806244 0.427223,0.2010464 0.779055,0.5151814 0.351831,0.3015696 0.552877,0.7287932 0.213612,0.4272236 0.213612,0.992667 0,0.992666 -0.653401,1.608371 -0.653401,0.615704 -1.7717211,0.615704 -0.8293164,0 -1.4701518,-0.351831 Q 7.1033207,12.079218 6.6258355,11.463513 6.1483502,10.847809 5.8342152,10.056189 5.5326456,9.252003 5.3818608,8.372425 5.231076,7.4802816 5.231076,6.5881382 q 0,-0.3015696 0.025131,-0.6157046 0.025131,-0.3267004 0.050262,-0.5780084 H 4.351498 L 4.0750592,4.665632 4.1378862,4.5525434 H 5.4446878 Q 5.7588228,3.3462649 6.4122237,2.6551679 7.0781899,1.9515055 7.9326371,1.6499359 8.7996497,1.3483663 9.7043585,1.3483663 h 1.6460675 l 0.339266,0.7664894 -0.06283,0.1130886 H 9.7043585 q -1.3319324,0 -2.1235526,0.6534008 -0.7790548,0.6534008 -1.0806244,1.6711983 h 6.0816535 l 0.276439,0.7162278 -0.05026,0.125654 z M 8.7493881,7.7315896 q 0.691097,0 1.193713,-0.3267004 Q 10.458282,7.0656234 10.747287,6.5378766 11.036291,6.0101298 11.048856,5.3944252 H 6.3242659 Q 6.236308,5.9347374 6.2237426,6.550442 6.2111772,7.1535812 6.2865696,7.7315896 Z m 1.9978989,2.6136034 q 0,-0.4523546 -0.226178,-0.8293166 Q 10.294932,9.1389144 9.8425779,8.9127372 9.3902235,8.68656 8.7116919,8.68656 H 6.3619621 q 0.050262,0.439789 0.188481,0.8921434 0.1507848,0.4523546 0.376962,0.8670126 0.2387426,0.414658 0.5528776,0.728793 0.314135,0.314135 0.691097,0.502616 0.3895274,0.188481 0.8544472,0.188481 0.7790548,0 1.2439741,-0.414658 0.477486,-0.414658 0.477486,-1.105755 z"
       id="text2"
       aria-label="ਓ" />
  </g>
</svg>
