<?xml version="1.0" encoding="UTF-8" standalone="no"?>
<!-- Created with Inkscape (http://www.inkscape.org/) -->

<svg
   width="64"
   height="64"
   viewBox="0 0 16.933333 16.933333"
   version="1.1"
   id="svg5"
   sodipodi:docname="Gurmukhi ਹ.svg"
   inkscape:version="1.3 (0e150ed6c4, 2023-07-21)"
   xmlns:inkscape="http://www.inkscape.org/namespaces/inkscape"
   xmlns:sodipodi="http://sodipodi.sourceforge.net/DTD/sodipodi-0.dtd"
   xmlns="http://www.w3.org/2000/svg"
   xmlns:svg="http://www.w3.org/2000/svg">
  <sodipodi:namedview
     id="namedview7"
     pagecolor="#505050"
     bordercolor="#eeeeee"
     borderopacity="1"
     inkscape:showpageshadow="0"
     inkscape:pageopacity="0"
     inkscape:pagecheckerboard="0"
     inkscape:deskcolor="#505050"
     inkscape:document-units="mm"
     showgrid="false"
     inkscape:zoom="6.7277217"
     inkscape:cx="37.38264"
     inkscape:cy="40.94997"
     inkscape:window-width="1920"
     inkscape:window-height="991"
     inkscape:window-x="-9"
     inkscape:window-y="-9"
     inkscape:window-maximized="1"
     inkscape:current-layer="layer1" />
  <defs
     id="defs2" />
  <g
     inkscape:label="Layer 1"
     inkscape:groupmode="layer"
     id="layer1">
    <path
       style="font-size:12.5654px;line-height:0.95;font-family:'Noto Serif Gurmukhi';-inkscape-font-specification:'Noto Serif Gurmukhi';stroke-width:0.314136"
       d="m 12.242569,5.2687712 -0.06283,0.125654 h -1.482717 v 4.6743288 q 0,0.879578 -0.188481,1.445021 -0.188481,0.565443 -0.565443,0.841882 -0.376962,0.263873 -0.9549704,0.263873 -0.6534008,0 -1.2816708,-0.314135 Q 7.0907552,11.978695 6.5881392,11.463513 6.0855232,10.935767 5.7839536,10.332627 5.4949494,9.7294882 5.4949494,9.1640452 q 0,-0.439789 0.188481,-0.8418818 Q 5.8844768,7.9200706 6.3368312,7.6687626 6.801751,7.4174546 7.5808058,7.4174546 h 0.8041856 l 0.2764388,0.7162278 -0.062827,0.125654 H 7.9828986 q -0.7664894,0 -1.1183206,0.314135 -0.3392658,0.3015696 -0.3392658,0.8418818 0,0.4146582 0.188481,0.8418818 0.188481,0.427224 0.502616,0.79162 0.314135,0.364397 0.691097,0.590574 0.3895274,0.213612 0.7790548,0.213612 0.5528776,0 0.7664894,-0.46492 0.2136118,-0.46492 0.2136118,-1.331932 V 5.3944252 H 4.9672026 L 4.6907638,4.665632 4.7535908,4.5525434 H 11.96613 Z"
       id="text2"
       aria-label="ਹ" />
  </g>
</svg>
