<?xml version="1.0" encoding="UTF-8" standalone="no"?>
<!-- Created with Inkscape (http://www.inkscape.org/) -->

<svg
   width="64"
   height="64"
   viewBox="0 0 16.933333 16.933333"
   version="1.1"
   id="svg5"
   sodipodi:docname="Gurmukhi ਪ.svg"
   inkscape:version="1.3 (0e150ed6c4, 2023-07-21)"
   xmlns:inkscape="http://www.inkscape.org/namespaces/inkscape"
   xmlns:sodipodi="http://sodipodi.sourceforge.net/DTD/sodipodi-0.dtd"
   xmlns="http://www.w3.org/2000/svg"
   xmlns:svg="http://www.w3.org/2000/svg">
  <sodipodi:namedview
     id="namedview7"
     pagecolor="#505050"
     bordercolor="#eeeeee"
     borderopacity="1"
     inkscape:showpageshadow="0"
     inkscape:pageopacity="0"
     inkscape:pagecheckerboard="0"
     inkscape:deskcolor="#505050"
     inkscape:document-units="mm"
     showgrid="false"
     inkscape:zoom="6.7277217"
     inkscape:cx="39.314944"
     inkscape:cy="42.287718"
     inkscape:window-width="1920"
     inkscape:window-height="991"
     inkscape:window-x="-9"
     inkscape:window-y="-9"
     inkscape:window-maximized="1"
     inkscape:current-layer="layer1" />
  <defs
     id="defs2" />
  <g
     inkscape:label="Layer 1"
     inkscape:groupmode="layer"
     id="layer1">
    <path
       style="font-size:12.5654px;line-height:0.95;font-family:'Noto Serif Gurmukhi';-inkscape-font-specification:'Noto Serif Gurmukhi';stroke-width:0.314136"
       d="m 12.606966,5.2687712 -0.05026,0.125654 h -1.495282 v 7.2753668 l -0.113089,0.06283 -0.917274,-0.46492 v -1.746591 q -0.2890042,0.276439 -0.6659662,0.402093 -0.3643966,0.113089 -0.7287932,0.113089 -0.502616,0 -0.9801012,-0.188481 Q 7.1787132,10.646762 6.764055,10.320062 6.3493968,9.9807962 6.0226964,9.5535726 5.7085614,9.126349 5.507515,8.6739946 5.947304,8.2216402 6.2363082,7.7064588 6.5253124,7.1912774 6.5253124,6.5755728 6.5253124,6.299134 6.44992,5.9975644 6.3745276,5.6959948 6.198612,5.3944252 H 4.6028062 L 4.3263674,4.665632 4.3891944,4.5525434 h 2.1109872 q 0.502616,0.691097 0.7413586,1.3319324 0.251308,0.6408354 0.251308,1.2188438 0,0.5403122 -0.2261772,1.0429282 -0.2261772,0.502616 -0.6659662,0.9549704 0.188481,0.2638734 0.4523544,0.502616 0.2638734,0.2261772 0.5905738,0.376962 0.3392658,0.1382198 0.7413586,0.1382198 0.4649198,0 0.9047088,-0.2010468 0.439789,-0.2010464 0.7413586,-0.5905738 v -4.774852 h 2.299468 z"
       id="text2"
       aria-label="ਪ" />
  </g>
</svg>
