<?xml version="1.0" encoding="UTF-8" standalone="no"?>
<!-- Created with Inkscape (http://www.inkscape.org/) -->

<svg
   width="64"
   height="64"
   viewBox="0 0 16.933333 16.933333"
   version="1.1"
   id="svg5"
   sodipodi:docname="Gurmukhi ਸ਼.svg"
   inkscape:version="1.3 (0e150ed6c4, 2023-07-21)"
   xmlns:inkscape="http://www.inkscape.org/namespaces/inkscape"
   xmlns:sodipodi="http://sodipodi.sourceforge.net/DTD/sodipodi-0.dtd"
   xmlns="http://www.w3.org/2000/svg"
   xmlns:svg="http://www.w3.org/2000/svg">
  <sodipodi:namedview
     id="namedview7"
     pagecolor="#505050"
     bordercolor="#eeeeee"
     borderopacity="1"
     inkscape:showpageshadow="0"
     inkscape:pageopacity="0"
     inkscape:pagecheckerboard="0"
     inkscape:deskcolor="#505050"
     inkscape:document-units="mm"
     showgrid="false"
     inkscape:zoom="6.7277217"
     inkscape:cx="37.38264"
     inkscape:cy="40.94997"
     inkscape:window-width="1920"
     inkscape:window-height="991"
     inkscape:window-x="-9"
     inkscape:window-y="-9"
     inkscape:window-maximized="1"
     inkscape:current-layer="layer1" />
  <defs
     id="defs2" />
  <g
     inkscape:label="Layer 1"
     inkscape:groupmode="layer"
     id="layer1">
    <path
       style="font-size:12.5654px;line-height:0.95;font-family:'Noto Serif Gurmukhi';-inkscape-font-specification:'Noto Serif Gurmukhi';stroke-width:0.314136"
       d="m 7.70646,12.418484 q 0,-0.289004 0.188481,-0.46492 0.188481,-0.188481 0.4900506,-0.188481 0.3015696,0 0.4900506,0.188481 0.188481,0.188481 0.188481,0.502616 0,0.276439 -0.188481,0.46492 -0.1759156,0.188481 -0.4774852,0.188481 -0.3015696,0 -0.502616,-0.201047 Q 7.70646,12.720053 7.70646,12.418484 Z m 5.088987,-7.1497128 -0.06283,0.125654 h -1.482717 v 7.2753668 l -0.125654,0.06283 -0.904709,-0.46492 V 9.2896992 H 7.3797596 Q 7.3420634,9.691792 7.2415402,10.093885 7.141017,10.495978 6.9776668,10.822678 q -0.1633502,0.3267 -0.3895274,0.527747 -0.2136118,0.201046 -0.4774852,0.201046 -0.2890042,0 -0.502616,-0.188481 -0.2010464,-0.201046 -0.2010464,-0.590574 0,-0.263873 0.1130886,-0.603139 Q 5.633169,9.817446 5.8467808,9.440484 6.0603926,9.063522 6.3619622,8.7242562 6.387093,8.3472942 6.3493968,7.8949398 6.3117006,7.4425854 6.2363082,6.990231 6.1734812,6.5378766 6.0603926,6.1232184 5.9598694,5.7085602 5.82165,5.3944252 H 4.4143251 L 4.1378863,4.665632 4.2007133,4.5525434 H 12.519008 Z M 10.21954,8.5106444 V 5.3944252 H 6.701228 Q 6.889709,5.859345 7.0279284,6.424788 7.1661478,6.9776656 7.2541056,7.5305432 7.3420634,8.0708554 7.3546288,8.5106444 Z"
       id="text2"
       aria-label="ਸ਼" />
  </g>
</svg>
