<?xml version="1.0" encoding="UTF-8" standalone="no"?>
<!-- Created with Inkscape (http://www.inkscape.org/) -->

<svg
   width="64"
   height="64"
   viewBox="0 0 16.933333 16.933333"
   version="1.1"
   id="svg5"
   sodipodi:docname="Gurmukhi ਾ.svg"
   inkscape:version="1.3 (0e150ed6c4, 2023-07-21)"
   xmlns:inkscape="http://www.inkscape.org/namespaces/inkscape"
   xmlns:sodipodi="http://sodipodi.sourceforge.net/DTD/sodipodi-0.dtd"
   xmlns="http://www.w3.org/2000/svg"
   xmlns:svg="http://www.w3.org/2000/svg">
  <sodipodi:namedview
     id="namedview7"
     pagecolor="#505050"
     bordercolor="#eeeeee"
     borderopacity="1"
     inkscape:showpageshadow="0"
     inkscape:pageopacity="0"
     inkscape:pagecheckerboard="0"
     inkscape:deskcolor="#505050"
     inkscape:document-units="mm"
     showgrid="false"
     inkscape:zoom="6.7277217"
     inkscape:cx="37.38264"
     inkscape:cy="40.94997"
     inkscape:window-width="1920"
     inkscape:window-height="991"
     inkscape:window-x="-9"
     inkscape:window-y="-9"
     inkscape:window-maximized="1"
     inkscape:current-layer="layer1" />
  <defs
     id="defs2" />
  <g
     inkscape:label="Layer 1"
     inkscape:groupmode="layer"
     id="layer1">
    <path
       style="font-size:12.5654px;line-height:0.95;font-family:'Noto Serif Gurmukhi';-inkscape-font-specification:'Noto Serif Gurmukhi';stroke-width:0.314136"
       d="m 5.3441658,5.8090834 q 0.1382194,0 0.2261772,0.1005232 0.1005232,0.087958 0.1005232,0.2261772 0,0.125654 -0.1005232,0.2261772 -0.087958,0.1005232 -0.2261772,0.1005232 -0.125654,0 -0.2261772,-0.1005232 -0.1005232,-0.1005232 -0.1005232,-0.2261772 0,-0.1382194 0.1005232,-0.2261772 0.1005232,-0.1005232 0.2261772,-0.1005232 z m 2.1109872,0 q 0.1382194,0 0.2261772,0.1005232 0.1005232,0.087958 0.1005232,0.2261772 0,0.125654 -0.1005232,0.2261772 -0.087958,0.1005232 -0.2261772,0.1005232 -0.125654,0 -0.2261772,-0.1005232 -0.1005232,-0.1005232 -0.1005232,-0.2261772 0,-0.1382194 0.1005232,-0.2261772 Q 7.329499,5.8090834 7.455153,5.8090834 Z M 5.3441658,10.960897 q 0.1382194,0 0.2261772,0.100524 0.1005232,0.08796 0.1005232,0.226177 0,0.125654 -0.1005232,0.226177 -0.087958,0.100523 -0.2261772,0.100523 -0.125654,0 -0.2261772,-0.100523 -0.1005232,-0.100523 -0.1005232,-0.226177 0,-0.13822 0.1005232,-0.226177 0.1005232,-0.100524 0.2261772,-0.100524 z m 2.1109872,0 q 0.1382194,0 0.2261772,0.100524 0.1005232,0.08796 0.1005232,0.226177 0,0.125654 -0.1005232,0.226177 -0.087958,0.100523 -0.2261772,0.100523 -0.125654,0 -0.2261772,-0.100523 -0.1005232,-0.100523 -0.1005232,-0.226177 0,-0.13822 0.1005232,-0.226177 Q 7.329499,10.960897 7.455153,10.960897 Z M 6.3996594,5.5829062 q 0.1382194,0 0.2261772,0.1005232 0.1005232,0.087958 0.1005232,0.2261772 0,0.125654 -0.1005232,0.2261772 -0.087958,0.1005232 -0.2261772,0.1005232 -0.125654,0 -0.2261772,-0.1005232 Q 6.072959,6.0352606 6.072959,5.9096066 q 0,-0.1382194 0.1005232,-0.2261772 0.1005232,-0.1005232 0.2261772,-0.1005232 z m 0,5.6041688 q 0.1382194,0 0.2261772,0.100523 0.1005232,0.08796 0.1005232,0.226177 0,0.125654 -0.1005232,0.226177 -0.087958,0.100523 -0.2261772,0.100523 -0.125654,0 -0.2261772,-0.100523 -0.1005232,-0.100523 -0.1005232,-0.226177 0,-0.138219 0.1005232,-0.226177 0.1005232,-0.100523 0.2261772,-0.100523 z M 3.2708748,8.7116908 q 0,-0.1382194 0.1005232,-0.2261772 0.1005232,-0.1005232 0.2261772,-0.1005232 0.1382194,0 0.2261772,0.1005232 0.1005232,0.087958 0.1005232,0.2261772 0,0.125654 -0.1005232,0.2261772 -0.087958,0.1005232 -0.2261772,0.1005232 -0.125654,0 -0.2261772,-0.1005232 Q 3.2708748,8.8373448 3.2708748,8.7116908 Z m 5.6041684,0 q 0,-0.1382194 0.1005232,-0.2261772 0.1005232,-0.1005232 0.2261772,-0.1005232 0.1382194,0 0.2261772,0.1005232 0.1005232,0.087958 0.1005232,0.2261772 0,0.125654 -0.1005232,0.2261772 -0.087958,0.1005232 -0.2261772,0.1005232 -0.125654,0 -0.2261772,-0.1005232 Q 8.8750432,8.8373448 8.8750432,8.7116908 Z M 4.0876258,10.697024 q 0,-0.138219 0.1005232,-0.226177 0.1005232,-0.100523 0.2261772,-0.100523 0.1382194,0 0.2261772,0.100523 0.1005232,0.08796 0.1005232,0.226177 0,0.125654 -0.1005232,0.226177 -0.087958,0.100523 -0.2261772,0.100523 -0.125654,0 -0.2261772,-0.100523 -0.1005232,-0.100523 -0.1005232,-0.226177 z m 0,-3.9706664 q 0,-0.1382194 0.1005232,-0.2261772 0.1005232,-0.1005232 0.2261772,-0.1005232 0.1382194,0 0.2261772,0.1005232 0.1005232,0.087958 0.1005232,0.2261772 0,0.125654 -0.1005232,0.2261772 -0.087958,0.1005232 -0.2261772,0.1005232 -0.125654,0 -0.2261772,-0.1005232 Q 4.0876258,6.8520116 4.0876258,6.7263576 Z m 3.9706664,3.9706664 q 0,-0.138219 0.1005232,-0.226177 0.1005232,-0.100523 0.2261772,-0.100523 0.1382194,0 0.2261772,0.100523 0.1005232,0.08796 0.1005232,0.226177 0,0.125654 -0.1005232,0.226177 -0.087958,0.100523 -0.2261772,0.100523 -0.125654,0 -0.2261772,-0.100523 -0.1005232,-0.100523 -0.1005232,-0.226177 z m 0,-3.9706664 q 0,-0.1382194 0.1005232,-0.2261772 0.1005232,-0.1005232 0.2261772,-0.1005232 0.1382194,0 0.2261772,0.1005232 0.1005232,0.087958 0.1005232,0.2261772 0,0.125654 -0.1005232,0.2261772 -0.087958,0.1005232 -0.2261772,0.1005232 -0.125654,0 -0.2261772,-0.1005232 Q 8.0582922,6.8520116 8.0582922,6.7263576 Z M 3.497052,9.7671844 q 0,-0.1382194 0.1005232,-0.2261772 0.1005232,-0.1005232 0.2261772,-0.1005232 0.1382194,0 0.2261772,0.1005232 0.1005232,0.087958 0.1005232,0.2261772 0,0.125654 -0.1005232,0.2261772 -0.087958,0.1005234 -0.2261772,0.1005234 -0.125654,0 -0.2261772,-0.1005234 Q 3.497052,9.8928384 3.497052,9.7671844 Z m 0,-2.1109872 q 0,-0.1382194 0.1005232,-0.2261772 0.1005232,-0.1005232 0.2261772,-0.1005232 0.1382194,0 0.2261772,0.1005232 0.1005232,0.087958 0.1005232,0.2261772 0,0.125654 -0.1005232,0.2261772 -0.087958,0.1005232 -0.2261772,0.1005232 -0.125654,0 -0.2261772,-0.1005232 Q 3.497052,7.7818512 3.497052,7.6561972 Z m 5.151814,2.1109872 q 0,-0.1382194 0.1005232,-0.2261772 0.1005232,-0.1005232 0.2261772,-0.1005232 0.1382194,0 0.2261772,0.1005232 0.1005232,0.087958 0.1005232,0.2261772 0,0.125654 -0.1005232,0.2261772 -0.087958,0.1005234 -0.2261772,0.1005234 -0.125654,0 -0.2261772,-0.1005234 Q 8.648866,9.8928384 8.648866,9.7671844 Z m 0,-2.1109872 q 0,-0.1382194 0.1005232,-0.2261772 0.1005232,-0.1005232 0.2261772,-0.1005232 0.1382194,0 0.2261772,0.1005232 0.1005232,0.087958 0.1005232,0.2261772 0,0.125654 -0.1005232,0.2261772 -0.087958,0.1005232 -0.2261772,0.1005232 -0.125654,0 -0.2261772,-0.1005232 Q 8.648866,7.7818512 8.648866,7.6561972 Z m 5.013593,-2.387426 -0.06283,0.125654 h -1.482717 v 4.7622868 l -0.125654,0.06283 -0.904709,-0.46492 V 5.3944252 H 9.9682311 L 9.6917923,4.665632 9.7546193,4.5525434 H 13.38602 Z"
       id="text2"
       aria-label="ਾ" />
  </g>
</svg>
