<?xml version="1.0" encoding="UTF-8" standalone="no"?>
<!-- Created with Inkscape (http://www.inkscape.org/) -->

<svg
   width="64"
   height="64"
   viewBox="0 0 16.933333 16.933333"
   version="1.1"
   id="svg5"
   sodipodi:docname="Gurmukhi ਛ.svg"
   inkscape:version="1.3 (0e150ed6c4, 2023-07-21)"
   xmlns:inkscape="http://www.inkscape.org/namespaces/inkscape"
   xmlns:sodipodi="http://sodipodi.sourceforge.net/DTD/sodipodi-0.dtd"
   xmlns="http://www.w3.org/2000/svg"
   xmlns:svg="http://www.w3.org/2000/svg">
  <sodipodi:namedview
     id="namedview7"
     pagecolor="#505050"
     bordercolor="#eeeeee"
     borderopacity="1"
     inkscape:showpageshadow="0"
     inkscape:pageopacity="0"
     inkscape:pagecheckerboard="0"
     inkscape:deskcolor="#505050"
     inkscape:document-units="mm"
     showgrid="false"
     inkscape:zoom="6.7277217"
     inkscape:cx="39.314944"
     inkscape:cy="42.287718"
     inkscape:window-width="1920"
     inkscape:window-height="991"
     inkscape:window-x="-9"
     inkscape:window-y="-9"
     inkscape:window-maximized="1"
     inkscape:current-layer="layer1" />
  <defs
     id="defs2" />
  <g
     inkscape:label="Layer 1"
     inkscape:groupmode="layer"
     id="layer1">
    <path
       style="font-size:12.5654px;line-height:0.95;font-family:'Noto Serif Gurmukhi';-inkscape-font-specification:'Noto Serif Gurmukhi';stroke-width:0.314136"
       d="m 7.6310674,7.43002 q -0.7287932,0 -1.0806244,0.2387426 -0.3518312,0.2261772 -0.3518312,0.62827 0,0.314135 0.1759156,0.5403122 0.1759156,0.2261772 0.4272236,0.3643966 0.3895274,-0.125654 0.9172742,-0.188481 0.5277468,-0.062827 1.0554936,-0.062827 1.193713,0 1.9099412,0.2638734 0.728793,0.2638734 1.055493,0.7162278 0.326701,0.4397894 0.326701,1.0052324 0,0.6534 -0.414659,1.11832 -0.402092,0.46492 -1.143451,0.703663 -0.7287932,0.238742 -1.7214598,0.238742 -1.1057552,0 -1.9099408,-0.289004 Q 6.0729578,12.431049 5.6457342,11.953564 5.2185106,11.463513 5.2185106,10.87294 q 0,-0.439789 0.2261772,-0.804186 Q 5.670865,9.7043574 6.1483502,9.4530494 5.7462574,9.2017414 5.4949494,8.8499102 5.2562068,8.4855136 5.2562068,8.0205938 q 0,-0.6659662 0.5403122,-1.068059 Q 6.3368312,6.550442 7.4048902,6.550442 H 10.345194 V 5.3944252 H 4.1504516 L 3.8740128,4.665632 3.9368398,4.5525434 h 8.8460412 l 0.276439,0.7162278 -0.05026,0.125654 H 11.325295 V 7.1284504 L 11.073987,7.43002 Z m 2.3371644,2.324599 q -0.5528776,0 -0.8670126,0.376962 -0.3015696,0.364397 -0.3015696,0.879578 0,0.276439 0.1005232,0.565443 0.1130886,0.289004 0.3267004,0.540312 0.9424048,-0.07539 1.4450208,-0.414658 0.502616,-0.351831 0.502616,-0.892143 0,-0.326701 -0.16335,-0.565443 Q 10.84781,10.005927 10.571371,9.880273 10.294932,9.754619 9.9682318,9.754619 Z m -3.8701432,1.231409 q 0,0.502616 0.5403122,0.841882 0.5528776,0.3267 1.7340252,0.3267 H 8.4855146 Q 8.2593374,11.865606 8.1462488,11.538906 8.0331602,11.19964 8.0331602,10.860374 q 0,-0.364396 0.1507848,-0.665966 Q 8.3347298,9.8928384 8.6362994,9.754619 7.4425864,9.7294882 6.7640548,10.068754 6.0980886,10.40802 6.0980886,10.986028 Z"
       id="text2"
       aria-label="ਛ" />
  </g>
</svg>
