<?xml version="1.0" encoding="UTF-8" standalone="no"?>
<!-- Created with Inkscape (http://www.inkscape.org/) -->

<svg
   width="64"
   height="64"
   viewBox="0 0 16.933333 16.933333"
   version="1.1"
   id="svg5"
   sodipodi:docname="Gurmukhi ਥ.svg"
   inkscape:version="1.3 (0e150ed6c4, 2023-07-21)"
   xmlns:inkscape="http://www.inkscape.org/namespaces/inkscape"
   xmlns:sodipodi="http://sodipodi.sourceforge.net/DTD/sodipodi-0.dtd"
   xmlns="http://www.w3.org/2000/svg"
   xmlns:svg="http://www.w3.org/2000/svg">
  <sodipodi:namedview
     id="namedview7"
     pagecolor="#505050"
     bordercolor="#eeeeee"
     borderopacity="1"
     inkscape:showpageshadow="0"
     inkscape:pageopacity="0"
     inkscape:pagecheckerboard="0"
     inkscape:deskcolor="#505050"
     inkscape:document-units="mm"
     showgrid="false"
     inkscape:zoom="6.7277217"
     inkscape:cx="39.314944"
     inkscape:cy="42.287718"
     inkscape:window-width="1920"
     inkscape:window-height="991"
     inkscape:window-x="-9"
     inkscape:window-y="-9"
     inkscape:window-maximized="1"
     inkscape:current-layer="layer1" />
  <defs
     id="defs2" />
  <g
     inkscape:label="Layer 1"
     inkscape:groupmode="layer"
     id="layer1">
    <path
       style="font-size:12.5654px;line-height:0.95;font-family:'Noto Serif Gurmukhi';-inkscape-font-specification:'Noto Serif Gurmukhi';stroke-width:0.314136"
       d="M 7.0216458,7.2792352 H 10.200692 V 7.9577668 H 7.0719074 Z m 5.7172572,-2.010464 -0.05026,0.125654 h -1.495282 v 7.2753668 l -0.113089,0.06283 -0.917274,-0.46492 v -1.897375 q -0.3141351,0.389527 -0.7664895,0.552877 -0.4523544,0.16335 -0.8921434,0.16335 -0.5026161,0 -0.9801013,-0.188481 Q 7.0467766,10.697024 6.6321184,10.370324 6.2174602,10.031058 5.8907598,9.6038342 5.5766248,9.1766106 5.3755784,8.7242562 5.8153674,8.2719018 6.1043716,7.7567204 6.3933758,7.241539 6.3933758,6.6258344 q 0,-0.2890042 -0.087958,-0.6031392 -0.075392,-0.314135 -0.251308,-0.62827 H 4.4708696 L 4.1944308,4.665632 4.2572578,4.5525434 H 12.462464 Z M 10.162996,9.000695 V 5.3944252 H 6.8331648 q 0.2638734,0.4774852 0.3895274,0.9172742 0.1382194,0.4272236 0.1382194,0.8418818 0,0.5403122 -0.2261772,1.0429282 -0.2261772,0.502616 -0.6659662,0.9549704 0.188481,0.2638734 0.4523544,0.502616 0.2638734,0.2261772 0.5905738,0.3769622 0.3392658,0.138219 0.7413586,0.138219 0.5528777,0 1.0806245,-0.289004 0.5403122,-0.2890042 0.8293165,-0.879578 z"
       id="text2"
       aria-label="ਥ" />
  </g>
</svg>
