<?xml version="1.0" encoding="UTF-8" standalone="no"?>
<!-- Created with Inkscape (http://www.inkscape.org/) -->

<svg
   width="64"
   height="64"
   viewBox="0 0 16.933333 16.933333"
   version="1.1"
   id="svg5"
   sodipodi:docname="Gurmukhi ੀ.svg"
   inkscape:version="1.3 (0e150ed6c4, 2023-07-21)"
   xmlns:inkscape="http://www.inkscape.org/namespaces/inkscape"
   xmlns:sodipodi="http://sodipodi.sourceforge.net/DTD/sodipodi-0.dtd"
   xmlns="http://www.w3.org/2000/svg"
   xmlns:svg="http://www.w3.org/2000/svg">
  <sodipodi:namedview
     id="namedview7"
     pagecolor="#505050"
     bordercolor="#eeeeee"
     borderopacity="1"
     inkscape:showpageshadow="0"
     inkscape:pageopacity="0"
     inkscape:pagecheckerboard="0"
     inkscape:deskcolor="#505050"
     inkscape:document-units="mm"
     showgrid="false"
     inkscape:zoom="6.7277217"
     inkscape:cx="37.38264"
     inkscape:cy="40.94997"
     inkscape:window-width="1920"
     inkscape:window-height="991"
     inkscape:window-x="-9"
     inkscape:window-y="-9"
     inkscape:window-maximized="1"
     inkscape:current-layer="layer1" />
  <defs
     id="defs2" />
  <g
     inkscape:label="Layer 1"
     inkscape:groupmode="layer"
     id="layer1">
    <path
       style="font-size:12.5654px;line-height:0.95;font-family:'Noto Serif Gurmukhi';-inkscape-font-specification:'Noto Serif Gurmukhi';stroke-width:0.314136"
       d="m 5.1619675,5.8090834 q 0.1382194,0 0.2261772,0.1005232 0.1005232,0.087958 0.1005232,0.2261772 0,0.125654 -0.1005232,0.2261772 -0.087958,0.1005232 -0.2261772,0.1005232 -0.125654,0 -0.2261772,-0.1005232 -0.1005232,-0.1005232 -0.1005232,-0.2261772 0,-0.1382194 0.1005232,-0.2261772 0.1005232,-0.1005232 0.2261772,-0.1005232 z m 2.1109872,0 q 0.1382194,0 0.2261772,0.1005232 0.1005232,0.087958 0.1005232,0.2261772 0,0.125654 -0.1005232,0.2261772 -0.087958,0.1005232 -0.2261772,0.1005232 -0.125654,0 -0.2261772,-0.1005232 -0.1005232,-0.1005232 -0.1005232,-0.2261772 0,-0.1382194 0.1005232,-0.2261772 Q 7.1473007,5.8090834 7.2729547,5.8090834 Z M 5.1619675,10.960897 q 0.1382194,0 0.2261772,0.100524 0.1005232,0.08796 0.1005232,0.226177 0,0.125654 -0.1005232,0.226177 -0.087958,0.100523 -0.2261772,0.100523 -0.125654,0 -0.2261772,-0.100523 -0.1005232,-0.100523 -0.1005232,-0.226177 0,-0.13822 0.1005232,-0.226177 0.1005232,-0.100524 0.2261772,-0.100524 z m 2.1109872,0 q 0.1382194,0 0.2261772,0.100524 0.1005232,0.08796 0.1005232,0.226177 0,0.125654 -0.1005232,0.226177 -0.087958,0.100523 -0.2261772,0.100523 -0.125654,0 -0.2261772,-0.100523 -0.1005232,-0.100523 -0.1005232,-0.226177 0,-0.13822 0.1005232,-0.226177 0.1005232,-0.100524 0.2261772,-0.100524 z M 6.2174611,5.5829062 q 0.1382194,0 0.2261772,0.1005232 0.1005232,0.087958 0.1005232,0.2261772 0,0.125654 -0.1005232,0.2261772 -0.087958,0.1005232 -0.2261772,0.1005232 -0.125654,0 -0.2261772,-0.1005232 -0.1005232,-0.1005232 -0.1005232,-0.2261772 0,-0.1382194 0.1005232,-0.2261772 0.1005232,-0.1005232 0.2261772,-0.1005232 z m 0,5.6041688 q 0.1382194,0 0.2261772,0.100523 0.1005232,0.08796 0.1005232,0.226177 0,0.125654 -0.1005232,0.226177 -0.087958,0.100523 -0.2261772,0.100523 -0.125654,0 -0.2261772,-0.100523 -0.1005232,-0.100523 -0.1005232,-0.226177 0,-0.138219 0.1005232,-0.226177 0.1005232,-0.100523 0.2261772,-0.100523 z M 3.0886765,8.7116908 q 0,-0.1382194 0.1005232,-0.2261772 0.1005232,-0.1005232 0.2261772,-0.1005232 0.1382194,0 0.2261772,0.1005232 0.1005232,0.087958 0.1005232,0.2261772 0,0.125654 -0.1005232,0.2261772 -0.087958,0.1005232 -0.2261772,0.1005232 -0.125654,0 -0.2261772,-0.1005232 Q 3.0886765,8.8373448 3.0886765,8.7116908 Z m 5.6041685,0 q 0,-0.1382194 0.1005232,-0.2261772 0.1005232,-0.1005232 0.2261772,-0.1005232 0.1382194,0 0.2261772,0.1005232 0.1005232,0.087958 0.1005232,0.2261772 0,0.125654 -0.1005232,0.2261772 -0.087958,0.1005232 -0.2261772,0.1005232 -0.125654,0 -0.2261772,-0.1005232 Q 8.692845,8.8373448 8.692845,8.7116908 Z M 3.9054275,10.697024 q 0,-0.138219 0.1005232,-0.226177 0.1005232,-0.100523 0.2261772,-0.100523 0.1382194,0 0.2261772,0.100523 0.1005232,0.08796 0.1005232,0.226177 0,0.125654 -0.1005232,0.226177 -0.087958,0.100523 -0.2261772,0.100523 -0.125654,0 -0.2261772,-0.100523 -0.1005232,-0.100523 -0.1005232,-0.226177 z m 0,-3.9706664 q 0,-0.1382194 0.1005232,-0.2261772 0.1005232,-0.1005232 0.2261772,-0.1005232 0.1382194,0 0.2261772,0.1005232 0.1005232,0.087958 0.1005232,0.2261772 0,0.125654 -0.1005232,0.2261772 -0.087958,0.1005232 -0.2261772,0.1005232 -0.125654,0 -0.2261772,-0.1005232 Q 3.9054275,6.8520116 3.9054275,6.7263576 Z m 3.9706664,3.9706664 q 0,-0.138219 0.1005232,-0.226177 0.1005232,-0.100523 0.2261772,-0.100523 0.1382194,0 0.2261772,0.100523 0.1005233,0.08796 0.1005233,0.226177 0,0.125654 -0.1005233,0.226177 -0.087958,0.100523 -0.2261772,0.100523 -0.125654,0 -0.2261772,-0.100523 -0.1005232,-0.100523 -0.1005232,-0.226177 z m 0,-3.9706664 q 0,-0.1382194 0.1005232,-0.2261772 0.1005232,-0.1005232 0.2261772,-0.1005232 0.1382194,0 0.2261772,0.1005232 0.1005233,0.087958 0.1005233,0.2261772 0,0.125654 -0.1005233,0.2261772 -0.087958,0.1005232 -0.2261772,0.1005232 -0.125654,0 -0.2261772,-0.1005232 Q 7.8760939,6.8520116 7.8760939,6.7263576 Z M 3.3148537,9.7671844 q 0,-0.1382194 0.1005232,-0.2261772 0.1005232,-0.1005232 0.2261772,-0.1005232 0.1382194,0 0.2261772,0.1005232 0.1005232,0.087958 0.1005232,0.2261772 0,0.125654 -0.1005232,0.2261772 -0.087958,0.1005234 -0.2261772,0.1005234 -0.125654,0 -0.2261772,-0.1005234 Q 3.3148537,9.8928384 3.3148537,9.7671844 Z m 0,-2.1109872 q 0,-0.1382194 0.1005232,-0.2261772 0.1005232,-0.1005232 0.2261772,-0.1005232 0.1382194,0 0.2261772,0.1005232 0.1005232,0.087958 0.1005232,0.2261772 0,0.125654 -0.1005232,0.2261772 -0.087958,0.1005232 -0.2261772,0.1005232 -0.125654,0 -0.2261772,-0.1005232 Q 3.3148537,7.7818512 3.3148537,7.6561972 Z m 5.151814,2.1109872 q 0,-0.1382194 0.1005233,-0.2261772 0.1005232,-0.1005232 0.2261772,-0.1005232 0.1382194,0 0.2261772,0.1005232 0.1005232,0.087958 0.1005232,0.2261772 0,0.125654 -0.1005232,0.2261772 -0.087958,0.1005234 -0.2261772,0.1005234 -0.125654,0 -0.2261772,-0.1005234 Q 8.4666677,9.8928384 8.4666677,9.7671844 Z m 0,-2.1109872 q 0,-0.1382194 0.1005233,-0.2261772 0.1005232,-0.1005232 0.2261772,-0.1005232 0.1382194,0 0.2261772,0.1005232 0.1005232,0.087958 0.1005232,0.2261772 0,0.125654 -0.1005232,0.2261772 -0.087958,0.1005232 -0.2261772,0.1005232 -0.125654,0 -0.2261772,-0.1005232 Q 8.4666677,7.7818512 8.4666677,7.6561972 Z m 5.3779893,-2.387426 -0.06283,0.125654 h -1.532979 v 7.2753668 l -0.125654,0.06283 -0.904709,-0.46492 V 5.3944252 H 9.7734674 L 9.4970286,4.665632 9.5598556,4.5525434 H 11.218488 Q 11.205923,3.9368388 11.1054,3.4467881 11.004877,2.9567375 10.828961,2.6049063 10.627915,2.2028135 10.288649,1.9892017 9.949383,1.7630245 9.5472902,1.7630245 q -0.5905738,0 -0.942405,0.376962 -0.3518312,0.3643966 -0.3518312,0.942405 0,0.2261772 0.075392,0.4774852 0.075392,0.2513081 0.1759156,0.4774853 L 8.441535,4.1378852 H 8.1399654 Q 7.8258304,3.8865772 7.6122186,3.4844843 7.3986068,3.0823915 7.3986068,2.6174717 q 0,-0.502616 0.251308,-0.9047088 0.251308,-0.4020928 0.7036624,-0.6408354 0.439789,-0.23874258 1.005232,-0.23874258 0.6031392,0 1.1308858,0.30156958 0.540312,0.2890042 0.917274,0.8544472 0.339266,0.502616 0.527747,1.1434514 0.201047,0.6408355 0.251308,1.4198903 h 1.382194 z"
       id="text2"
       aria-label="ੀ" />
  </g>
</svg>
