<?xml version="1.0" encoding="UTF-8" standalone="no"?>
<!-- Created with Inkscape (http://www.inkscape.org/) -->

<svg
   width="64"
   height="64"
   viewBox="0 0 16.933333 16.933333"
   version="1.1"
   id="svg5"
   sodipodi:docname="Gurmukhi ਭ.svg"
   inkscape:version="1.3 (0e150ed6c4, 2023-07-21)"
   xmlns:inkscape="http://www.inkscape.org/namespaces/inkscape"
   xmlns:sodipodi="http://sodipodi.sourceforge.net/DTD/sodipodi-0.dtd"
   xmlns="http://www.w3.org/2000/svg"
   xmlns:svg="http://www.w3.org/2000/svg">
  <sodipodi:namedview
     id="namedview7"
     pagecolor="#505050"
     bordercolor="#eeeeee"
     borderopacity="1"
     inkscape:showpageshadow="0"
     inkscape:pageopacity="0"
     inkscape:pagecheckerboard="0"
     inkscape:deskcolor="#505050"
     inkscape:document-units="mm"
     showgrid="false"
     inkscape:zoom="6.7277217"
     inkscape:cx="37.38264"
     inkscape:cy="40.94997"
     inkscape:window-width="1920"
     inkscape:window-height="991"
     inkscape:window-x="-9"
     inkscape:window-y="-9"
     inkscape:window-maximized="1"
     inkscape:current-layer="layer1" />
  <defs
     id="defs2" />
  <g
     inkscape:label="Layer 1"
     inkscape:groupmode="layer"
     id="layer1">
    <path
       style="font-size:12.5654px;line-height:0.95;font-family:'Noto Serif Gurmukhi';-inkscape-font-specification:'Noto Serif Gurmukhi';stroke-width:0.314136"
       d="m 12.66351,5.2687712 -0.05026,0.125654 h -1.759156 q 0.05026,0.2136118 0.07539,0.4272236 0.02513,0.2010464 0.02513,0.4020928 0,0.5780084 -0.150785,1.130886 -0.150785,0.5528776 -0.439789,0.9675358 0.389527,0.4146582 0.640835,0.9298396 0.251308,0.5151814 0.251308,1.105755 0,0.703663 -0.364396,1.243975 -0.364397,0.527747 -1.0177977,0.816751 -0.6408354,0.289004 -1.4827172,0.289004 -0.6785316,0 -1.2691054,-0.188481 -0.5905738,-0.175916 -1.0429282,-0.46492 -0.439789,-0.289004 -0.691097,-0.603139 -0.251308,-0.3267 -0.251308,-0.603139 0,-0.08796 0.025131,-0.175916 0.025131,-0.08796 0.075392,-0.16335 0.691097,0.640835 1.4198902,0.967536 0.7287932,0.314135 1.507848,0.314135 0.9801012,0 1.5832404,-0.490051 0.6031397,-0.49005 0.6031397,-1.25654 0,-0.603139 -0.4397895,-1.1560166 -0.4272236,0.502616 -1.005232,0.7916202 -0.5780084,0.2890042 -1.2314092,0.2890042 -0.565443,0 -1.0554936,-0.2136118 Q 6.1295021,9.5284418 5.8279325,9.1389144 5.5263629,8.749387 5.5263629,8.2342056 q 0,-0.4272236 0.2136118,-0.7790548 0.2136118,-0.3643966 0.62827,-0.5780084 0.4272236,-0.2136118 1.0177974,-0.2136118 0.6157046,0 1.2062784,0.2387426 0.6031392,0.2387426 1.1057552,0.7287932 0.125654,-0.2764388 0.188481,-0.5905738 0.075392,-0.314135 0.075392,-0.6534008 0,-0.2387426 -0.037696,-0.4900506 -0.025131,-0.251308 -0.1130886,-0.502616 H 4.5462617 L 4.2698229,4.665632 4.3326499,4.5525434 h 8.0544211 z m -5.1141177,4.020928 q 0.565443,0 1.0429282,-0.2764388 Q 9.0823711,8.7242562 9.4090715,8.2342056 8.9692825,7.8321128 8.5169281,7.6436318 8.0645737,7.4425854 7.6122193,7.4425854 q -0.4272236,0 -0.7036624,0.1507848 -0.2638734,0.1382194 -0.4020928,0.3643966 -0.125654,0.2261772 -0.125654,0.4523544 0,0.2890042 0.1633502,0.4900506 0.1633502,0.188481 0.4272236,0.2890042 0.2638734,0.1005232 0.5780084,0.1005232 z"
       id="text2"
       aria-label="ਭ" />
  </g>
</svg>
