<?xml version="1.0" encoding="UTF-8" standalone="no"?>
<!-- Created with Inkscape (http://www.inkscape.org/) -->

<svg
   width="64"
   height="64"
   viewBox="0 0 16.933333 16.933333"
   version="1.1"
   id="svg5"
   sodipodi:docname="Gurmukhi ਈ.svg"
   inkscape:version="1.3 (0e150ed6c4, 2023-07-21)"
   xmlns:inkscape="http://www.inkscape.org/namespaces/inkscape"
   xmlns:sodipodi="http://sodipodi.sourceforge.net/DTD/sodipodi-0.dtd"
   xmlns="http://www.w3.org/2000/svg"
   xmlns:svg="http://www.w3.org/2000/svg">
  <sodipodi:namedview
     id="namedview7"
     pagecolor="#505050"
     bordercolor="#eeeeee"
     borderopacity="1"
     inkscape:showpageshadow="0"
     inkscape:pageopacity="0"
     inkscape:pagecheckerboard="0"
     inkscape:deskcolor="#505050"
     inkscape:document-units="mm"
     showgrid="false"
     inkscape:zoom="4.7572177"
     inkscape:cx="51.816002"
     inkscape:cy="24.489104"
     inkscape:window-width="1920"
     inkscape:window-height="991"
     inkscape:window-x="-9"
     inkscape:window-y="-9"
     inkscape:window-maximized="1"
     inkscape:current-layer="layer1" />
  <defs
     id="defs2" />
  <g
     inkscape:label="Layer 1"
     inkscape:groupmode="layer"
     id="layer1">
    <path
       style="font-size:12.5654px;line-height:0.95;font-family:'Noto Serif Gurmukhi';-inkscape-font-specification:'Noto Serif Gurmukhi';stroke-width:0.314136"
       d="m 8.5671899,8.68656 q -1.1811476,0 -2.1863796,0.4020928 -1.005232,0.4020928 -1.633502,1.1434512 0.3015696,0.46492 0.7162278,0.804186 0.4272236,0.339266 0.9047088,0.527747 0.4900506,0.175915 0.9549704,0.175915 0.6408354,0 1.1811476,-0.263873 0.5528776,-0.263874 0.942405,-0.691097 h 0.1382194 l 0.5528777,0.779055 q -0.4397891,0.502616 -1.0680591,0.829316 -0.6157046,0.3267 -1.4073248,0.3267 -0.6534008,0 -1.25654,-0.238742 Q 5.8028019,12.242568 5.2876205,11.840475 4.7724391,11.425817 4.3829116,10.923201 4.0059496,10.40802 3.7923378,9.8677076 4.2321268,9.2394376 4.8603969,8.7870832 5.5012323,8.3347288 6.2300255,8.1462478 5.6017555,8.0205938 5.1494011,7.7315896 4.7096121,7.4425854 4.4331732,7.0656234 4.1567344,6.676096 4.018515,6.2488724 3.892861,5.8090834 3.8677302,5.3944252 H 2.7242788 L 2.44784,4.665632 2.510667,4.5525434 h 8.443949 l 0.276439,0.7162278 -0.05026,0.125654 H 9.4593333 v 3.015696 L 9.2331561,8.68656 Z M 8.4289705,5.3944252 H 4.9357893 q 0,0.4649198 0.1382194,0.9047088 0.1507848,0.439789 0.4523544,0.7916202 0.314135,0.3392658 0.8041856,0.5403122 0.4900506,0.2010464 1.1811476,0.2010464 h 0.9172742 z m 6.0565225,-0.125654 -0.06283,0.125654 h -1.532978 v 7.2753668 l -0.125654,0.06283 -0.904709,-0.46492 V 5.3944252 H 10.414304 L 10.137865,4.665632 10.200692,4.5525434 h 1.658633 Q 11.846759,3.9368388 11.746236,3.4467881 11.645713,2.9567375 11.469797,2.6049063 11.268751,2.2028135 10.929485,1.9892017 10.590219,1.7630245 10.188127,1.7630245 q -0.5905743,0 -0.9424055,0.376962 -0.3518312,0.3643966 -0.3518312,0.942405 0,0.2261772 0.075392,0.4774852 0.075392,0.2513081 0.1759156,0.4774853 L 9.0823713,4.1378852 H 8.7808017 Q 8.4666667,3.8865772 8.2530549,3.4844843 8.0394431,3.0823915 8.0394431,2.6174717 q 0,-0.502616 0.251308,-0.9047088 0.251308,-0.4020928 0.691097,-0.6408354 0.4523544,-0.23874258 1.0177974,-0.23874258 0.6031395,0 1.1308865,0.30156958 0.540312,0.2890042 0.917274,0.8544472 0.339266,0.502616 0.527747,1.1434514 0.201046,0.6408355 0.251308,1.4198903 h 1.382194 z"
       id="text2"
       aria-label="ਈ" />
  </g>
</svg>
