<?xml version="1.0" encoding="UTF-8" standalone="no"?>
<!-- Created with Inkscape (http://www.inkscape.org/) -->

<svg
   width="64"
   height="64"
   viewBox="0 0 16.933333 16.933333"
   version="1.1"
   id="svg5"
   sodipodi:docname="Gurmukhi ਚ.svg"
   inkscape:version="1.3 (0e150ed6c4, 2023-07-21)"
   xmlns:inkscape="http://www.inkscape.org/namespaces/inkscape"
   xmlns:sodipodi="http://sodipodi.sourceforge.net/DTD/sodipodi-0.dtd"
   xmlns="http://www.w3.org/2000/svg"
   xmlns:svg="http://www.w3.org/2000/svg">
  <sodipodi:namedview
     id="namedview7"
     pagecolor="#505050"
     bordercolor="#eeeeee"
     borderopacity="1"
     inkscape:showpageshadow="0"
     inkscape:pageopacity="0"
     inkscape:pagecheckerboard="0"
     inkscape:deskcolor="#505050"
     inkscape:document-units="mm"
     showgrid="false"
     inkscape:zoom="6.7277217"
     inkscape:cx="39.314944"
     inkscape:cy="42.287718"
     inkscape:window-width="1920"
     inkscape:window-height="991"
     inkscape:window-x="-9"
     inkscape:window-y="-9"
     inkscape:window-maximized="1"
     inkscape:current-layer="layer1" />
  <defs
     id="defs2" />
  <g
     inkscape:label="Layer 1"
     inkscape:groupmode="layer"
     id="layer1">
    <path
       style="font-size:12.5654px;line-height:0.95;font-family:'Noto Serif Gurmukhi';-inkscape-font-specification:'Noto Serif Gurmukhi';stroke-width:0.314136"
       d="m 12.770316,5.2687712 -0.05026,0.125654 h -1.495282 v 5.0512908 q 0,1.243975 -0.414658,1.796852 -0.402093,0.552878 -1.2062788,0.552878 -0.6785316,0 -1.2816708,-0.351831 Q 7.7315906,12.091783 7.2541054,11.50121 6.7766202,10.910636 6.4499198,10.181843 6.1232194,9.4530494 5.9975654,8.6991254 H 5.8593459 q -0.2890042,0 -0.4523544,-0.1130886 -0.1633502,-0.125654 -0.1633502,-0.3267004 0,-0.2010464 0.1382194,-0.4272236 Q 5.5200801,7.5933702 5.7211265,7.3923238 5.9347383,7.1912774 6.173481,7.0656234 6.4122236,6.9399694 6.61327,6.9399694 q 0.2136118,0 0.3015696,0.1633502 0.1005232,0.1633502 0.1005232,0.4523544 V 7.8446782 H 10.194409 V 5.3944252 H 4.4394557 L 4.1630169,4.665632 4.2258439,4.5525434 H 12.493877 Z M 9.252004,12.003826 q 0.5277468,0 0.7287932,-0.402093 0.2136118,-0.414658 0.2136118,-1.181148 V 8.5734714 H 7.0153628 q 0.1005232,0.9172742 0.4272236,1.7088946 0.3267004,0.779055 0.8041856,1.25654 0.4774852,0.46492 1.005232,0.46492 z"
       id="text2"
       aria-label="ਚ" />
  </g>
</svg>
