<?xml version="1.0" encoding="UTF-8" standalone="no"?>
<!-- Created with Inkscape (http://www.inkscape.org/) -->

<svg
   width="64"
   height="64"
   viewBox="0 0 16.933333 16.933333"
   version="1.1"
   id="svg5"
   sodipodi:docname="Gurmukhi ਨ.svg"
   inkscape:version="1.3 (0e150ed6c4, 2023-07-21)"
   xmlns:inkscape="http://www.inkscape.org/namespaces/inkscape"
   xmlns:sodipodi="http://sodipodi.sourceforge.net/DTD/sodipodi-0.dtd"
   xmlns="http://www.w3.org/2000/svg"
   xmlns:svg="http://www.w3.org/2000/svg">
  <sodipodi:namedview
     id="namedview7"
     pagecolor="#505050"
     bordercolor="#eeeeee"
     borderopacity="1"
     inkscape:showpageshadow="0"
     inkscape:pageopacity="0"
     inkscape:pagecheckerboard="0"
     inkscape:deskcolor="#505050"
     inkscape:document-units="mm"
     showgrid="false"
     inkscape:zoom="6.7277217"
     inkscape:cx="39.314944"
     inkscape:cy="42.287718"
     inkscape:window-width="1920"
     inkscape:window-height="991"
     inkscape:window-x="-9"
     inkscape:window-y="-9"
     inkscape:window-maximized="1"
     inkscape:current-layer="layer1" />
  <defs
     id="defs2" />
  <g
     inkscape:label="Layer 1"
     inkscape:groupmode="layer"
     id="layer1">
    <path
       style="font-size:12.5654px;line-height:0.95;font-family:'Noto Serif Gurmukhi';-inkscape-font-specification:'Noto Serif Gurmukhi';stroke-width:0.314136"
       d="M 12.657228,5.3944252 H 9.1137848 v 1.9978986 q 0.7413587,0.376962 1.3570632,0.9047088 0.615705,0.5151814 0.992667,1.130886 0.376962,0.6157044 0.376962,1.3193674 0,0.615704 -0.289005,1.055493 -0.276438,0.439789 -0.829316,0.653401 -0.552878,0.213612 -1.3696286,0.175916 l -0.125654,-0.150785 v -0.879578 q 0.8921436,0.02513 1.3444976,-0.289004 0.452355,-0.314135 0.452355,-0.816751 0,-0.351832 -0.201047,-0.7162282 Q 10.621633,9.4027878 10.282367,9.063522 9.9431013,8.7242562 9.528443,8.4478174 9.1263502,8.1713786 8.7242574,8.0080284 8.1965106,8.1713786 7.6938946,8.4478174 7.1912786,8.7242562 6.7891858,9.063522 6.387093,9.4027878 6.1483504,9.7797498 5.9096078,10.144146 5.9096078,10.483412 q 0,0.414658 0.2136118,0.665966 0.2261772,0.251308 0.6157046,0.351832 0.4020928,0.100523 0.9172742,0.100523 l 0.1130886,0.16335 v 0.867013 Q 6.7891858,12.669792 6.1860466,12.343091 5.5954728,12.003826 5.3315994,11.463513 5.067726,10.910636 5.067726,10.332627 q 0,-0.4900502 0.2261772,-0.95497 Q 5.5200804,8.9001718 5.9347386,8.4855136 6.3493968,8.0708554 6.9022744,7.7315896 7.4677174,7.3923238 8.1211182,7.1535812 V 5.3944252 H 4.502283 L 4.2258442,4.665632 4.2886712,4.5525434 H 12.43105 l 0.276439,0.7162278 z"
       id="text2"
       aria-label="ਨ" />
  </g>
</svg>
