<?xml version="1.0" encoding="UTF-8" standalone="no"?>
<!-- Created with Inkscape (http://www.inkscape.org/) -->

<svg
   width="64"
   height="64"
   viewBox="0 0 16.933333 16.933333"
   version="1.1"
   id="svg5"
   sodipodi:docname="Gurmukhi ਲ਼.svg"
   inkscape:version="1.3 (0e150ed6c4, 2023-07-21)"
   xmlns:inkscape="http://www.inkscape.org/namespaces/inkscape"
   xmlns:sodipodi="http://sodipodi.sourceforge.net/DTD/sodipodi-0.dtd"
   xmlns="http://www.w3.org/2000/svg"
   xmlns:svg="http://www.w3.org/2000/svg">
  <sodipodi:namedview
     id="namedview7"
     pagecolor="#505050"
     bordercolor="#eeeeee"
     borderopacity="1"
     inkscape:showpageshadow="0"
     inkscape:pageopacity="0"
     inkscape:pagecheckerboard="0"
     inkscape:deskcolor="#505050"
     inkscape:document-units="mm"
     showgrid="false"
     inkscape:zoom="6.7277217"
     inkscape:cx="37.38264"
     inkscape:cy="40.94997"
     inkscape:window-width="1920"
     inkscape:window-height="991"
     inkscape:window-x="-9"
     inkscape:window-y="-9"
     inkscape:window-maximized="1"
     inkscape:current-layer="layer1" />
  <defs
     id="defs2" />
  <g
     inkscape:label="Layer 1"
     inkscape:groupmode="layer"
     id="layer1">
    <path
       style="font-size:12.5654px;line-height:0.95;font-family:'Noto Serif Gurmukhi';-inkscape-font-specification:'Noto Serif Gurmukhi';stroke-width:0.314136"
       d="m 13.536806,5.3944252 h -3.27957 Q 10.169278,5.8844758 10.031059,6.424788 9.905405,6.9525348 9.6917932,7.4802816 10.21954,7.8321128 10.646764,8.2844672 q 0.439789,0.4523544 0.703662,1.005232 0.263873,0.5528776 0.263873,1.2062788 0,0.590573 -0.276438,1.080624 -0.263874,0.490051 -0.867013,0.779055 -0.5905738,0.289004 -1.5581096,0.276439 l -0.125654,-0.150785 v -0.879578 q 1.0303628,0.01257 1.5078476,-0.364397 0.477486,-0.376962 0.477486,-0.992666 0,-0.6282704 -0.389528,-1.1685826 Q 9.9933628,8.5232098 9.402789,8.1336824 9.1137848,8.749387 8.7368228,9.3399608 8.3724262,9.9179692 7.9075064,10.420585 7.5054136,9.9807962 7.1661477,9.4530494 6.8268819,8.9127372 6.5504431,8.3347288 5.9473039,8.68656 5.5326457,9.189176 5.1305529,9.6792266 5.1305529,10.307497 q 0,0.414658 0.2387426,0.716227 0.2387426,0.289005 0.6659662,0.439789 0.4272236,0.13822 1.005232,0.13822 l 0.1130886,0.16335 v 0.867013 Q 6.3996583,12.669792 5.8593461,12.45618 5.3190339,12.242568 4.9672027,11.878172 4.6153715,11.50121 4.4520213,11.048855 4.2886711,10.596501 4.2886711,10.131581 q 0,-0.8544472 0.4900506,-1.5329788 Q 5.2813377,7.9200706 6.1106541,7.43002 5.9221731,6.9022732 5.7839537,6.3870918 5.6582997,5.859345 5.5954727,5.3944252 H 3.6101395 L 3.3337007,4.665632 3.3965277,4.5525434 h 9.9266663 l 0.276439,0.7162278 z M 7.7944178,9.2017414 Q 8.1588144,8.7368216 8.460384,8.1085516 8.774519,7.4802816 9.0006962,6.7766192 9.2268734,6.0603914 9.339962,5.3944252 H 6.3493967 q 0.062827,0.502616 0.188481,1.0429282 0.1382194,0.5277468 0.3267004,1.0429282 0.2010464,0.502616 0.4272236,0.9549704 0.2387427,0.439789 0.5026161,0.7664894 z m 3.8073162,2.7141266 q 0,-0.289004 0.188481,-0.477485 0.201046,-0.188481 0.490051,-0.188481 0.301569,0 0.49005,0.201046 0.201047,0.201046 0.201047,0.490051 0,0.276438 -0.188481,0.477485 -0.188481,0.201046 -0.490051,0.201046 -0.30157,0 -0.502616,-0.201046 -0.188481,-0.201047 -0.188481,-0.502616 z"
       id="text2"
       aria-label="ਲ਼" />
  </g>
</svg>
