<?xml version="1.0" encoding="UTF-8" standalone="no"?>
<!-- Created with Inkscape (http://www.inkscape.org/) -->

<svg
   width="64"
   height="64"
   viewBox="0 0 16.933333 16.933333"
   version="1.1"
   id="svg5"
   sodipodi:docname="Gurmukhi ਧ.svg"
   inkscape:version="1.3 (0e150ed6c4, 2023-07-21)"
   xmlns:inkscape="http://www.inkscape.org/namespaces/inkscape"
   xmlns:sodipodi="http://sodipodi.sourceforge.net/DTD/sodipodi-0.dtd"
   xmlns="http://www.w3.org/2000/svg"
   xmlns:svg="http://www.w3.org/2000/svg">
  <sodipodi:namedview
     id="namedview7"
     pagecolor="#505050"
     bordercolor="#eeeeee"
     borderopacity="1"
     inkscape:showpageshadow="0"
     inkscape:pageopacity="0"
     inkscape:pagecheckerboard="0"
     inkscape:deskcolor="#505050"
     inkscape:document-units="mm"
     showgrid="false"
     inkscape:zoom="6.7277217"
     inkscape:cx="39.314944"
     inkscape:cy="42.287718"
     inkscape:window-width="1920"
     inkscape:window-height="991"
     inkscape:window-x="-9"
     inkscape:window-y="-9"
     inkscape:window-maximized="1"
     inkscape:current-layer="layer1" />
  <defs
     id="defs2" />
  <g
     inkscape:label="Layer 1"
     inkscape:groupmode="layer"
     id="layer1">
    <path
       style="font-size:12.5654px;line-height:0.95;font-family:'Noto Serif Gurmukhi';-inkscape-font-specification:'Noto Serif Gurmukhi';stroke-width:0.314136"
       d="m 12.682359,5.2687712 -0.06283,0.125654 h -1.482718 v 7.2753668 l -0.125654,0.06283 -0.917274,-0.46492 v -1.922506 q -0.3015694,0.351831 -0.7162276,0.502616 -0.4146582,0.138219 -0.816751,0.138219 -0.502616,0 -0.9801013,-0.188481 Q 7.1033209,10.596501 6.6886627,10.2698 6.2740045,9.9305346 5.9473041,9.503311 5.6331691,9.0760874 5.4321227,8.623733 5.8719117,8.1713786 6.1609159,7.6561972 6.4499201,7.1410158 6.4499201,6.5253112 q 0,-0.2638734 -0.075392,-0.5528776 Q 6.3117007,5.6834294 6.1357851,5.3944252 H 4.5274139 L 4.2509751,4.665632 4.3138021,4.5525434 H 12.40592 Z M 10.093886,9.063522 V 5.3944252 H 6.9399707 q 0.251308,0.4523544 0.3643966,0.8670126 0.1130886,0.4020928 0.1130886,0.7916202 0,0.5403122 -0.2261772,1.0429282 -0.2261772,0.502616 -0.6659662,0.9549704 0.188481,0.2638734 0.4523544,0.502616 0.2638734,0.2261772 0.5905738,0.376962 0.3392658,0.1382194 0.7413587,0.1382194 0.5151814,0 1.005232,-0.251308 Q 9.804882,9.566138 10.093886,9.063522 Z"
       id="text2"
       aria-label="ਧ" />
  </g>
</svg>
