<?xml version="1.0" encoding="UTF-8" standalone="no"?>
<!-- Created with Inkscape (http://www.inkscape.org/) -->

<svg
   width="64"
   height="64"
   viewBox="0 0 16.933333 16.933333"
   version="1.1"
   id="svg5"
   sodipodi:docname="Gurmukhi ਆ.svg"
   inkscape:version="1.3 (0e150ed6c4, 2023-07-21)"
   xmlns:inkscape="http://www.inkscape.org/namespaces/inkscape"
   xmlns:sodipodi="http://sodipodi.sourceforge.net/DTD/sodipodi-0.dtd"
   xmlns="http://www.w3.org/2000/svg"
   xmlns:svg="http://www.w3.org/2000/svg">
  <sodipodi:namedview
     id="namedview7"
     pagecolor="#505050"
     bordercolor="#eeeeee"
     borderopacity="1"
     inkscape:showpageshadow="0"
     inkscape:pageopacity="0"
     inkscape:pagecheckerboard="0"
     inkscape:deskcolor="#505050"
     inkscape:document-units="mm"
     showgrid="false"
     inkscape:zoom="4.7572177"
     inkscape:cx="51.816002"
     inkscape:cy="24.489104"
     inkscape:window-width="1920"
     inkscape:window-height="991"
     inkscape:window-x="-9"
     inkscape:window-y="-9"
     inkscape:window-maximized="1"
     inkscape:current-layer="layer1" />
  <defs
     id="defs2" />
  <g
     inkscape:label="Layer 1"
     inkscape:groupmode="layer"
     id="layer1">
    <path
       style="font-size:12.5654px;line-height:0.95;font-family:'Noto Serif Gurmukhi';-inkscape-font-specification:'Noto Serif Gurmukhi';stroke-width:0.314136"
       d="m 12.223721,5.2687712 -0.05026,0.125654 h -1.495283 v 7.2753668 l -0.113088,0.06283 -0.9172747,-0.46492 V 7.7818512 Q 9.3085485,7.995463 8.9315865,8.2719018 8.5546245,8.5483406 8.2027933,8.8499102 7.8635275,9.1389144 7.5870887,9.4153532 7.5116963,9.8048806 7.3483461,10.206973 q -0.1507848,0.402093 -0.3643966,0.728794 -0.2010464,0.3267 -0.4523544,0.527746 -0.2387426,0.201047 -0.4774852,0.201047 -0.2638734,0 -0.4272236,-0.175916 -0.1507848,-0.188481 -0.1507848,-0.46492 0,-0.289004 0.1633502,-0.6534 Q 5.8153673,9.9933616 6.0792407,9.6163996 6.3556795,9.2394376 6.6572491,8.937868 6.7577723,8.3347288 6.7075107,7.618501 6.6698145,6.8897078 6.4938989,6.236307 5.9787175,6.613269 5.4761015,7.0656234 4.9860509,7.5179778 4.5965235,7.9703322 4.5462619,8.372425 4.3954771,8.7619524 4.2572577,9.1389144 4.0436459,9.4530494 3.8425995,9.7671844 3.6164223,9.9556654 3.3902451,10.144146 3.1766333,10.144146 q -0.2387426,0 -0.4272236,-0.1633498 Q 2.5734941,9.817446 2.5734941,9.503311 q 0,-0.2638734 0.1507848,-0.6031392 Q 2.8750637,8.560906 3.1389371,8.183944 3.4153759,7.806982 3.7672071,7.4425854 3.7797725,6.9776656 3.6541185,6.424788 3.5410299,5.859345 3.3651143,5.3944252 H 1.9703549 L 1.6939161,4.665632 1.7567431,4.5525434 h 1.9602024 q 0.1633502,0.314135 0.3015696,0.7162278 0.1507848,0.4020928 0.2764388,0.816751 0.125654,0.4146582 0.188481,0.7664894 Q 4.8101353,6.550442 5.1870973,6.2237416 5.5640593,5.8970412 5.9410213,5.608037 6.3305487,5.3064674 6.6572491,5.0928556 h 0.075392 Q 6.9462533,5.54521 7.1096035,6.110653 7.2855191,6.676096 7.3860423,7.2541044 7.4991309,7.8321128 7.5368271,8.3347288 7.8258313,8.0708554 8.1776625,7.7944166 8.5294937,7.5054124 8.9064557,7.241539 9.2959831,6.9651002 9.6478143,6.7514884 v -2.198945 h 2.2994687 z m 3.015696,0 -0.06283,0.125654 h -1.482717 v 4.7622868 l -0.125654,0.06283 -0.904709,-0.46492 V 5.3944252 H 11.54519 L 11.268751,4.665632 11.331578,4.5525434 h 3.631401 z"
       id="text2"
       aria-label="ਆ" />
  </g>
</svg>
