<?xml version="1.0" encoding="UTF-8" standalone="no"?>
<!-- Created with Inkscape (http://www.inkscape.org/) -->

<svg
   width="64"
   height="64"
   viewBox="0 0 16.933333 16.933333"
   version="1.1"
   id="svg5"
   sodipodi:docname="Gurmukhi ੨.svg"
   inkscape:version="1.3 (0e150ed6c4, 2023-07-21)"
   xmlns:inkscape="http://www.inkscape.org/namespaces/inkscape"
   xmlns:sodipodi="http://sodipodi.sourceforge.net/DTD/sodipodi-0.dtd"
   xmlns="http://www.w3.org/2000/svg"
   xmlns:svg="http://www.w3.org/2000/svg">
  <sodipodi:namedview
     id="namedview7"
     pagecolor="#505050"
     bordercolor="#eeeeee"
     borderopacity="1"
     inkscape:showpageshadow="0"
     inkscape:pageopacity="0"
     inkscape:pagecheckerboard="0"
     inkscape:deskcolor="#505050"
     inkscape:document-units="mm"
     showgrid="false"
     inkscape:zoom="6.7277217"
     inkscape:cx="37.38264"
     inkscape:cy="40.94997"
     inkscape:window-width="1920"
     inkscape:window-height="991"
     inkscape:window-x="-9"
     inkscape:window-y="-9"
     inkscape:window-maximized="1"
     inkscape:current-layer="layer1" />
  <defs
     id="defs2" />
  <g
     inkscape:label="Layer 1"
     inkscape:groupmode="layer"
     id="layer1">
    <path
       style="font-size:12.5654px;line-height:0.95;font-family:'Noto Serif Gurmukhi';-inkscape-font-specification:'Noto Serif Gurmukhi';stroke-width:0.314136"
       d="m 9.2268735,9.6792266 q 0.4020928,0.2890042 0.7664894,0.7790544 0.3643961,0.490051 0.6408351,1.068059 0.276439,0.578009 0.402093,1.143452 l -0.113088,0.100523 -1.1434519,-0.30157 Q 9.7294895,12.079218 9.5410085,11.589167 9.3525275,11.099117 9.0760887,10.646762 8.8122153,10.181843 8.4855149,9.9179692 q -0.2261772,0.062827 -0.502616,0.1005228 -0.2638734,0.02513 -0.5151814,0.02513 -0.4272236,0 -0.753924,-0.087958 Q 6.3996585,9.8551422 6.2237429,9.6792266 6.0478273,9.4907456 6.0478273,9.2268722 q 0,-0.3392658 0.3015696,-0.5151814 0.314135,-0.1759156 0.7413586,-0.1759156 0.6659662,0 1.3444978,0.376962 Q 8.9001731,8.7745178 9.2645697,8.5232098 9.6415317,8.2719018 9.8551435,7.9200706 10.081321,7.5682394 10.081321,7.1284504 10.081321,6.424788 9.5787047,5.984999 9.0886541,5.54521 8.1588145,5.54521 7.8698103,5.54521 7.5179791,5.608037 7.1787133,5.6582986 6.8394475,5.7588218 6.5001817,5.8467796 6.1986121,5.9724336 L 5.8970425,5.0300286 Q 6.4122239,4.7787206 6.9525361,4.665632 7.5054137,4.5525434 7.9452027,4.5525434 q 0.879578,0 1.5455442,0.376962 0.6659661,0.376962 1.0429281,1.005232 0.389528,0.62827 0.389528,1.3947594 0,0.8670126 -0.477486,1.4575864 Q 9.9682321,9.377657 9.2268735,9.6792266 Z"
       id="text2"
       aria-label="੨" />
  </g>
</svg>
