<?xml version="1.0" encoding="UTF-8" standalone="no"?>
<!-- Created with Inkscape (http://www.inkscape.org/) -->

<svg
   width="64"
   height="64"
   viewBox="0 0 16.933333 16.933333"
   version="1.1"
   id="svg5"
   sodipodi:docname="Gurmukhi ੩.svg"
   inkscape:version="1.3 (0e150ed6c4, 2023-07-21)"
   xmlns:inkscape="http://www.inkscape.org/namespaces/inkscape"
   xmlns:sodipodi="http://sodipodi.sourceforge.net/DTD/sodipodi-0.dtd"
   xmlns="http://www.w3.org/2000/svg"
   xmlns:svg="http://www.w3.org/2000/svg">
  <sodipodi:namedview
     id="namedview7"
     pagecolor="#505050"
     bordercolor="#eeeeee"
     borderopacity="1"
     inkscape:showpageshadow="0"
     inkscape:pageopacity="0"
     inkscape:pagecheckerboard="0"
     inkscape:deskcolor="#505050"
     inkscape:document-units="mm"
     showgrid="false"
     inkscape:zoom="6.7277217"
     inkscape:cx="37.38264"
     inkscape:cy="40.94997"
     inkscape:window-width="1920"
     inkscape:window-height="991"
     inkscape:window-x="-9"
     inkscape:window-y="-9"
     inkscape:window-maximized="1"
     inkscape:current-layer="layer1" />
  <defs
     id="defs2" />
  <g
     inkscape:label="Layer 1"
     inkscape:groupmode="layer"
     id="layer1">
    <path
       style="font-size:12.5654px;line-height:0.95;font-family:'Noto Serif Gurmukhi';-inkscape-font-specification:'Noto Serif Gurmukhi';stroke-width:0.314136"
       d="m 9.3713756,12.330526 q 0.3643966,0.276439 0.7413584,0.640835 0.389528,0.376962 0.703663,0.741359 l -0.477486,0.414658 q -0.263873,-0.301569 -0.5905734,-0.615704 -0.314135,-0.30157 -0.6534008,-0.578009 -0.3267004,-0.263873 -0.62827,-0.439789 -0.1382194,0.01257 -0.3015696,0.02513 -0.1507848,0.01257 -0.2890042,0.01257 -0.4523544,0 -0.8921434,-0.113088 -0.439789,-0.113089 -0.7287933,-0.326701 -0.2890042,-0.213611 -0.2890042,-0.502616 0,-0.3267 0.2387426,-0.49005 0.251308,-0.16335 0.6157047,-0.16335 0.3895274,0 0.8921434,0.175915 0.502616,0.175916 0.8921434,0.452355 0.7162278,-0.100524 1.1057552,-0.46492 0.4020926,-0.364397 0.4020926,-0.854447 0,-0.427224 -0.289004,-0.7790552 Q 9.5347258,9.1137836 9.069806,8.9504334 8.7808018,9.0383912 8.4038398,9.1012182 q -0.3643966,0.050262 -0.7287932,0.050262 -0.4020928,0 -0.7287932,-0.075392 Q 6.6321184,9.000695 6.4436373,8.8499102 6.2677217,8.68656 6.2677217,8.435252 q 0,-0.3392658 0.3267005,-0.4900506 0.3392658,-0.1633502 0.8041856,-0.1633502 0.3267004,0 0.7036624,0.075392 0.3895274,0.062827 0.7287932,0.2010464 0.502616,-0.1633502 0.816751,-0.4900506 0.314135,-0.3392658 0.314135,-0.816751 0,-0.565443 -0.4649198,-0.8921434 -0.4649198,-0.3267004 -1.2691054,-0.3267004 -0.5277468,0 -1.0554936,0.125654 -0.5277468,0.1130886 -0.9926667,0.314135 L 5.8781943,5.0174632 Q 6.3808103,4.7787206 6.933688,4.665632 7.4865656,4.5525434 7.9891816,4.5525434 q 0.7790548,0 1.4073248,0.314135 0.6282696,0.3015696 0.9926666,0.8544472 0.376962,0.5403122 0.376962,1.25654 0,0.5277468 -0.276439,0.9675358 -0.263873,0.4272236 -0.7413584,0.7036624 0.5780084,0.251308 0.9424054,0.7664894 0.364396,0.5151814 0.364396,1.1183208 0,0.590574 -0.427223,1.09319 -0.427224,0.49005 -1.2565404,0.703662 z"
       id="text2"
       aria-label="੩" />
  </g>
</svg>
