<?xml version="1.0" encoding="UTF-8" standalone="no"?>
<!-- Created with Inkscape (http://www.inkscape.org/) -->

<svg
   width="64"
   height="64"
   viewBox="0 0 16.933333 16.933333"
   version="1.1"
   id="svg5"
   sodipodi:docname="Gurmukhi ੧.svg"
   inkscape:version="1.3 (0e150ed6c4, 2023-07-21)"
   xmlns:inkscape="http://www.inkscape.org/namespaces/inkscape"
   xmlns:sodipodi="http://sodipodi.sourceforge.net/DTD/sodipodi-0.dtd"
   xmlns="http://www.w3.org/2000/svg"
   xmlns:svg="http://www.w3.org/2000/svg">
  <sodipodi:namedview
     id="namedview7"
     pagecolor="#505050"
     bordercolor="#eeeeee"
     borderopacity="1"
     inkscape:showpageshadow="0"
     inkscape:pageopacity="0"
     inkscape:pagecheckerboard="0"
     inkscape:deskcolor="#505050"
     inkscape:document-units="mm"
     showgrid="false"
     inkscape:zoom="6.7277217"
     inkscape:cx="37.38264"
     inkscape:cy="40.94997"
     inkscape:window-width="1920"
     inkscape:window-height="991"
     inkscape:window-x="-9"
     inkscape:window-y="-9"
     inkscape:window-maximized="1"
     inkscape:current-layer="layer1" />
  <defs
     id="defs2" />
  <g
     inkscape:label="Layer 1"
     inkscape:groupmode="layer"
     id="layer1">
    <path
       style="font-size:12.5654px;line-height:0.95;font-family:'Noto Serif Gurmukhi';-inkscape-font-specification:'Noto Serif Gurmukhi';stroke-width:0.314136"
       d="m 8.3849915,4.5525434 q 0.7036624,0 1.1560168,0.3267004 0.4649197,0.314135 0.7287937,0.8293164 0.263873,0.5151814 0.376962,1.130886 0.113088,0.6031392 0.113088,1.193713 v 4.6366328 l -0.125654,0.06283 -0.9047087,-0.46492 V 9.1640452 q -0.2387426,0.1130886 -0.502616,0.1633502 -0.251308,0.050262 -0.502616,0.050262 -0.4900506,0 -0.9549704,-0.188481 Q 7.3169325,8.9881296 6.9525359,8.6488638 6.6007047,8.2970326 6.3870929,7.8446782 6.1734811,7.3797584 6.1734811,6.8394462 q 0,-0.6031392 0.2764388,-1.1183206 Q 6.7263587,5.1933788 7.2164093,4.8792438 7.7190253,4.5525434 8.3849915,4.5525434 Z m 0.037696,3.9078394 q 0.3392658,0 0.691097,-0.075392 0.3643966,-0.087958 0.6785316,-0.2261772 0.025131,-0.5780084 0,-1.0554936 Q 9.7671855,6.613269 9.6415315,6.2488724 9.5158775,5.8844758 9.2520041,5.6834294 9.0006961,5.482383 8.5609071,5.482383 q -0.3518312,0 -0.7036624,0.2387426 -0.3518312,0.2387426 -0.5780084,0.6157046 -0.2261772,0.376962 -0.2261772,0.816751 0,0.6534008 0.3895274,0.9801012 0.4020928,0.3267004 0.9801012,0.3267004 z"
       id="text2"
       aria-label="੧" />
  </g>
</svg>
