<?xml version="1.0" encoding="UTF-8" standalone="no"?>
<!-- Created with Inkscape (http://www.inkscape.org/) -->

<svg
   width="64"
   height="64"
   viewBox="0 0 16.933333 16.933333"
   version="1.1"
   id="svg5"
   sodipodi:docname="Gurmukhi ੲ.svg"
   inkscape:version="1.3 (0e150ed6c4, 2023-07-21)"
   xmlns:inkscape="http://www.inkscape.org/namespaces/inkscape"
   xmlns:sodipodi="http://sodipodi.sourceforge.net/DTD/sodipodi-0.dtd"
   xmlns="http://www.w3.org/2000/svg"
   xmlns:svg="http://www.w3.org/2000/svg">
  <sodipodi:namedview
     id="namedview7"
     pagecolor="#505050"
     bordercolor="#eeeeee"
     borderopacity="1"
     inkscape:showpageshadow="0"
     inkscape:pageopacity="0"
     inkscape:pagecheckerboard="0"
     inkscape:deskcolor="#505050"
     inkscape:document-units="mm"
     showgrid="false"
     inkscape:zoom="6.7277217"
     inkscape:cx="37.38264"
     inkscape:cy="40.94997"
     inkscape:window-width="1920"
     inkscape:window-height="991"
     inkscape:window-x="-9"
     inkscape:window-y="-9"
     inkscape:window-maximized="1"
     inkscape:current-layer="layer1" />
  <defs
     id="defs2" />
  <g
     inkscape:label="Layer 1"
     inkscape:groupmode="layer"
     id="layer1">
    <path
       style="font-size:12.5654px;line-height:0.95;font-family:'Noto Serif Gurmukhi';-inkscape-font-specification:'Noto Serif Gurmukhi';stroke-width:0.314136"
       d="m 10.194409,8.68656 q -1.1811475,0 -2.1863795,0.4020928 -1.005232,0.4020928 -1.633502,1.1434512 0.3015696,0.46492 0.7162278,0.804186 0.4272236,0.339266 0.9047088,0.527747 0.4900506,0.175915 0.9549704,0.175915 0.6408354,0 1.1811475,-0.263873 0.552878,-0.263874 0.942405,-0.691097 h 0.138219 l 0.552878,0.779055 q -0.439789,0.502616 -1.068059,0.829316 -0.615705,0.3267 -1.4073247,0.3267 -0.6534008,0 -1.25654,-0.238742 Q 7.4300211,12.242568 6.9148397,11.840475 6.3996583,11.425817 6.0101308,10.923201 5.6331688,10.40802 5.419557,9.8677076 5.859346,9.2394376 6.4876161,8.7870832 7.1284515,8.3347288 7.8572447,8.1462478 7.2289747,8.0205938 6.7766203,7.7315896 6.3368313,7.4425854 6.0603924,7.0656234 5.7839536,6.676096 5.6457342,6.2488724 5.5200802,5.8090834 5.4949494,5.3944252 H 4.351498 L 4.0750592,4.665632 4.1378862,4.5525434 h 8.4439488 l 0.276439,0.7162278 -0.05026,0.125654 h -1.72146 v 3.015696 L 10.860375,8.68656 Z M 10.05619,5.3944252 H 6.5630085 q 0,0.4649198 0.1382194,0.9047088 0.1507848,0.439789 0.4523544,0.7916202 0.314135,0.3392658 0.8041856,0.5403122 0.4900506,0.2010464 1.1811476,0.2010464 H 10.05619 Z"
       id="text2"
       aria-label="ੲ" />
  </g>
</svg>
