<?xml version="1.0" encoding="iso-8859-1"?>
<!-- Uploaded to: SVG Repo, www.svgrepo.com, Generator: SVG Repo Mixer Tools -->
<svg height="800px" width="800px" version="1.1" id="Layer_1" xmlns="http://www.w3.org/2000/svg" xmlns:xlink="http://www.w3.org/1999/xlink" 
	 viewBox="0 0 512 512" xml:space="preserve">
<circle style="fill:#FFE991;" cx="256" cy="256" r="256"/>
<circle style="fill:#FBCD18;" cx="256" cy="256" r="227.868"/>
<g>
	<path style="fill:#FFE991;" d="M344.897,391.058h-35.222c-4.661,0-8.44-3.779-8.44-8.44s3.779-8.44,8.44-8.44h35.222
		c4.661,0,8.44,3.779,8.44,8.44S349.558,391.058,344.897,391.058z"/>
	<path style="fill:#FFE991;" d="M202.326,391.058h-35.222c-4.661,0-8.44-3.779-8.44-8.44s3.779-8.44,8.44-8.44h35.222
		c4.661,0,8.44,3.779,8.44,8.44S206.986,391.058,202.326,391.058z"/>
</g>
<g>
	<path style="fill:#FEF7D8;" d="M275.486,445.424h-38.973c-4.661,0-8.44-3.779-8.44-8.44s3.779-8.44,8.44-8.44h38.973
		c4.661,0,8.44,3.779,8.44,8.44S280.147,445.424,275.486,445.424z"/>
	<path style="fill:#FEF7D8;" d="M233.181,335.347c-4.283,1.841-6.261,6.805-4.42,11.086c1.374,3.196,4.486,5.109,7.758,5.109
		c1.112,0,2.243-0.222,3.329-0.689l1.099-0.473v86.603h30.108v-99.547v-18.372L233.181,335.347z"/>
</g>
<g>
	<path style="fill:#FFE991;" d="M160.45,183.584c-32.73,12.453-57.246,35.786-68.173,61.972
		c23.864,14.539,56.763,19.091,90.039,10.475L256,199.198L160.45,183.584z"/>
	<path style="fill:#FFE991;" d="M351.55,183.584c32.73,12.453,57.246,35.786,68.173,61.972
		c-23.864,14.539-56.763,19.091-90.039,10.475L256,199.198L351.55,183.584z"/>
</g>
<path style="fill:#FEF7D8;" d="M351.73,168.094c-5.59-17.207-17.162-27.478-30.955-27.478c-3.109,0-6.317,0.53-9.536,1.577
	c-9.09,2.954-23.182,16.43-35.14,29.343c8.585-15.363,17.048-32.93,17.048-42.487c0-18.531-14.581-30.505-37.148-30.505
	s-37.148,11.974-37.148,30.505c0,9.557,8.463,27.125,17.048,42.487c-11.958-12.913-26.05-26.389-35.14-29.343
	c-3.218-1.047-6.426-1.577-9.536-1.577c-13.792,0-25.365,10.273-30.955,27.478c-3.207,9.87-3.507,19.211-0.869,27.012
	c2.925,8.647,9.287,14.783,18.402,17.743c2.724,0.886,6.281,1.315,10.871,1.315c9.782,0,22.762-2,34.769-4.383
	c-15.965,7.381-33.117,16.61-38.73,24.336c-5.633,7.753-7.174,16.457-4.457,25.171c2.451,7.862,8.184,15.243,16.581,21.342
	c8.262,6.002,16.926,9.176,25.055,9.176c9.286,0,17.214-4.157,22.927-12.02c5.617-7.732,9.097-26.919,11.182-44.394
	c2.085,17.476,5.564,36.663,11.182,44.394c5.713,7.863,13.642,12.02,22.927,12.02c8.129,0,16.792-3.173,25.055-9.176
	c8.396-6.099,14.13-13.48,16.581-21.342c2.716-8.714,1.175-17.418-4.457-25.171c-5.614-7.726-22.765-16.957-38.731-24.336
	c12.008,2.383,24.988,4.383,34.77,4.384c4.591,0,8.147-0.43,10.871-1.315c9.115-2.961,15.477-9.097,18.402-17.743
	C355.238,187.304,354.938,177.963,351.73,168.094z"/>
<circle style="fill:#FCDE65;" cx="256" cy="199.196" r="25.319"/>
<path style="fill:#FFE991;" d="M255.999,207.64c-1.004,0-2.024-0.18-3.018-0.56c-4.353-1.668-6.529-6.548-4.862-10.901
	c11.166-29.149,33.26-51.667,62.21-63.404c28.307-11.476,60.182-11.558,89.753-0.231c4.353,1.668,6.529,6.548,4.862,10.901
	c-1.667,4.354-6.547,6.529-10.901,4.862c-25.564-9.793-53.041-9.754-77.373,0.11c-24.568,9.96-43.315,29.066-52.789,53.798
	C262.594,205.576,259.393,207.64,255.999,207.64z"/>
</svg>